<svg xmlns="http://www.w3.org/2000/svg" viewBox="0 0 350 500"><defs><style>.cls-1{fill:#ff931e;}.cls-2{fill:#f47200;}.cls-3{fill:#ff879d;}</style></defs><title>Bryster</title><g id="Bilde_3" data-name="Bilde 3"><polygon class="cls-1" points="114.34 163.82 63.86 184 68.31 81 122 125.85 114.34 163.82"/><polygon class="cls-1" points="160 97.54 242 78 232.29 192 171.87 162.69 160 97.54"/><path class="cls-2" d="M337,324.5c0-31.82-17.7-59.15-43-71.08V213.9a16.21,16.21,0,0,0-11.35-15.46L179.17,166a18.69,18.69,0,0,0-2.12-.52l-11.1-40c53.1-15,110.8-84,109-116.33L276,0h-244c5.4,38.34,36.64,105.87,87.92,123.87l-9.33,39.22L0,205v77H0V424l28.17-63c3,20,13.22,36.4,27.83,49v90H273V399C309,394.94,337,364.56,337,324.5Z"/><polygon class="cls-1" points="74 177.21 20 198 17 0 74 0 74 177.21"/><polygon class="cls-1" points="286 200 233 183 234 0 291 0 286 200"/></g><g id="Bilde_2" data-name="Bilde 2"><path class="cls-3" d="M148.11,60c-21.48,0-32.4,13-38.88,6.48-3.8-3.8,17.4,19.44,38.88,19.44,18.92,0,39.71-15.09,44.39-18.67C185.36,71.78,168.59,60,148.11,60Zm2.36,13.48A94.74,94.74,0,0,1,133.93,72a94.74,94.74,0,0,1,16.54-1.47,125.64,125.64,0,0,1,18,1.47A125.64,125.64,0,0,1,150.47,73.48Z"/><path class="cls-3" d="M192.5,67.25a5.86,5.86,0,0,0,1-.77S193.13,66.76,192.5,67.25Z"/><path class="cls-2" d="M133.93,72a94.74,94.74,0,0,0,16.54,1.47,125.64,125.64,0,0,0,18-1.47,125.64,125.64,0,0,0-18-1.47A94.74,94.74,0,0,0,133.93,72Z"/></g><g id="Bilde_1" data-name="Bilde 1"><path class="cls-1" d="M331.59,352.42c1.09,5.85-16,40.6-45.66,46.13s-63.13-26.06-64.22-31.91,31.2,18.52,60.87,13S330.49,346.56,331.59,352.42Z"/><path class="cls-1" d="M178,376c.62,8.29-50,44.51-89,45-40.31.51-58.48-42.36-58.92-50.91C29.66,361.79,60.16,409,100,406S177.38,367.71,178,376Z"/><ellipse class="cls-1" cx="330.5" cy="331.5" rx="8.5" ry="5.5"/><ellipse class="cls-1" cx="78.5" cy="380.5" rx="8.5" ry="6.5"/><rect class="cls-1" x="36.53" y="273.84" width="0.65" height="88.48" transform="translate(63.99 -0.98) rotate(11.47)"/><polygon class="cls-1" points="294 252.42 294 253.42 274 227 275 227 294 252.42"/></g></svg>
