<svg xmlns="http://www.w3.org/2000/svg" viewBox="0 0 1600 900"><defs><style>.cls-1{fill:#8acce4;}.cls-2{fill:#28495e;}.cls-3{fill:#b2b2b2;}</style></defs><title>game over 1</title><g id="gamer_over_1_baggrund" data-name="gamer over 1 baggrund"><rect class="cls-1" x="0.75" y="1" width="1600" height="900"/><rect class="cls-2" x="45.25" y="45" width="1509" height="812"/><rect class="cls-2" x="45" y="45" width="1509" height="812"/><rect class="cls-3" x="58.59" y="93" width="1397.49" height="752"/></g><g id="tekst"><path d="M739.47,267.33l.18,61.36H718l1.2-18.13a119,119,0,0,1,2.11-17l-.82-.19-.47,1.75a81.94,81.94,0,0,1-5,15l-7.82,18.59h-14l-2.39-19.41c-.18-1.11-.27-2.67-.46-4.6q-.27-3.45-.27-5.52V298a43.51,43.51,0,0,1,.18-4.6h-.74l-.18,1.38a129,129,0,0,1-2.58,14.54l-4.5,19.41H659.8l17.85-61.36H701.2l2.39,19.13a55.2,55.2,0,0,1,.46,6.81,32.46,32.46,0,0,1-.55,6.71h.92a85.38,85.38,0,0,1,5.42-17.47L716,267.33Z"/><path d="M773.69,285.73a44.28,44.28,0,0,1-1.93,7.08l1,.18c3.68-6.34,7.36-8.74,13.62-8.74s10,2.95,11,9h.73c2.3-6,6.81-9,13.25-9,8.56,0,14.08,5.43,14.08,13.9a54.16,54.16,0,0,1-.46,6l-3,24.57h-20.7L804,307a19.09,19.09,0,0,0,.28-2.67c0-1.84-1-3.22-2.49-3.22-2.48,0-3.31,1.38-4,7.27l-2.58,20.33h-20.7l2.58-21.16.36-2.3v-1c0-1.84-.92-3-2.39-3-2.48,0-3.4,1.47-4.05,6.62l-2.57,20.89h-20.7l5.24-43Z"/><path d="M856.77,285.73a45.38,45.38,0,0,1-1.93,7.08l1,.18c3.68-6.34,7.36-8.74,13.61-8.74s10,2.95,11,9h.74c2.3-6,6.81-9,13.25-9,8.55,0,14.07,5.43,14.07,13.9a51.81,51.81,0,0,1-.46,6l-3,24.57h-20.7L887,307a19.77,19.77,0,0,0,.27-2.67c0-1.84-1-3.22-2.48-3.22-2.49,0-3.31,1.38-4,7.27l-2.57,20.33H857.6l2.57-21.16.37-2.3v-1c0-1.84-.92-3-2.39-3-2.48,0-3.4,1.47-4,6.62l-2.57,20.89h-20.7l5.24-43Z"/><path d="M939.84,285.73a44.28,44.28,0,0,1-1.93,7.08l1,.18c3.68-6.34,7.37-8.74,13.62-8.74s10,2.95,11,9h.74c2.3-6,6.8-9,13.24-9,8.56,0,14.08,5.43,14.08,13.9a54.16,54.16,0,0,1-.46,6l-3,24.57h-20.7L970.11,307a19.09,19.09,0,0,0,.28-2.67c0-1.84-1-3.22-2.49-3.22-2.48,0-3.31,1.38-3.95,7.27l-2.58,20.33h-20.7l2.58-21.16.37-2.3v-1c0-1.84-.92-3-2.4-3-2.48,0-3.4,1.47-4,6.62l-2.58,20.89H913.9l5.25-43Z"/><path d="M1022.92,285.73a44.28,44.28,0,0,1-1.93,7.08l1,.18c3.68-6.34,7.36-8.74,13.62-8.74s10,2.95,11,9h.73c2.3-6,6.81-9,13.25-9,8.56,0,14.07,5.43,14.07,13.9a51.81,51.81,0,0,1-.46,6l-3,24.57h-20.7l2.67-21.71a19.77,19.77,0,0,0,.27-2.67c0-1.84-1-3.22-2.48-3.22-2.48,0-3.31,1.38-4,7.27l-2.57,20.33h-20.7l2.58-21.16.36-2.3v-1c0-1.84-.92-3-2.39-3-2.48,0-3.4,1.47-4,6.62l-2.57,20.89H997l5.24-43Z"/><path d="M1106,285.73a45.38,45.38,0,0,1-1.93,7.08l1,.18c3.68-6.34,7.36-8.74,13.61-8.74s10,2.95,11,9h.74c2.3-6,6.81-9,13.25-9,8.55,0,14.07,5.43,14.07,13.9a51.81,51.81,0,0,1-.46,6l-3,24.57H1133.6l2.66-21.71a19.09,19.09,0,0,0,.28-2.67c0-1.84-1-3.22-2.48-3.22-2.49,0-3.32,1.38-4,7.27l-2.58,20.33h-20.69l2.57-21.16.37-2.3v-1c0-1.84-.92-3-2.39-3-2.49,0-3.41,1.47-4.05,6.62l-2.58,20.89h-20.7l5.25-43Z"/><path d="M1209.68,319.49c0,5.79-5.43,10.39-12.42,10.39-6.72,0-11.77-4.23-11.77-9.75,0-5.89,5.7-10.85,12.32-10.85S1209.68,313.78,1209.68,319.49Z"/><path d="M1242.34,319.49c0,5.79-5.43,10.39-12.42,10.39-6.72,0-11.78-4.23-11.78-9.75,0-5.89,5.71-10.85,12.33-10.85S1242.34,313.78,1242.34,319.49Z"/><path d="M1275,319.49c0,5.79-5.43,10.39-12.42,10.39-6.72,0-11.78-4.23-11.78-9.75,0-5.89,5.71-10.85,12.33-10.85S1275,313.78,1275,319.49Z"/><path d="M663,415.34h6.8c3.36,0,8.11.35,12.31,3.9a16.26,16.26,0,0,1,5.7,12.8,15.88,15.88,0,0,1-5.85,12.8c-3.05,2.6-6.25,3.85-12.2,3.85H663Zm3.71,29.85H670a14.26,14.26,0,0,0,9.55-3A12.76,12.76,0,0,0,684,432c0-8-5.6-13.2-14-13.2H666.7Z"/><path d="M712.1,443.39a12.46,12.46,0,0,1-2.56,3.35,10.07,10.07,0,0,1-6.9,2.55c-5,0-10.25-3.15-10.25-10.85,0-6.2,3.8-11,10.05-11a9.27,9.27,0,0,1,7.85,3.8,13.85,13.85,0,0,1,2,7.8H696.09c0,4.3,3,7,6.6,7a6.33,6.33,0,0,0,4.26-1.5,8.23,8.23,0,0,0,2.14-2.85ZM708.54,436a6.19,6.19,0,0,0-6.1-5.4,6.31,6.31,0,0,0-6.1,5.4Z"/><path d="M721.44,431.24v17.45h-3.6V431.24h-2.2v-3.3h2.2v-7.5h3.6v7.5H725v3.3Z"/><path d="M733.14,431.24v17.45h-3.6V431.24h-2.2v-3.3h2.2v-7.5h3.6v7.5h3.6v3.3Z"/><path d="M758.54,443.39a12.41,12.41,0,0,1-2.55,3.35,10.07,10.07,0,0,1-6.9,2.55c-5,0-10.25-3.15-10.25-10.85,0-6.2,3.8-11,10-11a9.28,9.28,0,0,1,7.85,3.8,13.93,13.93,0,0,1,2,7.8H742.54c.05,4.3,3,7,6.6,7a6.31,6.31,0,0,0,4.25-1.5,8.27,8.27,0,0,0,2.15-2.85ZM755,436a6.21,6.21,0,0,0-6.1-5.4,6.31,6.31,0,0,0-6.1,5.4Z"/><path d="M779.44,448.69h-3.6V412.24h3.6v18.6a8.92,8.92,0,0,1,7.1-3.4c6.5,0,10.1,5.4,10.1,11s-3.65,10.85-9.95,10.85a8.81,8.81,0,0,1-7.25-3.5Zm13.5-10.25c0-5.1-3.45-7.8-6.8-7.8s-6.9,2.75-6.9,7.75c0,4.25,2.7,7.7,7,7.7S792.94,442.59,792.94,438.44Z"/><path d="M803.94,417.54a2.55,2.55,0,1,1-2.55,2.55A2.56,2.56,0,0,1,803.94,417.54Zm1.8,10.4v20.75h-3.6V427.94Z"/><path d="M816.14,412.24v36.45h-3.6V412.24Z"/><path d="M826.54,412.24v36.45h-3.6V412.24Z"/><path d="M851.74,443.39a12.41,12.41,0,0,1-2.55,3.35,10.07,10.07,0,0,1-6.9,2.55c-5,0-10.25-3.15-10.25-10.85,0-6.2,3.8-11,10.05-11a9.28,9.28,0,0,1,7.85,3.8,13.93,13.93,0,0,1,1.95,7.8H835.74c0,4.3,3,7,6.6,7a6.31,6.31,0,0,0,4.25-1.5,8.27,8.27,0,0,0,2.15-2.85ZM848.19,436a6.21,6.21,0,0,0-6.1-5.4A6.31,6.31,0,0,0,836,436Z"/><path d="M873.29,412.24h3.6v36.45h-3.6v-2.9a8.75,8.75,0,0,1-7.1,3.5c-5.25,0-10.1-3.7-10.1-11s4.8-10.85,10.1-10.85a8.58,8.58,0,0,1,7.1,3.45Zm-13.5,26.05c0,4.45,2.5,7.8,6.8,7.8s6.9-3.65,6.9-7.75c0-5.35-3.7-7.7-6.9-7.7C863,430.64,859.79,433.24,859.79,438.29Z"/><path d="M902.09,443.39a12.41,12.41,0,0,1-2.55,3.35,10.07,10.07,0,0,1-6.9,2.55c-5,0-10.25-3.15-10.25-10.85,0-6.2,3.8-11,10.05-11a9.28,9.28,0,0,1,7.85,3.8,13.93,13.93,0,0,1,2,7.8H886.09c0,4.3,3,7,6.6,7a6.31,6.31,0,0,0,4.25-1.5,8.27,8.27,0,0,0,2.15-2.85ZM898.54,436a6.21,6.21,0,0,0-6.1-5.4,6.31,6.31,0,0,0-6.1,5.4Z"/><path d="M680.5,503.39a12.41,12.41,0,0,1-2.55,3.35,10.1,10.1,0,0,1-6.91,2.55c-5,0-10.25-3.15-10.25-10.85,0-6.2,3.8-11,10.05-11a9.29,9.29,0,0,1,7.86,3.8,13.93,13.93,0,0,1,1.95,7.8H664.5c0,4.3,3,7,6.59,7a6.33,6.33,0,0,0,4.26-1.5,8.39,8.39,0,0,0,2.15-2.85ZM677,496a6.21,6.21,0,0,0-6.11-5.4,6.29,6.29,0,0,0-6.09,5.4Z"/><path d="M686.14,487.94h3.6v2.25a5.77,5.77,0,0,1,4.71-2.75,7.64,7.64,0,0,1,3.2.85l-1.7,3.25a3.75,3.75,0,0,0-2.11-.7,3.5,3.5,0,0,0-2.9,1.3c-.6.8-1.2,2.2-1.2,5.6v10.95h-3.6Z"/><path d="M716.29,491.24v17.45h-3.6V491.24h-2v-3.3h2v-9.05c0-1.9.15-4.3,2-5.85a6.46,6.46,0,0,1,4.15-1.35,7.25,7.25,0,0,1,2.55.44v3.5a6.74,6.74,0,0,0-2.35-.44,2.5,2.5,0,0,0-2.3,1.1,6.24,6.24,0,0,0-.45,3v8.65h5.1v3.3Z"/><path d="M740.49,487.94h3.6v20.75h-3.6v-2.9a8.75,8.75,0,0,1-7.1,3.5c-5.25,0-10.1-3.7-10.1-11s4.8-10.85,10.1-10.85a8.58,8.58,0,0,1,7.1,3.45ZM727,498.29c0,4.45,2.5,7.8,6.8,7.8s6.9-3.65,6.9-7.75c0-5.35-3.7-7.7-6.9-7.7C730.24,490.64,727,493.24,727,498.29Z"/><path d="M754.49,472.24v23.4l7.6-7.7h4.7l-8.9,8.9,10.5,11.85h-4.7l-8.3-9.45-.9.9v8.55h-3.6V472.24Z"/><path d="M775.69,491.24v17.45h-3.6V491.24h-2.2v-3.3h2.2v-7.5h3.6v7.5h3.6v3.3Z"/><path d="M784.49,477.54a2.55,2.55,0,1,1-2.55,2.55A2.56,2.56,0,0,1,784.49,477.54Zm1.8,10.4v20.75h-3.6V487.94Z"/><path d="M801.64,492.74a3.18,3.18,0,0,0-2.9-2.1,2.29,2.29,0,0,0-2.5,2.35c0,1.5,1,1.95,3.35,2.95,3,1.25,4.4,2.2,5.2,3.2a4.91,4.91,0,0,1,1.1,3.35c0,4.35-3.15,6.8-7.15,6.8a7.42,7.42,0,0,1-7.25-5.3l3.1-1.3c.4,1.1,1.6,3.4,4.2,3.4a3.22,3.22,0,0,0,3.4-3.3c0-2-1.4-2.6-3.35-3.45-2.5-1.1-4.1-1.9-5.05-3a4.51,4.51,0,0,1-.95-3.05c0-3.65,2.55-5.8,6-5.8a6,6,0,0,1,5.7,3.75Z"/><path d="M814.29,472.24v23.4l7.6-7.7h4.7l-8.9,8.9,10.5,11.85h-4.7l-8.3-9.45-.9.9v8.55h-3.6V472.24Z"/><path d="M842.14,498.39a11,11,0,1,1,11,10.9A10.65,10.65,0,0,1,842.14,498.39Zm3.7,0c0,5.1,3.6,7.7,7.3,7.7s7.3-2.65,7.3-7.7-3.5-7.75-7.3-7.75S845.84,493.34,845.84,498.39Z"/><path d="M873.24,472.24v23.4l7.6-7.7h4.7l-8.9,8.9,10.5,11.85h-4.7l-8.3-9.45-.9.9v8.55h-3.6V472.24Z"/><path d="M906.64,487.94h3.6v20.75h-3.6v-2.9a8.75,8.75,0,0,1-7.1,3.5c-5.25,0-10.1-3.7-10.1-11s4.8-10.85,10.1-10.85a8.58,8.58,0,0,1,7.1,3.45Zm-13.5,10.35c0,4.45,2.5,7.8,6.8,7.8s6.9-3.65,6.9-7.75c0-5.35-3.7-7.7-6.9-7.7C896.39,490.64,893.14,493.24,893.14,498.29Z"/><path d="M923.59,506.74,914,487.94h4.1l7.35,14.85,6.75-14.85h4L921,520.19h-4Z"/><path d="M967.59,487.94h3.6v20.75h-3.6v-2.9a8.75,8.75,0,0,1-7.1,3.5c-5.25,0-10.1-3.7-10.1-11s4.8-10.85,10.1-10.85a8.58,8.58,0,0,1,7.1,3.45Zm-13.5,10.35c0,4.45,2.5,7.8,6.8,7.8s6.9-3.65,6.9-7.75c0-5.35-3.7-7.7-6.9-7.7C957.34,490.64,954.09,493.24,954.09,498.29Z"/><path d="M981.69,491.24v17.45h-3.61V491.24h-2.2v-3.3h2.2v-7.5h3.61v7.5h3.6v3.3Z"/><path d="M1016.23,472.24h3.6v36.45h-3.6v-2.9a8.74,8.74,0,0,1-7.1,3.5c-5.25,0-10.1-3.7-10.1-11s4.8-10.85,10.1-10.85a8.57,8.57,0,0,1,7.1,3.45Zm-13.5,26.05c0,4.45,2.5,7.8,6.8,7.8s6.9-3.65,6.9-7.75c0-5.35-3.7-7.7-6.9-7.7C1006,490.64,1002.73,493.24,1002.73,498.29Z"/><path d="M1045,503.39a12.41,12.41,0,0,1-2.55,3.35,10.07,10.07,0,0,1-6.9,2.55c-5,0-10.25-3.15-10.25-10.85,0-6.2,3.8-11,10.05-11a9.28,9.28,0,0,1,7.85,3.8,13.93,13.93,0,0,1,2,7.8H1029c0,4.3,3,7,6.6,7a6.31,6.31,0,0,0,4.25-1.5,8.27,8.27,0,0,0,2.15-2.85Zm-3.55-7.35a6.21,6.21,0,0,0-6.1-5.4,6.31,6.31,0,0,0-6.1,5.4Z"/><path d="M1054.28,472.24v36.45h-3.6V472.24Z"/><path d="M1079.48,503.39a12.41,12.41,0,0,1-2.55,3.35,10.07,10.07,0,0,1-6.9,2.55c-5,0-10.25-3.15-10.25-10.85,0-6.2,3.8-11,10-11a9.28,9.28,0,0,1,7.85,3.8,13.93,13.93,0,0,1,2,7.8h-16.15c0,4.3,3,7,6.6,7a6.31,6.31,0,0,0,4.25-1.5,8.27,8.27,0,0,0,2.15-2.85Zm-3.55-7.35a6.21,6.21,0,0,0-6.1-5.4,6.31,6.31,0,0,0-6.1,5.4Z"/><path d="M1087.43,504.19a2.5,2.5,0,1,1-2.5,2.5A2.54,2.54,0,0,1,1087.43,504.19Z"/></g></svg>