<svg xmlns="http://www.w3.org/2000/svg" viewBox="0 0 1600 900"><defs><style>.cls-1{fill:#8acce4;}.cls-2{fill:#28495e;}.cls-3{fill:#636363;}.cls-4{fill:#fff;}</style></defs><title>game over 2</title><g id="game_over_2_baggrund" data-name="game over 2 baggrund"><rect class="cls-1" x="-0.25" width="1600" height="900"/><rect class="cls-2" x="44.25" y="44" width="1509" height="812"/><rect class="cls-2" x="44" y="44" width="1509" height="812"/><rect class="cls-3" x="57.59" y="92" width="1397.49" height="752"/></g><g id="tekst"><path d="M890.44,233.71l-7.55,61.37H861.37L850.7,273.92a72.52,72.52,0,0,1-4.88-12.42l-.37-1.11h-.74a67,67,0,0,1,.37,7.36,58.42,58.42,0,0,1-.27,6.17l-1.93,21.16H820.52l7.54-61.37h22.36l10.85,23.1a63.12,63.12,0,0,1,3.87,10.85l.55,2,.92-.09-.18-2c-.28-3.4-.46-5.89-.46-8.47a64.3,64.3,0,0,1,.36-7.26l1.57-18.13Z"/><path d="M943.06,233.71l-1.93,16H923l-.83,6.72h16.56l-1.84,15.18H920.34l-.83,7h18.77l-2,16.47h-41l7.55-61.37Z"/><path d="M982.9,233.71l-5.06,41.13c-.65,5.33-1.47,11.31-6.07,16s-11,5.8-16.29,5.8c-8.74,0-13.61-2.67-16.46-4.78L946.19,272a15.38,15.38,0,0,0,2.3,3.78,4.17,4.17,0,0,0,3.59,1.74,3.15,3.15,0,0,0,2.76-1.28c.28-.46.74-1.38,1.1-4.24l4.7-38.27Z"/><path d="M1013.72,286c0,5.7-5.43,10.21-12.05,10.21s-12.24-4.78-12.24-10.58,5.15-9.94,12-9.94S1013.72,280.17,1013.72,286Zm5.52-52.26L1014.73,271H992.47l4.5-37.26Z"/><path class="cls-4" d="M821.23,432.12H828c3.35,0,8.1.35,12.3,3.9a16.26,16.26,0,0,1,5.7,12.8,15.88,15.88,0,0,1-5.85,12.8c-3,2.6-6.25,3.85-12.2,3.85h-6.75Zm3.7,29.85h3.25a14.25,14.25,0,0,0,9.55-3,12.75,12.75,0,0,0,4.5-10.15c0-8-5.6-13.2-14.05-13.2h-3.25Z"/><path class="cls-4" d="M870.33,460.17a12.61,12.61,0,0,1-2.55,3.36,10.12,10.12,0,0,1-6.9,2.55c-5,0-10.25-3.16-10.25-10.86,0-6.2,3.8-11,10-11a9.28,9.28,0,0,1,7.85,3.8,13.93,13.93,0,0,1,2,7.8H854.33c0,4.3,3,7.06,6.6,7.06a6.31,6.31,0,0,0,4.25-1.5,8.36,8.36,0,0,0,2.15-2.85Zm-3.55-7.35a6.21,6.21,0,0,0-6.1-5.4,6.31,6.31,0,0,0-6.1,5.4Z"/><path class="cls-4" d="M879.68,448v17.45h-3.6V448h-2.2v-3.3h2.2v-7.5h3.6v7.5h3.6V448Z"/><path class="cls-4" d="M891.38,448v17.45h-3.6V448h-2.2v-3.3h2.2v-7.5h3.6v7.5H895V448Z"/><path class="cls-4" d="M916.78,460.17a12.61,12.61,0,0,1-2.55,3.36,10.12,10.12,0,0,1-6.9,2.55c-5,0-10.25-3.16-10.25-10.86,0-6.2,3.8-11,10-11A9.28,9.28,0,0,1,915,448a13.93,13.93,0,0,1,1.95,7.8H900.78c.05,4.3,3,7.06,6.6,7.06a6.31,6.31,0,0,0,4.25-1.5,8.36,8.36,0,0,0,2.15-2.85Zm-3.55-7.35a6.21,6.21,0,0,0-6.1-5.4,6.31,6.31,0,0,0-6.1,5.4Z"/><path class="cls-4" d="M937.68,465.47h-3.6V429h3.6v18.6a8.92,8.92,0,0,1,7.1-3.4c6.5,0,10.1,5.4,10.1,11s-3.65,10.86-10,10.86a8.79,8.79,0,0,1-7.25-3.51Zm13.5-10.25c0-5.1-3.45-7.8-6.8-7.8s-6.9,2.75-6.9,7.75c0,4.25,2.7,7.71,6.95,7.71S951.18,459.38,951.18,455.22Z"/><path class="cls-4" d="M962.18,434.32a2.55,2.55,0,1,1-2.55,2.55A2.56,2.56,0,0,1,962.18,434.32Zm1.8,10.4v20.75h-3.6V444.72Z"/><path class="cls-4" d="M974.38,429v36.45h-3.6V429Z"/><path class="cls-4" d="M984.78,429v36.45h-3.6V429Z"/><path class="cls-4" d="M1010,460.17a12.61,12.61,0,0,1-2.55,3.36,10.12,10.12,0,0,1-6.9,2.55c-5,0-10.25-3.16-10.25-10.86,0-6.2,3.8-11,10.05-11a9.28,9.28,0,0,1,7.85,3.8,13.93,13.93,0,0,1,2,7.8H994c0,4.3,3,7.06,6.6,7.06a6.31,6.31,0,0,0,4.25-1.5,8.36,8.36,0,0,0,2.15-2.85Zm-3.55-7.35a6.21,6.21,0,0,0-6.1-5.4,6.31,6.31,0,0,0-6.1,5.4Z"/><path class="cls-4" d="M1031.53,429h3.6v36.45h-3.6v-2.9a8.76,8.76,0,0,1-7.1,3.51c-5.25,0-10.1-3.7-10.1-11,0-7.15,4.8-10.85,10.1-10.85a8.58,8.58,0,0,1,7.1,3.45ZM1018,455.07c0,4.46,2.5,7.81,6.8,7.81s6.9-3.66,6.9-7.76c0-5.35-3.7-7.7-6.9-7.7C1021.28,447.42,1018,450,1018,455.07Z"/><path class="cls-4" d="M1060.33,460.17a12.61,12.61,0,0,1-2.55,3.36,10.12,10.12,0,0,1-6.9,2.55c-5,0-10.26-3.16-10.26-10.86,0-6.2,3.8-11,10.05-11a9.29,9.29,0,0,1,7.86,3.8,13.93,13.93,0,0,1,2,7.8h-16.15c.05,4.3,3,7.06,6.59,7.06a6.33,6.33,0,0,0,4.26-1.5,8.49,8.49,0,0,0,2.15-2.85Zm-3.55-7.35a6.21,6.21,0,0,0-6.11-5.4,6.29,6.29,0,0,0-6.09,5.4Z"/><path class="cls-4" d="M1077.62,444.72h3.6v2.2a6,6,0,0,1,5.15-2.7,6.21,6.21,0,0,1,5.65,3.35,6.94,6.94,0,0,1,6.26-3.35c6.15,0,6.75,5.15,6.75,8.1v13.15h-3.6V452.88c0-2.36-.31-5.46-3.71-5.46-4.14,0-4.6,4-4.6,6.5v11.55h-3.6v-12.3c0-1.45,0-5.75-3.75-5.75-4.1,0-4.55,4.25-4.55,6.75v11.3h-3.6Z"/><path class="cls-4" d="M1127.77,444.72h3.61v20.75h-3.61v-2.9a8.74,8.74,0,0,1-7.1,3.51c-5.25,0-10.1-3.7-10.1-11,0-7.15,4.8-10.85,10.1-10.85a8.57,8.57,0,0,1,7.1,3.45Zm-13.5,10.35c0,4.46,2.5,7.81,6.8,7.81s6.9-3.66,6.9-7.76c0-5.35-3.7-7.7-6.9-7.7C1117.52,447.42,1114.27,450,1114.27,455.07Zm7.6-23.05a4.3,4.3,0,1,1-4.3,4.3A4.33,4.33,0,0,1,1121.87,432Zm0,6.4a2.1,2.1,0,1,0-2.1-2.1A2.18,2.18,0,0,0,1121.87,438.42Z"/><path class="cls-4" d="M1151.62,434.32a2.55,2.55,0,1,1-2.55,2.55A2.56,2.56,0,0,1,1151.62,434.32Zm1.8,10.4v20.75h-3.6V444.72Z"/><path class="cls-4" d="M1163.82,429v23.4l7.6-7.7h4.7l-8.9,8.9,10.5,11.85H1173l-8.3-9.45-.9.9v8.55h-3.6V429Z"/><path class="cls-4" d="M1184.92,429v23.4l7.6-7.7h4.7l-8.9,8.9,10.5,11.85h-4.7l-8.3-9.45-.9.9v8.55h-3.6V429Z"/><path class="cls-4" d="M1220.32,460.17a12.61,12.61,0,0,1-2.55,3.36,10.12,10.12,0,0,1-6.9,2.55c-5,0-10.25-3.16-10.25-10.86,0-6.2,3.8-11,10.05-11a9.28,9.28,0,0,1,7.85,3.8,13.93,13.93,0,0,1,2,7.8h-16.15c0,4.3,3,7.06,6.6,7.06a6.31,6.31,0,0,0,4.25-1.5,8.36,8.36,0,0,0,2.15-2.85Zm-3.55-7.35a6.21,6.21,0,0,0-6.1-5.4,6.31,6.31,0,0,0-6.1,5.4Z"/><path class="cls-4" d="M1253.52,429h3.6v36.45h-3.6v-2.9a8.76,8.76,0,0,1-7.1,3.51c-5.25,0-10.1-3.7-10.1-11,0-7.15,4.8-10.85,10.1-10.85a8.58,8.58,0,0,1,7.1,3.45ZM1240,455.07c0,4.46,2.5,7.81,6.8,7.81s6.9-3.66,6.9-7.76c0-5.35-3.7-7.7-6.9-7.7C1243.27,447.42,1240,450,1240,455.07Z"/><path class="cls-4" d="M1282.32,460.17a12.61,12.61,0,0,1-2.55,3.36,10.12,10.12,0,0,1-6.9,2.55c-5,0-10.25-3.16-10.25-10.86,0-6.2,3.8-11,10.05-11a9.28,9.28,0,0,1,7.85,3.8,13.93,13.93,0,0,1,2,7.8h-16.15c0,4.3,3,7.06,6.6,7.06a6.31,6.31,0,0,0,4.25-1.5,8.36,8.36,0,0,0,2.15-2.85Zm-3.55-7.35a6.21,6.21,0,0,0-6.1-5.4,6.31,6.31,0,0,0-6.1,5.4Z"/><path class="cls-4" d="M1291.57,429v36.45H1288V429Z"/><path class="cls-4" d="M1316.77,460.17a12.61,12.61,0,0,1-2.55,3.36,10.12,10.12,0,0,1-6.9,2.55c-5,0-10.25-3.16-10.25-10.86,0-6.2,3.8-11,10-11A9.28,9.28,0,0,1,1315,448a13.93,13.93,0,0,1,2,7.8h-16.15c0,4.3,3,7.06,6.6,7.06a6.31,6.31,0,0,0,4.25-1.5,8.36,8.36,0,0,0,2.15-2.85Zm-3.55-7.35a6.21,6.21,0,0,0-6.1-5.4,6.31,6.31,0,0,0-6.1,5.4Z"/><path class="cls-4" d="M1331,449.52a3.18,3.18,0,0,0-2.9-2.1,2.29,2.29,0,0,0-2.5,2.35c0,1.5,1,2,3.35,3,3,1.25,4.4,2.2,5.2,3.2a4.92,4.92,0,0,1,1.1,3.36c0,4.34-3.15,6.8-7.15,6.8a7.44,7.44,0,0,1-7.25-5.3l3.1-1.31c.4,1.1,1.6,3.41,4.2,3.41a3.23,3.23,0,0,0,3.4-3.31c0-1.95-1.4-2.6-3.35-3.45-2.5-1.1-4.1-1.9-5.05-3.05a4.51,4.51,0,0,1-.95-3.05c0-3.65,2.55-5.8,6-5.8a6,6,0,0,1,5.7,3.75Z"/><path class="cls-4" d="M1343.62,461a2.5,2.5,0,1,1-2.5,2.5A2.54,2.54,0,0,1,1343.62,461Zm-1.8-2.25v-26.6h3.6v26.6Z"/><path class="cls-4" d="M1357.62,461a2.5,2.5,0,1,1-2.5,2.5A2.54,2.54,0,0,1,1357.62,461Zm-1.8-2.25v-26.6h3.6v26.6Z"/><path class="cls-4" d="M821.23,492.12H828c3.35,0,8.1.35,12.3,3.9a16.26,16.26,0,0,1,5.7,12.8,15.88,15.88,0,0,1-5.85,12.8c-3,2.6-6.25,3.85-12.2,3.85h-6.75Zm3.7,29.85h3.25a14.25,14.25,0,0,0,9.55-3,12.75,12.75,0,0,0,4.5-10.15c0-8-5.6-13.2-14.05-13.2h-3.25Z"/><path class="cls-4" d="M870.33,520.17a12.61,12.61,0,0,1-2.55,3.36,10.12,10.12,0,0,1-6.9,2.55c-5,0-10.25-3.16-10.25-10.86,0-6.2,3.8-11,10-11a9.28,9.28,0,0,1,7.85,3.8,13.93,13.93,0,0,1,2,7.8H854.33c0,4.3,3,7.06,6.6,7.06a6.31,6.31,0,0,0,4.25-1.5,8.36,8.36,0,0,0,2.15-2.85Zm-3.55-7.35a6.21,6.21,0,0,0-6.1-5.4,6.31,6.31,0,0,0-6.1,5.4Z"/><path class="cls-4" d="M879.58,489v36.45H876V489Z"/><path class="cls-4" d="M913.93,504.72h3.6v20.75h-3.6v-2.9a8.76,8.76,0,0,1-7.1,3.51c-5.25,0-10.1-3.7-10.1-11,0-7.15,4.8-10.85,10.1-10.85a8.58,8.58,0,0,1,7.1,3.45Zm-13.5,10.35c0,4.46,2.5,7.81,6.8,7.81s6.9-3.66,6.9-7.76c0-5.35-3.7-7.7-6.9-7.7C903.68,507.42,900.43,510,900.43,515.07Z"/><path class="cls-4" d="M927.93,489v36.45h-3.6V489Z"/><path class="cls-4" d="M950.63,489h3.6v36.45h-3.6v-2.9a8.76,8.76,0,0,1-7.1,3.51c-5.25,0-10.1-3.7-10.1-11,0-7.15,4.8-10.85,10.1-10.85a8.58,8.58,0,0,1,7.1,3.45Zm-13.5,26.05c0,4.46,2.5,7.81,6.8,7.81s6.9-3.66,6.9-7.76c0-5.35-3.7-7.7-6.9-7.7C940.38,507.42,937.13,510,937.13,515.07Z"/><path class="cls-4" d="M961,504.72h3.6V507a5.77,5.77,0,0,1,4.7-2.75,7.6,7.6,0,0,1,3.2.85l-1.7,3.25a3.7,3.7,0,0,0-2.1-.7,3.48,3.48,0,0,0-2.9,1.3c-.6.8-1.2,2.2-1.2,5.6v11H961Z"/><path class="cls-4" d="M977.63,494.32a2.55,2.55,0,1,1-2.55,2.55A2.56,2.56,0,0,1,977.63,494.32Zm1.8,10.4v20.75h-3.6V504.72Z"/><path class="cls-4" d="M1002.13,504.72h3.6V525c0,2.25,0,5.46-2,8.15a10.07,10.07,0,0,1-8.3,3.86,10.28,10.28,0,0,1-7.4-2.8,9.36,9.36,0,0,1-2.7-6.71h3.55a6.56,6.56,0,0,0,1.6,4.31,6.43,6.43,0,0,0,5,2,5.82,5.82,0,0,0,5.5-2.9,9.65,9.65,0,0,0,1.15-5.3v-3a8.76,8.76,0,0,1-7.1,3.51,9.94,9.94,0,0,1-7.1-2.8,11.25,11.25,0,0,1-3-8.21,10.88,10.88,0,0,1,3-8.05,10.23,10.23,0,0,1,7.1-2.8,8.63,8.63,0,0,1,7.1,3.45Zm-11.4,4.65a8.94,8.94,0,0,0,.25,11.8,6.28,6.28,0,0,0,4.45,1.71,6.11,6.11,0,0,0,4.55-1.76,8.39,8.39,0,0,0,2.35-6,8.2,8.2,0,0,0-2.2-5.85,6.65,6.65,0,0,0-4.7-1.85A6.43,6.43,0,0,0,990.73,509.37Z"/><path class="cls-4" d="M1024.18,504.72h3.6v2.4a7.32,7.32,0,0,1,6-2.9,7,7,0,0,1,6,2.85c1,1.55,1.2,3.25,1.2,5.55v12.85h-3.6V512.72a6.1,6.1,0,0,0-1-3.8,4.07,4.07,0,0,0-3.4-1.5,4.54,4.54,0,0,0-3.65,1.6c-1.4,1.65-1.5,4.1-1.5,5.6v10.85h-3.6Z"/><path class="cls-4" d="M1066.18,508.42a10.25,10.25,0,0,1,2.2,6.75,11.18,11.18,0,0,1-17.71,8.8l-3.05,3-2.3-2.25,3.06-3a11.13,11.13,0,0,1,9-17.5,10.44,10.44,0,0,1,6.5,2l3-3,2.2,2.25Zm-4.8.15a7.09,7.09,0,0,0-4-1.15c-3.8,0-7.3,2.65-7.3,7.75a8.91,8.91,0,0,0,.94,4.11Zm-8.16,13a6.89,6.89,0,0,0,4.16,1.31c3.74,0,7.3-2.6,7.3-7.71a8.45,8.45,0,0,0-1.1-4.3Z"/><path class="cls-4" d="M1089.77,504.72h3.61V525c0,2.25,0,5.46-2,8.15a10.09,10.09,0,0,1-8.31,3.86,10.28,10.28,0,0,1-7.4-2.8,9.36,9.36,0,0,1-2.7-6.71h3.55a6.56,6.56,0,0,0,1.6,4.31,6.43,6.43,0,0,0,5,2,5.82,5.82,0,0,0,5.5-2.9,9.65,9.65,0,0,0,1.15-5.3v-3a8.74,8.74,0,0,1-7.1,3.51,9.94,9.94,0,0,1-7.1-2.8,11.25,11.25,0,0,1-3-8.21,10.88,10.88,0,0,1,3-8.05,10.23,10.23,0,0,1,7.1-2.8,8.63,8.63,0,0,1,7.1,3.45Zm-11.4,4.65a8.94,8.94,0,0,0,.25,11.8,6.28,6.28,0,0,0,4.45,1.71,6.11,6.11,0,0,0,4.55-1.76,8.39,8.39,0,0,0,2.35-6,8.16,8.16,0,0,0-2.2-5.85,6.65,6.65,0,0,0-4.7-1.85A6.43,6.43,0,0,0,1078.37,509.37Z"/><path class="cls-4" d="M1118.57,520.17a12.61,12.61,0,0,1-2.55,3.36,10.12,10.12,0,0,1-6.9,2.55c-5,0-10.25-3.16-10.25-10.86,0-6.2,3.8-11,10.05-11a9.28,9.28,0,0,1,7.85,3.8,13.93,13.93,0,0,1,2,7.8h-16.15c0,4.3,3,7.06,6.6,7.06a6.31,6.31,0,0,0,4.25-1.5,8.36,8.36,0,0,0,2.15-2.85Zm-3.55-7.35a6.21,6.21,0,0,0-6.1-5.4,6.31,6.31,0,0,0-6.1,5.4Z"/><path class="cls-4" d="M1124.22,504.72h3.6v2.4a7.32,7.32,0,0,1,6-2.9,7,7,0,0,1,6,2.85c1,1.55,1.2,3.25,1.2,5.55v12.85h-3.6V512.72a6.1,6.1,0,0,0-1-3.8,4.07,4.07,0,0,0-3.4-1.5,4.54,4.54,0,0,0-3.65,1.6c-1.4,1.65-1.5,4.1-1.5,5.6v10.85h-3.6Z"/><path class="cls-4" d="M1151.32,525.47h-3.6V489h3.6v18.6a8.92,8.92,0,0,1,7.1-3.4c6.5,0,10.1,5.4,10.1,11s-3.65,10.86-10,10.86a8.79,8.79,0,0,1-7.25-3.51Zm13.5-10.25c0-5.1-3.45-7.8-6.8-7.8s-6.9,2.75-6.9,7.75c0,4.25,2.7,7.71,7,7.71S1164.82,519.38,1164.82,515.22Z"/><path class="cls-4" d="M1175.82,494.32a2.55,2.55,0,1,1-2.55,2.55A2.56,2.56,0,0,1,1175.82,494.32Zm1.8,10.4v20.75H1174V504.72Z"/><path class="cls-4" d="M1188,489v36.45h-3.6V489Z"/><path class="cls-4" d="M1198.42,489v36.45h-3.6V489Z"/><path class="cls-4" d="M1223.62,520.17a12.61,12.61,0,0,1-2.55,3.36,10.12,10.12,0,0,1-6.9,2.55c-5,0-10.25-3.16-10.25-10.86,0-6.2,3.8-11,10-11a9.28,9.28,0,0,1,7.85,3.8,13.93,13.93,0,0,1,2,7.8h-16.15c.05,4.3,3,7.06,6.6,7.06a6.31,6.31,0,0,0,4.25-1.5,8.36,8.36,0,0,0,2.15-2.85Zm-3.55-7.35a6.21,6.21,0,0,0-6.1-5.4,6.31,6.31,0,0,0-6.1,5.4Z"/><path class="cls-4" d="M1245.17,489h3.6v36.45h-3.6v-2.9a8.76,8.76,0,0,1-7.1,3.51c-5.25,0-10.1-3.7-10.1-11,0-7.15,4.8-10.85,10.1-10.85a8.58,8.58,0,0,1,7.1,3.45Zm-13.5,26.05c0,4.46,2.5,7.81,6.8,7.81s6.9-3.66,6.9-7.76c0-5.35-3.7-7.7-6.9-7.7C1234.92,507.42,1231.67,510,1231.67,515.07Z"/><path class="cls-4" d="M1274,520.17a12.61,12.61,0,0,1-2.55,3.36,10.12,10.12,0,0,1-6.9,2.55c-5,0-10.25-3.16-10.25-10.86,0-6.2,3.8-11,10-11a9.28,9.28,0,0,1,7.85,3.8,13.93,13.93,0,0,1,1.95,7.8H1258c0,4.3,3,7.06,6.6,7.06a6.31,6.31,0,0,0,4.25-1.5,8.36,8.36,0,0,0,2.15-2.85Zm-3.55-7.35a6.21,6.21,0,0,0-6.1-5.4,6.31,6.31,0,0,0-6.1,5.4Z"/><path class="cls-4" d="M1279.62,504.72h3.6V507a5.77,5.77,0,0,1,4.7-2.75,7.6,7.6,0,0,1,3.2.85l-1.7,3.25a3.7,3.7,0,0,0-2.1-.7,3.48,3.48,0,0,0-2.9,1.3c-.6.8-1.2,2.2-1.2,5.6v11h-3.6Z"/><path class="cls-4" d="M1295.57,520.57l3.3,1.21-5,11.3-2.35-1Z"/><path class="cls-4" d="M836.23,549h3.6v36.46h-3.6v-2.9a8.75,8.75,0,0,1-7.1,3.5c-5.25,0-10.1-3.7-10.1-11s4.8-10.86,10.1-10.86a8.58,8.58,0,0,1,7.1,3.45Zm-13.5,26.06c0,4.45,2.5,7.8,6.8,7.8s6.9-3.65,6.9-7.76c0-5.35-3.7-7.7-6.9-7.7C826,567.42,822.73,570,822.73,575.08Z"/><path class="cls-4" d="M865,580.17a12.3,12.3,0,0,1-2.55,3.36,10.07,10.07,0,0,1-6.9,2.55c-5,0-10.25-3.15-10.25-10.86,0-6.2,3.8-11,10-11a9.28,9.28,0,0,1,7.85,3.8,14,14,0,0,1,1.95,7.81H849c.05,4.29,3,7,6.6,7a6.31,6.31,0,0,0,4.25-1.5,8.27,8.27,0,0,0,2.15-2.85Zm-3.55-7.34a6.21,6.21,0,0,0-6.1-5.41,6.31,6.31,0,0,0-6.1,5.41Z"/><path class="cls-4" d="M874.38,568v17.46h-3.6V568h-2.2v-3.3h2.2v-7.5h3.6v7.5H878V568Z"/><path class="cls-4" d="M911.43,580.17a12.3,12.3,0,0,1-2.55,3.36,10.07,10.07,0,0,1-6.9,2.55c-5,0-10.25-3.15-10.25-10.86,0-6.2,3.8-11,10-11a9.28,9.28,0,0,1,7.85,3.8,14,14,0,0,1,2,7.81H895.43c.05,4.29,3,7,6.6,7a6.31,6.31,0,0,0,4.25-1.5,8.27,8.27,0,0,0,2.15-2.85Zm-3.55-7.34a6.21,6.21,0,0,0-6.1-5.41,6.31,6.31,0,0,0-6.1,5.41Z"/><path class="cls-4" d="M917.08,564.72h3.6V567a5.77,5.77,0,0,1,4.7-2.75,7.6,7.6,0,0,1,3.2.85l-1.7,3.25a3.7,3.7,0,0,0-2.1-.7,3.48,3.48,0,0,0-2.9,1.3c-.6.8-1.2,2.2-1.2,5.61v11h-3.6Z"/><path class="cls-4" d="M952.08,569.52a3.18,3.18,0,0,0-2.9-2.1,2.29,2.29,0,0,0-2.5,2.35c0,1.5,1,2,3.35,3,3,1.25,4.4,2.2,5.2,3.2a4.94,4.94,0,0,1,1.1,3.36c0,4.34-3.15,6.8-7.15,6.8a7.42,7.42,0,0,1-7.25-5.3l3.1-1.3c.4,1.1,1.6,3.4,4.2,3.4a3.23,3.23,0,0,0,3.4-3.3c0-2-1.4-2.61-3.35-3.46-2.5-1.09-4.1-1.9-5-3a4.53,4.53,0,0,1-1-3.06c0-3.65,2.55-5.8,6.05-5.8A6,6,0,0,1,955,568Z"/><path class="cls-4" d="M964.83,568v17.46h-3.6V568H959v-3.3h2.2v-7.5h3.6v7.5h3.6V568Z"/><path class="cls-4" d="M971.83,564.72h3.6V567a5.77,5.77,0,0,1,4.7-2.75,7.6,7.6,0,0,1,3.2.85l-1.7,3.25a3.7,3.7,0,0,0-2.1-.7,3.48,3.48,0,0,0-2.9,1.3c-.6.8-1.2,2.2-1.2,5.61v11h-3.6Z"/><path class="cls-4" d="M1001.48,564.72h3.6v20.76h-3.6v-2.9a8.75,8.75,0,0,1-7.1,3.5c-5.25,0-10.1-3.7-10.1-11s4.8-10.86,10.1-10.86a8.58,8.58,0,0,1,7.1,3.45ZM988,575.08c0,4.45,2.5,7.8,6.8,7.8s6.9-3.65,6.9-7.76c0-5.35-3.7-7.7-6.9-7.7C991.23,567.42,988,570,988,575.08Z"/><path class="cls-4" d="M1015.58,568v17.46H1012V568h-2v-3.3h2v-9.05c0-1.9.15-4.3,2-5.85a6.46,6.46,0,0,1,4.15-1.35,7,7,0,0,1,2.55.45v3.5a6.53,6.53,0,0,0-2.35-.45,2.52,2.52,0,0,0-2.3,1.1,6.24,6.24,0,0,0-.45,3v8.65h5.1V568Z"/><path class="cls-4" d="M1027.48,585.48h-3.6V549h3.6v18.6a8.92,8.92,0,0,1,7.1-3.4c6.5,0,10.1,5.4,10.1,11s-3.65,10.86-10,10.86a8.81,8.81,0,0,1-7.25-3.5Zm13.5-10.26c0-5.1-3.45-7.8-6.8-7.8s-6.9,2.75-6.9,7.75c0,4.25,2.7,7.71,7,7.71S1041,579.38,1041,575.22Z"/><path class="cls-4" d="M1066.08,564.72h3.6v20.76h-3.6v-2.9a8.77,8.77,0,0,1-7.1,3.5c-5.26,0-10.1-3.7-10.1-11s4.79-10.86,10.1-10.86a8.58,8.58,0,0,1,7.1,3.45Zm-13.5,10.36c0,4.45,2.5,7.8,6.8,7.8s6.9-3.65,6.9-7.76c0-5.35-3.7-7.7-6.9-7.7C1055.83,567.42,1052.58,570,1052.58,575.08Z"/><path class="cls-4" d="M1076.47,564.72h3.6V567a5.77,5.77,0,0,1,4.7-2.75,7.6,7.6,0,0,1,3.2.85l-1.7,3.25a3.7,3.7,0,0,0-2.1-.7,3.48,3.48,0,0,0-2.9,1.3c-.6.8-1.2,2.2-1.2,5.61v11h-3.6Z"/><path class="cls-4" d="M1096,568v17.46h-3.6V568h-2.2v-3.3h2.2v-7.5h3.6v7.5h3.6V568Z"/><path class="cls-4" d="M1106.57,581a2.5,2.5,0,1,1-2.5,2.5A2.53,2.53,0,0,1,1106.57,581Zm-1.8-2.25V552.12h3.6v26.61Z"/></g></svg>