<svg xmlns="http://www.w3.org/2000/svg" width="4000" height="800" viewBox="0 0 4000 800"><defs><style>.cls-1{fill:none;}.cls-2{fill:#d3ad9b;}.cls-3{fill:#dcb7a8;}.cls-4{fill:#005574;}.cls-5{fill:#be7600;}.cls-6{fill:#00475f;}.cls-7{fill:#002c3b;}.cls-8{fill:#f59800;}.cls-9{fill:#292929;}.cls-10{fill:#434140;}.cls-11{fill:#39768d;}.cls-12{fill:#003d4b;}.cls-13{fill:#4a4137;}.cls-14{fill:#518da4;}.cls-15{fill:#b7b7b7;}.cls-16{fill:#8e8e8e;}.cls-17{fill:#a4a4a4;}.cls-18{fill:#f3d6c3;}</style></defs><title>håndjern_politi</title><g id="Layer_2" data-name="Layer 2"><rect class="cls-1" y="0.5" width="800" height="800"/><polygon class="cls-2" points="472.67 201.63 481.34 201.73 554.19 254.06 564.15 261.21 566.85 275.26 557.83 294.95 549.01 300.86 533.94 300.75 500.42 282.03 456.11 250.21 448.44 244.7 447.46 234.04 460.01 209.37 472.67 201.63"/><polygon class="cls-2" points="460.01 209.37 472.67 201.63 481.34 201.73 554.19 254.06 564.15 261.21 566.85 275.26 559.84 290.56 557.83 294.95 549.01 300.85 533.94 300.75 500.42 282.04 456.11 250.21 448.45 244.7 447.46 234.04 456.38 216.51 460.01 209.37"/><polygon class="cls-3" points="456.38 216.51 559.84 290.56 557.83 294.95 549.01 300.85 533.94 300.75 500.42 282.04 456.11 250.21 448.45 244.7 447.46 234.04 456.38 216.51"/><path class="cls-4" d="M333.85,534.94V798.17c0,1,0,1.9-.1,2.83H58.21c-.07-.93-.1-1.88-.1-2.83V534.94c0-19.88,15.08-36.13,33.5-36.13H300.35C318.78,498.81,333.85,515.06,333.85,534.94Z"/><polygon class="cls-5" points="270.93 608.75 273.38 590.35 259.62 577.89 277.88 574.54 285.47 557.6 294.3 573.93 312.75 575.91 299.95 589.36 303.77 607.53 287.03 599.5 270.93 608.75"/><polygon class="cls-6" points="137.46 511.74 78.24 542.46 58.11 743.5 52.35 801 0.06 801 28.77 519.83 43.76 500.43 61 498.81 82.69 498.8 105.23 498.81 123.22 498.81 137.46 511.74"/><rect class="cls-5" x="146.65" y="476.04" width="31.49" height="84.05" transform="translate(658.9 737.73) rotate(131.27)"/><polygon class="cls-6" points="488.13 262.27 349.19 521.66 333.5 594 285.75 496.8 296.35 493.36 435.29 233.96 488.13 262.27"/><rect class="cls-3" x="168.94" y="437.34" width="66.71" height="92.95"/><polygon class="cls-3" points="315.79 335.74 306.85 412.64 306.73 413.67 249.69 467.54 171.38 472.14 108.43 425.33 90.29 349.01 97.27 335.09 125.46 278.88 197.48 247.76 272.65 270.22 315.79 335.74"/><polygon class="cls-2" points="306.87 413.72 250.56 466.85 139.97 272.66 197.71 247.75 272.87 270.25 315.98 335.8 306.87 413.72"/><polyline class="cls-7" points="299.45 267.02 246.55 361.08 142.64 390.19 48.59 337.3"/><rect class="cls-4" x="41.93" y="295.46" width="264.37" height="24.45" transform="translate(-76.54 58.37) rotate(-15.65)"/><polygon class="cls-7" points="64.53 325.69 19.29 281.95 43.77 261.93 56.32 239.6 64.13 220.49 72.96 221.78 95.97 220.04 112.78 216.27 127.78 202.66 136.39 196.49 142.91 186.2 174.75 294.81 64.53 325.69"/><polygon class="cls-7" points="282.35 264.67 298.28 203.79 266.96 199.41 244.64 186.85 228.04 174.58 221.17 180.26 200.59 190.73 184.27 196.24 164.39 192.41 153.83 191.61 142.91 186.2 172.13 295.55 282.35 264.67"/><polygon class="cls-8" points="269.43 605.75 271.88 587.35 258.12 574.89 276.38 571.54 283.97 554.6 292.8 570.93 311.25 572.92 298.45 586.36 302.27 604.53 285.53 596.51 269.43 605.75"/><path class="cls-9" d="M234.26,429.05l-8.19-7.39-9.86-2.29-11.88,4.47-6.16,7-3.64,7.93a54,54,0,0,1-4.86,3.53c-.58.14-9.86-2.29-9.86-2.29l-5.5-1,6.31,11,7.66,3.6s7.34,1.34,8.49,1.06l12.1-2.95s7.37-2.58,8.06-2,10.94-2.67,10.94-2.67l5.9-4.58,2-2.83Z"/><path class="cls-9" d="M233.67,431.05l4.57-8.75,7-5.51,10-1.17,6.22,2.93,4.53,4.62a35.52,35.52,0,0,0,4.47.82c.46-.12,7-5.52,7-5.52l3.95-2.87L279,426.35,274,432s-5.26,3.83-6.2,4.05l-9.82,2.4s-6.17.87-6.55,1.6-8.89,2.17-8.89,2.17L237,441l-2.13-1.39Z"/><polygon class="cls-10" points="262.38 332.93 299.37 339.89 312.4 364.89 315.86 336.15 286.22 290.55 262.38 332.93"/><polygon class="cls-10" points="117.58 376.09 102.74 401.38 93.51 362.56 117.58 376.09"/><polygon class="cls-5" points="152.52 290.55 148.14 265.16 124.2 255.62 147.62 242.16 150.84 216.14 169.69 233.22 195.62 226.68 183.85 250.69 196.66 272.67 170.53 270.43 152.52 290.55"/><polygon class="cls-8" points="150.27 286.8 145.3 261.89 121.96 251.87 144.11 239.44 146.43 214.14 165.1 231.37 189.87 225.76 179.26 248.84 192.25 270.67 167.02 267.7 150.27 286.8"/><rect class="cls-8" x="149.65" y="472.29" width="31.49" height="84.05" transform="translate(661.06 729.25) rotate(131.27)"/><rect class="cls-5" x="232.91" y="476.91" width="31.53" height="78.96" transform="translate(426.55 -28.46) rotate(43.79)"/><rect class="cls-8" x="228.24" y="472.4" width="32.16" height="80.95" transform="translate(434.22 -22.55) rotate(45)"/><polygon class="cls-11" points="212.42 766.41 170.44 650.22 208.67 553.53 247.65 650.22 212.42 766.41"/><rect class="cls-11" x="186.07" y="540.23" width="43.88" height="43.88" transform="translate(422.47 2.44) rotate(41.27)"/><rect class="cls-7" x="88.74" y="564.02" width="66.71" height="87.7"/><rect class="cls-12" x="84.99" y="559.52" width="74.21" height="31.48"/><polygon class="cls-8" points="117.44 585.84 115.39 580.62 118.18 575.76 123.72 574.91 127.84 578.72 127.43 584.31 122.81 587.48 117.44 585.84"/><polygon class="cls-13" points="204.54 431.55 213.33 425.53 214.67 423.1 211.67 423.1 206.42 425.35 202.88 429.12 201.92 432.09 204.54 431.55"/><rect class="cls-14" x="189.18" y="594.75" width="6.75" height="54.72" transform="translate(147.33 1271.77) rotate(-158.82)"/><ellipse class="cls-3" cx="472.5" cy="234" rx="29" ry="45" transform="translate(63.35 566.58) rotate(-65.45)"/><polyline class="cls-15" points="621.43 334.33 598.66 367.56 558.49 370.48 531.16 340.89"/><path class="cls-16" d="M546.55,401.09c2.53-22.53,16.53-38.83,31.86-37.11s25.36,20.72,22.83,43.25-16.53,38.83-31.86,37.11S544,423.61,546.55,401.09Zm41.7,4.68c1.8-16-4.51-28-11.3-28.8s-15.61,9.55-17.41,25.58,4.51,28,11.3,28.8S586.45,421.8,588.25,405.77Z"/><path class="cls-16" d="M532,461.77c7.91-21.24,25.43-33.67,39.89-28.28s19.59,26.24,11.68,47.49-25.43,33.67-39.89,28.28S524.05,483,532,461.77Zm39.33,14.65c5.62-15.11,2.41-28.3-4-30.69s-17.46,5.49-23.08,20.6-2.41,28.3,4,30.69S565.66,491.53,571.29,476.42Z"/><path class="cls-16" d="M496.32,520.85c9-20.81,27.15-32.31,41.31-26.18s18.2,27.22,9.2,48-27.14,32.31-41.3,26.18S487.32,541.66,496.32,520.85Zm38.52,16.66c6.4-14.8,3.87-28.13-2.4-30.85s-17.72,4.58-24.12,19.38-3.88,28.13,2.39,30.85S528.44,552.31,534.84,537.51Z"/><rect class="cls-15" x="550.44" y="358.86" width="53.91" height="19.6" rx="7.59" transform="translate(930.69 -218.26) rotate(88.49)"/><rect class="cls-15" x="541.38" y="430.34" width="53.91" height="19.6" rx="7.59" transform="translate(1153.75 22.99) rotate(106.77)"/><rect class="cls-15" x="515.68" y="490.87" width="53.91" height="19.6" rx="7.59" transform="translate(1227.67 225.27) rotate(115.4)"/><path class="cls-16" d="M471.57,289.87l18.09-90.17,81.78-42.08,83.89,37.7,22.82,89.1-55.42,73.39-91.94,2.43Zm49.2-66.68-11.44,57,37.44,44.48,58.12-1.53,35-46.4L625.5,220.43l-53-23.84Z"/><polyline class="cls-15" points="523.09 622.79 519.06 582.72 485.22 560.88 447.04 573.73"/><rect class="cls-15" x="474.81" y="564.08" width="53.91" height="19.6" rx="7.59" transform="translate(1252.21 439.94) rotate(121.05)"/><path class="cls-16" d="M369,587l86.21-32L534,602.41l12,91.17-63.77,66.27-91.57-8.55-50.42-76.92Zm82.59,6.78L397.06,614l-18.15,55.24,31.87,48.63,57.89,5.4L509,681.42l-7.62-57.65Z"/><rect class="cls-17" x="374.88" y="578.36" width="80.82" height="5.34" transform="translate(-180.73 187.56) rotate(-21.01)"/><path class="cls-17" d="M559.12,430.22c-3.16-.28-5.81-3.52-7.45-9.16a64.19,64.19,0,0,1,2.47-37.95c2.38-5.44,5.47-8.32,8.68-8.11l-.19,3c-1.81-.11-4,2.25-5.75,6.32a61.5,61.5,0,0,0-2.33,35.91c1.24,4.27,3.05,6.9,4.87,7l-.19,3Z"/><polygon class="cls-2" points="497.31 154.06 505.25 150.95 592.43 158.85 604.35 159.94 612.41 168.25 612.03 184.61 606.35 191.77 592.58 197.23 554.59 197.15 501.57 192.34 492.39 191.5 487.25 184.8 488.86 163.85 497.31 154.06"/><polygon class="cls-2" points="488.85 163.85 497.31 154.06 505.24 150.95 592.43 158.85 604.35 159.93 612.41 168.25 612.11 180.97 612.03 184.61 606.34 191.76 592.58 197.23 554.59 197.15 501.56 192.34 492.39 191.5 487.25 184.8 488.39 169.91 488.85 163.85"/><polygon class="cls-3" points="488.39 169.91 612.11 180.97 612.03 184.61 606.34 191.76 592.58 197.23 554.59 197.15 501.56 192.34 492.39 191.5 487.25 184.8 488.39 169.91"/><polygon class="cls-18" points="571.65 184.88 573.78 165.12 588.51 163.02 598.54 166.05 603.69 169.43 602.71 178.56 602.29 182.43 593.57 186.45 586.49 188.07 571.65 184.88"/><polygon class="cls-2" points="477.09 166.71 487.8 165 599.13 177.52 614.35 179.24 623.5 186.02 620.55 198.12 612.15 203 593.56 206 544.55 203.03 476.84 195.42 465.12 194.1 459.5 188.74 464.71 173.32 477.09 166.71"/><polygon class="cls-2" points="464.71 173.32 477.09 166.7 487.8 165 599.13 177.52 614.35 179.24 623.5 186.02 621.21 195.43 620.55 198.12 612.14 203 593.56 206 544.55 203.04 476.84 195.42 465.12 194.1 459.5 188.74 463.2 177.78 464.71 173.32"/><polygon class="cls-3" points="463.2 177.78 621.21 195.43 620.55 198.12 612.14 203 593.56 206 544.55 203.04 476.84 195.42 465.12 194.1 459.5 188.74 463.2 177.78"/><polygon class="cls-18" points="578.92 197.5 584.16 182.91 598.59 181.42 607.69 183.7 612.08 186.23 609.65 192.97 608.63 195.83 599.64 198.76 592.6 199.93 578.92 197.5"/><polygon class="cls-2" points="453.59 182.08 465.21 180 586.05 195.27 602.57 197.36 612.5 205.63 609.3 220.39 600.18 226.34 580 230 526.81 226.38 453.32 217.09 440.6 215.49 434.5 208.95 440.16 190.14 453.59 182.08"/><polygon class="cls-2" points="440.16 190.14 453.59 182.08 465.21 180 586.05 195.27 602.57 197.36 612.5 205.63 610.01 217.1 609.3 220.4 600.18 226.34 580 230 526.81 226.38 453.32 217.09 440.6 215.48 434.5 208.94 438.52 195.59 440.16 190.14"/><polygon class="cls-3" points="438.52 195.59 610.01 217.1 609.3 220.4 600.18 226.34 580 230 526.81 226.38 453.32 217.09 440.6 215.48 434.5 208.94 438.52 195.59"/><polygon class="cls-18" points="562.91 219.34 568.65 201.56 584.87 199.88 595.14 202.76 600.1 205.89 597.45 214.1 596.32 217.59 586.24 221.08 578.33 222.44 562.91 219.34"/><polygon class="cls-2" points="446.28 198.79 454.63 197.01 539.34 219.12 550.91 222.14 557.5 231.66 554.44 247.74 547.66 253.87 533.18 257 495.73 250.68 444.21 237.24 435.29 234.91 431.32 227.46 436.34 207.05 446.28 198.79"/><polygon class="cls-2" points="436.34 207.05 446.28 198.78 454.63 197.02 539.34 219.12 550.91 222.14 557.5 231.67 555.12 244.16 554.44 247.74 547.66 253.86 533.18 257 495.73 250.69 444.2 237.24 435.29 234.91 431.32 227.46 434.89 212.96 436.34 207.05"/><polygon class="cls-3" points="434.89 212.96 555.12 244.16 554.44 247.74 547.66 253.86 533.18 257 495.73 250.69 444.2 237.24 435.29 234.91 431.32 227.46 434.89 212.96"/><polygon class="cls-18" points="514.57 241.38 519.91 222.24 534.78 222.58 544.18 227.21 548.71 231.4 546.24 240.24 545.19 243.99 535.93 246.53 528.68 246.96 514.57 241.38"/><rect class="cls-1" x="3201" y="-0.5" width="800" height="800"/><polygon class="cls-2" points="3673.67 200.63 3682.34 200.73 3755.19 253.06 3765.15 260.21 3767.85 274.26 3758.83 293.95 3750.01 299.86 3734.94 299.75 3701.42 281.03 3657.11 249.21 3649.45 243.7 3648.47 233.04 3661.01 208.37 3673.67 200.63"/><polygon class="cls-2" points="3661.01 208.37 3673.67 200.63 3682.34 200.73 3755.19 253.06 3765.15 260.21 3767.85 274.26 3760.84 289.56 3758.83 293.95 3750.01 299.85 3734.94 299.75 3701.42 281.04 3657.11 249.21 3649.45 243.7 3648.47 233.04 3657.38 215.51 3661.01 208.37"/><polygon class="cls-3" points="3657.38 215.51 3760.84 289.56 3758.83 293.95 3750.01 299.85 3734.94 299.75 3701.42 281.04 3657.11 249.21 3649.45 243.7 3648.47 233.04 3657.38 215.51"/><path class="cls-4" d="M3534.85,533.94V797.17c0,1,0,1.9-.1,2.83H3259.21c-.07-.93-.1-1.88-.1-2.83V533.94c0-19.88,15.08-36.13,33.5-36.13h208.74C3519.78,497.81,3534.85,514.06,3534.85,533.94Z"/><polygon class="cls-5" points="3471.93 607.75 3474.38 589.35 3460.62 576.89 3478.88 573.54 3486.47 556.6 3495.3 572.93 3513.75 574.91 3500.95 588.36 3504.77 606.53 3488.03 598.5 3471.93 607.75"/><polygon class="cls-6" points="3338.46 510.74 3279.24 541.46 3259.11 742.5 3253.35 800 3201.06 800 3229.77 518.83 3244.76 499.43 3262 497.81 3283.69 497.8 3306.23 497.81 3324.22 497.81 3338.46 510.74"/><rect class="cls-5" x="3347.65" y="475.04" width="31.49" height="84.05" transform="translate(5970.55 -1669.84) rotate(131.27)"/><polygon class="cls-6" points="3689.13 261.27 3550.19 520.66 3534.5 593 3486.74 495.8 3497.35 492.36 3636.29 232.96 3689.13 261.27"/><rect class="cls-3" x="3369.94" y="436.34" width="66.71" height="92.95"/><polygon class="cls-3" points="3516.79 334.74 3507.85 411.64 3507.73 412.67 3450.7 466.54 3372.38 471.14 3309.43 424.33 3291.29 348.01 3298.27 334.09 3326.46 277.88 3398.48 246.76 3473.65 269.22 3516.79 334.74"/><polygon class="cls-2" points="3507.87 412.72 3451.55 465.85 3340.97 271.66 3398.71 246.75 3473.87 269.25 3516.97 334.8 3507.87 412.72"/><polyline class="cls-7" points="3500.45 266.02 3447.55 360.08 3343.64 389.19 3249.59 336.3"/><rect class="cls-4" x="3242.93" y="294.46" width="264.37" height="24.45" transform="translate(42.38 921.79) rotate(-15.65)"/><polygon class="cls-7" points="3265.53 324.69 3220.29 280.95 3244.77 260.93 3257.32 238.6 3265.13 219.49 3273.96 220.78 3296.97 219.04 3313.78 215.27 3328.78 201.66 3337.39 195.49 3343.91 185.2 3375.75 293.81 3265.53 324.69"/><polygon class="cls-7" points="3483.35 263.67 3499.28 202.79 3467.96 198.41 3445.64 185.85 3429.04 173.58 3422.17 179.26 3401.59 189.73 3385.27 195.24 3365.39 191.41 3354.83 190.61 3343.91 185.2 3373.13 294.55 3483.35 263.67"/><polygon class="cls-8" points="3470.43 604.75 3472.88 586.35 3459.12 573.89 3477.38 570.54 3484.97 553.6 3493.8 569.93 3512.26 571.92 3499.45 585.36 3503.27 603.53 3486.53 595.51 3470.43 604.75"/><path class="cls-9" d="M3435.26,428.05l-8.19-7.39-9.86-2.29-11.88,4.47-6.16,7-3.64,7.93a54,54,0,0,1-4.86,3.53c-.58.14-9.86-2.29-9.86-2.29l-5.5-1,6.31,11,7.66,3.6s7.34,1.34,8.49,1.06l12.1-2.95s7.37-2.58,8.06-2,10.94-2.67,10.94-2.67l5.9-4.58,2-2.83Z"/><path class="cls-9" d="M3434.67,430.05l4.57-8.75,7-5.51,10-1.17,6.22,2.93,4.53,4.62a35.52,35.52,0,0,0,4.47.82c.46-.12,7-5.52,7-5.52l3.95-2.87L3480,425.35l-5,5.67s-5.26,3.83-6.2,4.05l-9.82,2.4s-6.17.87-6.55,1.6-8.89,2.17-8.89,2.17L3438,440l-2.13-1.39Z"/><polygon class="cls-10" points="3463.38 331.93 3500.37 338.89 3513.4 363.89 3516.86 335.15 3487.22 289.55 3463.38 331.93"/><polygon class="cls-10" points="3318.57 375.09 3303.74 400.38 3294.51 361.56 3318.57 375.09"/><polygon class="cls-5" points="3353.52 289.55 3349.14 264.16 3325.2 254.62 3348.62 241.16 3351.84 215.14 3370.69 232.22 3396.62 225.68 3384.85 249.69 3397.66 271.67 3371.53 269.43 3353.52 289.55"/><polygon class="cls-8" points="3351.27 285.8 3346.3 260.89 3322.96 250.87 3345.11 238.44 3347.43 213.14 3366.1 230.37 3390.87 224.76 3380.26 247.84 3393.25 269.67 3368.02 266.7 3351.27 285.8"/><rect class="cls-8" x="3350.65" y="471.29" width="31.49" height="84.05" transform="translate(5972.71 -1678.31) rotate(131.27)"/><rect class="cls-5" x="3433.91" y="475.91" width="31.53" height="78.96" transform="translate(1316.25 -2244.02) rotate(43.79)"/><rect class="cls-8" x="3429.24" y="471.4" width="32.16" height="80.95" transform="translate(1371.07 -2286.29) rotate(45)"/><polygon class="cls-11" points="3413.42 765.41 3371.44 649.22 3409.67 552.53 3448.65 649.22 3413.42 765.41"/><rect class="cls-11" x="3387.07" y="539.23" width="43.88" height="43.88" transform="translate(1216.91 -2109.21) rotate(41.27)"/><rect class="cls-7" x="3289.74" y="563.02" width="66.71" height="87.7"/><rect class="cls-12" x="3285.99" y="558.52" width="74.21" height="31.48"/><polygon class="cls-8" points="3318.44 584.84 3316.39 579.62 3319.18 574.76 3324.72 573.91 3328.84 577.72 3328.43 583.31 3323.81 586.48 3318.44 584.84"/><polygon class="cls-13" points="3405.54 430.55 3414.33 424.53 3415.67 422.1 3412.67 422.1 3407.42 424.35 3403.88 428.12 3402.92 431.09 3405.54 430.55"/><rect class="cls-14" x="3390.18" y="593.75" width="6.75" height="54.72" transform="translate(6333.45 2426.38) rotate(-158.82)"/><ellipse class="cls-3" cx="3673.5" cy="233" rx="29" ry="45" transform="translate(1935.38 3477.66) rotate(-65.45)"/><polyline class="cls-15" points="3822.43 333.33 3799.66 366.56 3759.49 369.48 3732.16 339.89"/><path class="cls-16" d="M3747.55,400.09c2.53-22.53,16.53-38.83,31.86-37.11s25.36,20.72,22.83,43.25-16.53,38.83-31.86,37.11S3745,422.61,3747.55,400.09Zm41.7,4.68c1.8-16-4.51-28-11.3-28.8s-15.61,9.55-17.41,25.58,4.51,28,11.3,28.8S3787.45,420.8,3789.25,404.77Z"/><path class="cls-16" d="M3733,460.77c7.91-21.24,25.43-33.67,39.89-28.28s19.59,26.24,11.68,47.49-25.43,33.67-39.89,28.28S3725.05,482,3733,460.77Zm39.33,14.65c5.62-15.11,2.41-28.3-4-30.69s-17.46,5.49-23.08,20.6-2.41,28.3,4,30.69S3766.66,490.53,3772.29,475.42Z"/><path class="cls-16" d="M3697.32,519.85c9-20.81,27.15-32.31,41.31-26.18s18.2,27.22,9.2,48-27.14,32.31-41.3,26.18S3688.32,540.66,3697.32,519.85Zm38.52,16.66c6.4-14.8,3.87-28.13-2.4-30.85s-17.72,4.58-24.12,19.38-3.88,28.13,2.39,30.85S3729.44,551.31,3735.84,536.51Z"/><rect class="cls-15" x="3751.44" y="357.86" width="53.91" height="19.6" rx="7.59" transform="translate(4046.25 -3419.12) rotate(88.49)"/><rect class="cls-15" x="3742.38" y="429.34" width="53.91" height="19.6" rx="7.59" transform="translate(5277.48 -3043.13) rotate(106.77)"/><rect class="cls-15" x="3716.68" y="489.87" width="53.91" height="19.6" rx="7.59" transform="translate(5800.91 -2667.67) rotate(115.4)"/><path class="cls-16" d="M3672.57,288.87l18.09-90.17,81.78-42.08,83.89,37.7,22.82,89.1-55.42,73.39-91.94,2.43Zm49.2-66.68-11.44,57,37.44,44.48,58.12-1.53,35-46.4-14.43-56.32-53-23.84Z"/><polyline class="cls-15" points="3724.09 621.79 3720.06 581.72 3686.22 559.88 3648.04 572.73"/><rect class="cls-15" x="3675.81" y="563.08" width="53.91" height="19.6" rx="7.59" transform="translate(6103.16 -2304.06) rotate(121.05)"/><path class="cls-16" d="M3570,586l86.21-32,78.8,47.43,12,91.17-63.77,66.27-91.57-8.55-50.42-76.92Zm82.59,6.78L3598.06,613l-18.15,55.24,31.87,48.63,57.89,5.4L3710,680.42l-7.62-57.65Z"/><rect class="cls-17" x="3575.88" y="577.36" width="80.82" height="5.34" transform="translate(32.51 1335.36) rotate(-21.01)"/><path class="cls-17" d="M3760.12,429.22c-3.16-.28-5.81-3.52-7.45-9.16a64.19,64.19,0,0,1,2.47-37.95c2.38-5.44,5.47-8.32,8.68-8.11l-.19,3c-1.81-.11-4,2.25-5.75,6.32a61.5,61.5,0,0,0-2.33,35.91c1.24,4.27,3,6.9,4.87,7l-.19,3Z"/><polygon class="cls-2" points="3698.3 153.06 3706.24 149.95 3793.43 157.85 3805.35 158.94 3813.41 167.25 3813.03 183.61 3807.34 190.77 3793.58 196.23 3755.59 196.15 3702.57 191.34 3693.39 190.5 3688.25 183.8 3689.86 162.85 3698.3 153.06"/><polygon class="cls-2" points="3689.85 162.85 3698.31 153.06 3706.24 149.95 3793.43 157.85 3805.35 158.93 3813.41 167.25 3813.11 179.97 3813.03 183.61 3807.34 190.76 3793.58 196.23 3755.59 196.15 3702.56 191.34 3693.39 190.5 3688.25 183.8 3689.39 168.91 3689.85 162.85"/><polygon class="cls-3" points="3689.39 168.91 3813.11 179.97 3813.03 183.61 3807.34 190.76 3793.58 196.23 3755.59 196.15 3702.56 191.34 3693.39 190.5 3688.25 183.8 3689.39 168.91"/><polygon class="cls-18" points="3772.65 183.88 3774.78 164.12 3789.51 162.02 3799.54 165.05 3804.69 168.43 3803.71 177.56 3803.29 181.43 3794.57 185.45 3787.49 187.07 3772.65 183.88"/><polygon class="cls-2" points="3678.09 165.71 3688.8 164 3800.13 176.52 3815.35 178.24 3824.5 185.02 3821.55 197.12 3813.15 202 3794.56 205 3745.55 202.03 3677.84 194.42 3666.12 193.1 3660.5 187.74 3665.71 172.32 3678.09 165.71"/><polygon class="cls-2" points="3665.71 172.32 3678.09 165.7 3688.8 164 3800.13 176.52 3815.35 178.24 3824.5 185.02 3822.21 194.43 3821.55 197.12 3813.14 202 3794.56 205 3745.55 202.04 3677.84 194.42 3666.12 193.1 3660.5 187.74 3664.2 176.78 3665.71 172.32"/><polygon class="cls-3" points="3664.2 176.78 3822.21 194.43 3821.55 197.12 3813.14 202 3794.56 205 3745.55 202.04 3677.84 194.42 3666.12 193.1 3660.5 187.74 3664.2 176.78"/><polygon class="cls-18" points="3779.92 196.5 3785.16 181.91 3799.59 180.42 3808.69 182.7 3813.08 185.23 3810.66 191.97 3809.63 194.83 3800.64 197.76 3793.6 198.93 3779.92 196.5"/><polygon class="cls-2" points="3654.59 181.08 3666.22 179 3787.05 194.27 3803.57 196.36 3813.5 204.63 3810.3 219.39 3801.18 225.34 3781 229 3727.81 225.38 3654.32 216.09 3641.6 214.49 3635.5 207.95 3641.16 189.14 3654.59 181.08"/><polygon class="cls-2" points="3641.16 189.14 3654.59 181.08 3666.21 179 3787.05 194.27 3803.57 196.36 3813.5 204.63 3811.01 216.1 3810.3 219.4 3801.18 225.34 3781 229 3727.81 225.38 3654.32 216.09 3641.6 214.48 3635.5 207.94 3639.52 194.59 3641.16 189.14"/><polygon class="cls-3" points="3639.52 194.59 3811.01 216.1 3810.3 219.4 3801.18 225.34 3781 229 3727.81 225.38 3654.32 216.09 3641.6 214.48 3635.5 207.94 3639.52 194.59"/><polygon class="cls-18" points="3763.91 218.34 3769.66 200.56 3785.87 198.88 3796.14 201.76 3801.1 204.89 3798.45 213.1 3797.32 216.59 3787.24 220.08 3779.33 221.44 3763.91 218.34"/><polygon class="cls-2" points="3647.28 197.79 3655.63 196.01 3740.34 218.12 3751.91 221.14 3758.5 230.66 3755.44 246.74 3748.66 252.87 3734.18 256 3696.73 249.68 3645.21 236.24 3636.29 233.91 3632.32 226.46 3637.34 206.05 3647.28 197.79"/><polygon class="cls-2" points="3637.34 206.05 3647.28 197.78 3655.63 196.02 3740.34 218.12 3751.91 221.14 3758.5 230.67 3756.12 243.16 3755.44 246.74 3748.66 252.86 3734.18 256 3696.73 249.69 3645.2 236.24 3636.29 233.91 3632.32 226.46 3635.89 211.96 3637.34 206.05"/><polygon class="cls-3" points="3635.89 211.96 3756.12 243.16 3755.44 246.74 3748.66 252.86 3734.18 256 3696.73 249.69 3645.2 236.24 3636.29 233.91 3632.32 226.46 3635.89 211.96"/><polygon class="cls-18" points="3715.57 240.38 3720.91 221.24 3735.78 221.58 3745.18 226.21 3749.71 230.4 3747.24 239.24 3746.19 242.99 3736.93 245.53 3729.68 245.96 3715.57 240.38"/><rect class="cls-1" x="1601" y="0.5" width="800" height="800"/><polygon class="cls-2" points="2073.67 201.63 2082.34 201.73 2155.19 254.06 2165.15 261.21 2167.85 275.26 2158.83 294.95 2150.01 300.86 2134.94 300.75 2101.42 282.03 2057.11 250.21 2049.45 244.7 2048.47 234.04 2061.01 209.37 2073.67 201.63"/><polygon class="cls-2" points="2061.01 209.37 2073.67 201.63 2082.34 201.73 2155.19 254.06 2165.15 261.21 2167.85 275.26 2160.84 290.56 2158.83 294.95 2150.01 300.85 2134.94 300.75 2101.42 282.04 2057.11 250.21 2049.45 244.7 2048.47 234.04 2057.38 216.51 2061.01 209.37"/><polygon class="cls-3" points="2057.38 216.51 2160.84 290.56 2158.83 294.95 2150.01 300.85 2134.94 300.75 2101.42 282.04 2057.11 250.21 2049.45 244.7 2048.47 234.04 2057.38 216.51"/><path class="cls-4" d="M1934.85,534.94V798.17c0,1,0,1.9-.1,2.83H1659.21c-.07-.93-.1-1.88-.1-2.83V534.94c0-19.88,15.08-36.13,33.5-36.13h208.74C1919.78,498.81,1934.85,515.06,1934.85,534.94Z"/><polygon class="cls-5" points="1871.93 608.75 1874.38 590.35 1860.62 577.89 1878.88 574.54 1886.47 557.6 1895.3 573.93 1913.75 575.91 1900.95 589.36 1904.77 607.53 1888.03 599.5 1871.93 608.75"/><polygon class="cls-6" points="1738.46 511.74 1679.24 542.46 1659.11 743.5 1653.35 801 1601.06 801 1629.77 519.83 1644.76 500.43 1662 498.81 1683.69 498.8 1706.23 498.81 1724.22 498.81 1738.46 511.74"/><rect class="cls-5" x="1747.65" y="476.04" width="31.49" height="84.05" transform="translate(3315.93 -465.6) rotate(131.27)"/><polygon class="cls-6" points="2089.13 262.27 1950.19 521.66 1934.5 594 1886.74 496.8 1897.35 493.36 2036.29 233.96 2089.13 262.27"/><rect class="cls-3" x="1769.94" y="437.34" width="66.71" height="92.95"/><polygon class="cls-3" points="1916.79 335.74 1907.85 412.64 1907.73 413.67 1850.69 467.54 1772.38 472.14 1709.43 425.33 1691.29 349.01 1698.27 335.09 1726.46 278.88 1798.48 247.76 1873.65 270.22 1916.79 335.74"/><polygon class="cls-2" points="1907.87 413.72 1851.56 466.85 1740.96 272.66 1798.71 247.75 1873.87 270.25 1916.97 335.8 1907.87 413.72"/><polyline class="cls-7" points="1900.45 267.02 1847.55 361.08 1743.64 390.19 1649.59 337.3"/><rect class="cls-4" x="1642.93" y="295.46" width="264.37" height="24.45" transform="translate(-17.2 490.24) rotate(-15.65)"/><polygon class="cls-7" points="1665.53 325.69 1620.29 281.95 1644.77 261.93 1657.32 239.6 1665.13 220.49 1673.96 221.78 1696.97 220.04 1713.78 216.27 1728.78 202.66 1737.39 196.49 1743.91 186.2 1775.75 294.81 1665.53 325.69"/><polygon class="cls-7" points="1883.35 264.67 1899.28 203.79 1867.96 199.41 1845.64 186.85 1829.04 174.58 1822.17 180.26 1801.59 190.73 1785.27 196.24 1765.39 192.41 1754.83 191.61 1743.91 186.2 1773.13 295.55 1883.35 264.67"/><polygon class="cls-8" points="1870.43 605.75 1872.88 587.35 1859.12 574.89 1877.38 571.54 1884.97 554.6 1893.8 570.93 1912.26 572.92 1899.45 586.36 1903.27 604.53 1886.53 596.51 1870.43 605.75"/><path class="cls-9" d="M1835.26,429.05l-8.19-7.39-9.86-2.29-11.88,4.47-6.16,7-3.64,7.93a54,54,0,0,1-4.86,3.53c-.58.14-9.86-2.29-9.86-2.29l-5.5-1,6.31,11,7.66,3.6s7.34,1.34,8.49,1.06l12.1-2.95s7.37-2.58,8.06-2,10.94-2.67,10.94-2.67l5.9-4.58,2-2.83Z"/><path class="cls-9" d="M1834.67,431.05l4.57-8.75,7-5.51,10-1.17,6.22,2.93,4.53,4.62a35.52,35.52,0,0,0,4.47.82c.46-.12,7-5.52,7-5.52l3.95-2.87L1880,426.35l-5,5.67s-5.26,3.83-6.2,4.05l-9.82,2.4s-6.17.87-6.55,1.6-8.89,2.17-8.89,2.17L1838,441l-2.13-1.39Z"/><polygon class="cls-10" points="1863.38 332.93 1900.37 339.89 1913.4 364.89 1916.86 336.15 1887.22 290.55 1863.38 332.93"/><polygon class="cls-10" points="1718.58 376.09 1703.74 401.38 1694.51 362.56 1718.58 376.09"/><polygon class="cls-5" points="1753.52 290.55 1749.14 265.16 1725.2 255.62 1748.62 242.16 1751.84 216.14 1770.69 233.22 1796.62 226.68 1784.85 250.69 1797.66 272.67 1771.53 270.43 1753.52 290.55"/><polygon class="cls-8" points="1751.27 286.8 1746.3 261.89 1722.96 251.87 1745.11 239.44 1747.43 214.14 1766.1 231.37 1790.87 225.76 1780.26 248.84 1793.25 270.67 1768.02 267.7 1751.27 286.8"/><rect class="cls-8" x="1750.65" y="472.29" width="31.49" height="84.05" transform="translate(3318.09 -474.07) rotate(131.27)"/><rect class="cls-5" x="1833.91" y="476.91" width="31.53" height="78.96" transform="translate(871.88 -1136.45) rotate(43.79)"/><rect class="cls-8" x="1829.24" y="472.4" width="32.16" height="80.95" transform="translate(903.14 -1154.62) rotate(45)"/><polygon class="cls-11" points="1813.42 766.41 1771.44 650.22 1809.67 553.53 1848.65 650.22 1813.42 766.41"/><rect class="cls-11" x="1787.07" y="540.23" width="43.88" height="43.88" transform="translate(820.14 -1053.59) rotate(41.27)"/><rect class="cls-7" x="1689.74" y="564.02" width="66.71" height="87.7"/><rect class="cls-12" x="1685.99" y="559.52" width="74.21" height="31.48"/><polygon class="cls-8" points="1718.44 585.84 1716.38 580.62 1719.18 575.76 1724.72 574.91 1728.84 578.72 1728.43 584.31 1723.81 587.48 1718.44 585.84"/><polygon class="cls-13" points="1805.54 431.55 1814.33 425.53 1815.67 423.1 1812.67 423.1 1807.42 425.35 1803.88 429.12 1802.92 432.09 1805.54 431.55"/><rect class="cls-14" x="1790.18" y="594.75" width="6.75" height="54.72" transform="translate(3241.18 1850.22) rotate(-158.82)"/><ellipse class="cls-3" cx="2073.5" cy="234" rx="29" ry="45" transform="translate(999.2 2022.87) rotate(-65.45)"/><polyline class="cls-15" points="2222.43 334.33 2199.66 367.56 2159.49 370.48 2132.16 340.89"/><path class="cls-16" d="M2187.51,446.34c-15.33,1.72-29.32-14.58-31.86-37.11s7.5-41.52,22.83-43.25,29.33,14.58,31.86,37.11S2202.85,444.61,2187.51,446.34Zm-1.46-13c6.79-.76,13.11-12.78,11.31-28.8s-10.63-26.34-17.42-25.58-13.1,12.78-11.3,28.8S2179.26,434.11,2186.05,433.35Z"/><path class="cls-16" d="M2213.25,511.26c-14.46,5.39-32-7-39.89-28.28s-2.78-42.11,11.68-47.49,32,7,39.89,28.28S2227.71,505.88,2213.25,511.26ZM2208.69,499c6.41-2.39,9.62-15.58,4-30.69s-16.69-23-23.09-20.6-9.62,15.58-4,30.69S2202.29,501.4,2208.69,499Z"/><path class="cls-16" d="M2241.37,570.88c-14.16,6.13-32.31-5.37-41.31-26.18s-5-41.9,9.2-48,32.31,5.37,41.31,26.18S2255.53,564.75,2241.37,570.88Zm-5.19-12c6.27-2.72,8.8-16,2.39-30.85s-17.85-22.09-24.12-19.38-8.8,16.05-2.4,30.85S2229.91,561.6,2236.18,558.89Z"/><rect class="cls-15" x="2151.44" y="358.86" width="53.91" height="19.6" rx="7.59" transform="translate(2489.46 -1818.7) rotate(88.49)"/><rect class="cls-15" x="2161.61" y="432.34" width="53.91" height="19.6" rx="7.59" transform="translate(1980.35 -1780.91) rotate(73.23)"/><rect class="cls-15" x="2184.31" y="492.87" width="53.91" height="19.6" rx="7.59" transform="translate(1716.76 -1710.43) rotate(64.6)"/><path class="cls-16" d="M2072.57,289.87l18.09-90.17,81.78-42.08,83.89,37.7,22.82,89.1-55.42,73.39-91.94,2.43Zm49.2-66.68-11.44,57,37.44,44.48,58.12-1.53,35-46.4-14.43-56.32-53-23.84Z"/><polyline class="cls-15" points="2217.73 620.27 2224.05 580.49 2259.09 560.62 2296.46 575.63"/><rect class="cls-15" x="2214.87" y="562.85" width="53.91" height="19.6" rx="7.59" transform="translate(1704.21 -1677.83) rotate(62.24)"/><path class="cls-16" d="M2397.31,682.24l-54.74,73.91-91.91,3.29-59.87-69.81L2208,599.29l81.38-42.84,84.24,36.91Zm-157.95-59.75-10.91,57.11,37.86,44.14,58.1-2.09L2359,674.93l-15-56.19-53.26-23.33Z"/><rect class="cls-17" x="2169.34" y="644.07" width="80.82" height="5.34" transform="translate(3273.54 -1395.22) rotate(101.2)"/><path class="cls-17" d="M2175.4,436.8c-3.15.43-6.44-2.15-9.28-7.29a64.24,64.24,0,0,1-5.93-37.57c1.13-5.83,3.51-9.31,6.69-9.82l.46,3c-1.79.28-3.36,3.06-4.21,7.42a61.35,61.35,0,0,0,5.61,35.55c2.16,3.89,4.49,6.06,6.3,5.76l.47,3Z"/><polygon class="cls-2" points="2098.3 154.06 2106.24 150.95 2193.43 158.85 2205.35 159.94 2213.41 168.25 2213.03 184.61 2207.34 191.77 2193.58 197.23 2155.59 197.15 2102.57 192.34 2093.39 191.5 2088.25 184.8 2089.86 163.85 2098.3 154.06"/><polygon class="cls-2" points="2089.85 163.85 2098.31 154.06 2106.24 150.95 2193.43 158.85 2205.35 159.93 2213.41 168.25 2213.11 180.97 2213.03 184.61 2207.34 191.76 2193.58 197.23 2155.59 197.15 2102.56 192.34 2093.39 191.5 2088.25 184.8 2089.39 169.91 2089.85 163.85"/><polygon class="cls-3" points="2089.39 169.91 2213.11 180.97 2213.03 184.61 2207.34 191.76 2193.58 197.23 2155.59 197.15 2102.56 192.34 2093.39 191.5 2088.25 184.8 2089.39 169.91"/><polygon class="cls-18" points="2172.65 184.88 2174.78 165.12 2189.51 163.02 2199.54 166.05 2204.69 169.43 2203.71 178.56 2203.29 182.43 2194.57 186.45 2187.49 188.07 2172.65 184.88"/><polygon class="cls-2" points="2078.09 166.71 2088.8 165 2200.13 177.52 2215.35 179.24 2224.5 186.02 2221.55 198.12 2213.15 203 2194.56 206 2145.55 203.03 2077.84 195.42 2066.12 194.1 2060.5 188.74 2065.71 173.32 2078.09 166.71"/><polygon class="cls-2" points="2065.71 173.32 2078.09 166.7 2088.8 165 2200.13 177.52 2215.35 179.24 2224.5 186.02 2222.21 195.43 2221.55 198.12 2213.14 203 2194.56 206 2145.55 203.04 2077.84 195.42 2066.12 194.1 2060.5 188.74 2064.2 177.78 2065.71 173.32"/><polygon class="cls-3" points="2064.2 177.78 2222.21 195.43 2221.55 198.12 2213.14 203 2194.56 206 2145.55 203.04 2077.84 195.42 2066.12 194.1 2060.5 188.74 2064.2 177.78"/><polygon class="cls-18" points="2179.92 197.5 2185.16 182.91 2199.59 181.42 2208.69 183.7 2213.08 186.23 2210.66 192.97 2209.63 195.83 2200.64 198.76 2193.6 199.93 2179.92 197.5"/><polygon class="cls-2" points="2054.59 182.08 2066.22 180 2187.05 195.27 2203.57 197.36 2213.5 205.63 2210.3 220.39 2201.18 226.34 2181 230 2127.81 226.38 2054.32 217.09 2041.6 215.49 2035.5 208.95 2041.16 190.14 2054.59 182.08"/><polygon class="cls-2" points="2041.16 190.14 2054.59 182.08 2066.21 180 2187.05 195.27 2203.57 197.36 2213.5 205.63 2211.01 217.1 2210.3 220.4 2201.18 226.34 2181 230 2127.81 226.38 2054.32 217.09 2041.6 215.48 2035.5 208.94 2039.52 195.59 2041.16 190.14"/><polygon class="cls-3" points="2039.52 195.59 2211.01 217.1 2210.3 220.4 2201.18 226.34 2181 230 2127.81 226.38 2054.32 217.09 2041.6 215.48 2035.5 208.94 2039.52 195.59"/><polygon class="cls-18" points="2163.91 219.34 2169.66 201.56 2185.87 199.88 2196.14 202.76 2201.1 205.89 2198.45 214.1 2197.32 217.59 2187.24 221.08 2179.33 222.44 2163.91 219.34"/><polygon class="cls-2" points="2047.28 198.79 2055.63 197.01 2140.34 219.12 2151.91 222.14 2158.5 231.66 2155.44 247.74 2148.66 253.87 2134.18 257 2096.73 250.68 2045.21 237.24 2036.29 234.91 2032.32 227.46 2037.34 207.05 2047.28 198.79"/><polygon class="cls-2" points="2037.34 207.05 2047.28 198.78 2055.63 197.02 2140.34 219.12 2151.91 222.14 2158.5 231.67 2156.12 244.16 2155.44 247.74 2148.66 253.86 2134.18 257 2096.73 250.69 2045.2 237.24 2036.29 234.91 2032.32 227.46 2035.89 212.96 2037.34 207.05"/><polygon class="cls-3" points="2035.89 212.96 2156.12 244.16 2155.44 247.74 2148.66 253.86 2134.18 257 2096.73 250.69 2045.2 237.24 2036.29 234.91 2032.32 227.46 2035.89 212.96"/><polygon class="cls-18" points="2115.57 241.38 2120.91 222.24 2135.78 222.58 2145.18 227.21 2149.71 231.4 2147.24 240.24 2146.19 243.99 2136.93 246.53 2129.68 246.96 2115.57 241.38"/><rect class="cls-1" x="801" y="0.5" width="800" height="800"/><polygon class="cls-2" points="1273.67 201.63 1282.34 201.73 1355.19 254.06 1365.15 261.21 1367.85 275.26 1358.83 294.95 1350.01 300.86 1334.94 300.75 1301.42 282.03 1257.11 250.21 1249.44 244.7 1248.46 234.04 1261.01 209.37 1273.67 201.63"/><polygon class="cls-2" points="1261.01 209.37 1273.67 201.63 1282.34 201.73 1355.19 254.06 1365.15 261.21 1367.85 275.26 1360.84 290.56 1358.83 294.95 1350.01 300.85 1334.94 300.75 1301.42 282.04 1257.11 250.21 1249.45 244.7 1248.46 234.04 1257.38 216.51 1261.01 209.37"/><polygon class="cls-3" points="1257.38 216.51 1360.84 290.56 1358.83 294.95 1350.01 300.85 1334.94 300.75 1301.42 282.04 1257.11 250.21 1249.45 244.7 1248.46 234.04 1257.38 216.51"/><path class="cls-4" d="M1134.85,533.94V797.17c0,1,0,1.9-.1,2.83H859.21c-.07-.93-.1-1.88-.1-2.83V533.94c0-19.88,15.08-36.13,33.5-36.13h208.74C1119.78,497.81,1134.85,514.06,1134.85,533.94Z"/><polygon class="cls-5" points="1071.93 607.75 1074.38 589.35 1060.62 576.89 1078.88 573.54 1086.47 556.6 1095.3 572.93 1113.75 574.91 1100.95 588.36 1104.77 606.53 1088.03 598.5 1071.93 607.75"/><polygon class="cls-6" points="938.46 510.74 879.24 541.46 859.11 742.5 853.35 800 801.06 800 829.77 518.83 844.76 499.43 862 497.81 883.69 497.8 906.23 497.81 924.22 497.81 938.46 510.74"/><rect class="cls-5" x="947.65" y="475.04" width="31.49" height="84.05" transform="translate(1987.49 134.03) rotate(131.27)"/><polygon class="cls-6" points="1289.13 262.27 1150.19 521.66 1134.5 594 1086.74 496.8 1097.35 493.36 1236.29 233.96 1289.13 262.27"/><rect class="cls-3" x="969.94" y="436.34" width="66.71" height="92.95"/><polygon class="cls-3" points="1116.79 334.74 1107.85 411.64 1107.73 412.67 1050.69 466.54 972.38 471.14 909.43 424.33 891.29 348.01 898.27 334.09 926.46 277.88 998.48 246.76 1073.65 269.22 1116.79 334.74"/><polygon class="cls-2" points="1107.87 412.72 1051.56 465.85 940.97 271.66 998.71 246.75 1073.87 269.25 1116.97 334.8 1107.87 412.72"/><polyline class="cls-7" points="1100.45 266.02 1047.55 360.08 943.64 389.19 849.59 336.3"/><rect class="cls-4" x="842.93" y="294.46" width="264.37" height="24.45" transform="translate(-46.58 274.4) rotate(-15.65)"/><polygon class="cls-7" points="865.52 324.69 820.29 280.95 844.77 260.93 857.32 238.6 865.13 219.49 873.96 220.78 896.97 219.04 913.78 215.27 928.78 201.66 937.39 195.49 943.91 185.2 975.75 293.81 865.52 324.69"/><polygon class="cls-7" points="1083.35 263.67 1099.28 202.79 1067.96 198.41 1045.64 185.85 1029.04 173.58 1022.17 179.26 1001.59 189.73 985.27 195.24 965.39 191.41 954.83 190.61 943.91 185.2 973.13 294.55 1083.35 263.67"/><polygon class="cls-8" points="1070.43 604.75 1072.88 586.35 1059.12 573.89 1077.38 570.54 1084.97 553.6 1093.8 569.93 1112.26 571.92 1099.45 585.36 1103.27 603.53 1086.53 595.51 1070.43 604.75"/><path class="cls-9" d="M1035.26,428.05l-8.19-7.39-9.86-2.29-11.88,4.47-6.16,7-3.64,7.93a54,54,0,0,1-4.86,3.53c-.58.14-9.86-2.29-9.86-2.29l-5.5-1,6.31,11,7.66,3.6s7.34,1.34,8.49,1.06l12.1-2.95s7.37-2.58,8.06-2,10.94-2.67,10.94-2.67l5.9-4.58,2-2.83Z"/><path class="cls-9" d="M1034.67,430.05l4.57-8.75,7-5.51,10-1.17,6.22,2.93,4.53,4.62a35.52,35.52,0,0,0,4.47.82c.46-.12,7-5.52,7-5.52l3.95-2.87L1080,425.35l-5,5.67s-5.26,3.83-6.2,4.05l-9.82,2.4s-6.17.87-6.55,1.6-8.89,2.17-8.89,2.17L1038,440l-2.13-1.39Z"/><polygon class="cls-10" points="1063.38 331.93 1100.37 338.89 1113.4 363.89 1116.86 335.15 1087.22 289.55 1063.38 331.93"/><polygon class="cls-10" points="918.58 375.09 903.74 400.38 894.51 361.56 918.58 375.09"/><polygon class="cls-5" points="953.52 289.55 949.14 264.16 925.21 254.62 948.62 241.16 951.84 215.14 970.69 232.22 996.62 225.68 984.85 249.69 997.66 271.67 971.53 269.43 953.52 289.55"/><polygon class="cls-8" points="951.27 285.8 946.3 260.89 922.96 250.87 945.11 238.44 947.43 213.14 966.1 230.37 990.87 224.76 980.26 247.84 993.25 269.67 968.02 266.7 951.27 285.8"/><rect class="cls-8" x="950.65" y="471.29" width="31.49" height="84.05" transform="translate(1989.65 125.55) rotate(131.27)"/><rect class="cls-5" x="1033.91" y="475.91" width="31.53" height="78.96" transform="translate(648.66 -583.08) rotate(43.79)"/><rect class="cls-8" x="1029.24" y="471.4" width="32.16" height="80.95" transform="translate(668.12 -589.23) rotate(45)"/><polygon class="cls-11" points="1013.42 765.41 971.44 649.22 1009.67 552.53 1048.65 649.22 1013.42 765.41"/><rect class="cls-11" x="987.07" y="539.23" width="43.88" height="43.88" transform="translate(620.77 -526.16) rotate(41.27)"/><rect class="cls-7" x="889.74" y="563.02" width="66.71" height="87.7"/><rect class="cls-12" x="885.99" y="558.52" width="74.21" height="31.48"/><polygon class="cls-8" points="918.44 584.84 916.38 579.62 919.18 574.76 924.72 573.91 928.84 577.72 928.43 583.31 923.81 586.48 918.44 584.84"/><polygon class="cls-13" points="1005.54 430.55 1014.33 424.53 1015.67 422.1 1012.67 422.1 1007.42 424.35 1003.88 428.12 1002.92 431.09 1005.54 430.55"/><rect class="cls-14" x="990.18" y="593.75" width="6.75" height="54.72" transform="translate(1695.58 1559.24) rotate(-158.82)"/><ellipse class="cls-3" cx="1273.5" cy="234" rx="29" ry="45" transform="translate(531.57 1295.18) rotate(-65.45)"/><polyline class="cls-15" points="1428.21 606.43 1403.24 574.82 1362.96 574.62 1337.7 606"/><polyline class="cls-15" points="1422.43 333.33 1399.66 366.56 1359.49 369.48 1332.16 339.89"/><path class="cls-16" d="M1352.39,403.88c-.6-22.66,11-40.73,26.44-41.14s28,17,28.57,39.69-11,40.74-26.44,41.14S1353,426.55,1352.39,403.88Zm41.95-1.1c-.43-16.12-8.34-27.15-15.17-27s-14.14,11.61-13.72,27.73,8.33,27.15,15.17,27S1394.76,418.9,1394.34,402.78Z"/><path class="cls-16" d="M1354.24,474.1c-.6-22.66,11-40.73,26.44-41.14s28,17,28.57,39.69-11,40.73-26.44,41.14S1354.84,496.76,1354.24,474.1Zm42-1.11c-.42-16.12-8.33-27.15-15.16-27s-14.15,11.62-13.73,27.74,8.34,27.15,15.17,27S1396.62,489.11,1396.19,473Z"/><path class="cls-16" d="M1356.07,543.5c-.6-22.66,11-40.73,26.44-41.14s28,17,28.58,39.69-11,40.73-26.44,41.14S1356.67,566.16,1356.07,543.5Zm42-1.11c-.42-16.12-8.33-27.15-15.16-27s-14.15,11.62-13.73,27.74,8.34,27.15,15.17,27S1398.45,558.51,1398,542.39Z"/><rect class="cls-15" x="1351.44" y="357.86" width="53.91" height="19.6" rx="7.59" transform="translate(1709.56 -1019.96) rotate(88.49)"/><rect class="cls-15" x="1353.38" y="431.34" width="53.91" height="19.6" rx="7.59" transform="matrix(0.03, 1, -1, 0.03, 1784.9, -950.35)"/><rect class="cls-15" x="1355.19" y="499.92" width="53.91" height="19.6" rx="7.59" transform="translate(1855.23 -885.38) rotate(88.49)"/><rect class="cls-15" x="1356.96" y="566.87" width="53.91" height="19.6" rx="7.59" transform="translate(1923.87 -821.97) rotate(88.49)"/><path class="cls-16" d="M1272.57,289.87l18.09-90.17,81.78-42.08,83.89,37.7,22.82,89.1-55.42,73.39-91.94,2.43Zm49.2-66.68-11.44,57,37.44,44.48,58.12-1.53,35-46.4-14.43-56.32-53-23.84Z"/><path class="cls-16" d="M1279.05,659.2l55.42-73.39,91.94-2.42,59.22,70.36-18.09,90.18L1385.76,786l-83.89-37.7Zm73.26-38.73-35,46.4,14.43,56.33,53,23.83,51.7-26.6,11.44-57-37.44-44.49Z"/><rect class="cls-17" x="1274.46" y="626.57" width="80.82" height="5.34" transform="translate(27.79 1313.51) rotate(-53.57)"/><path class="cls-17" d="M1366.51,430.83c-3.17,0-6.09-3-8.21-8.48a64.34,64.34,0,0,1-.79-38c1.91-5.62,4.74-8.75,8-8.82l.06,3c-1.81,0-3.74,2.57-5.18,6.79a61.37,61.37,0,0,0,.75,36c1.61,4.15,3.63,6.62,5.46,6.57l.06,3Z"/><polygon class="cls-2" points="1298.31 154.06 1306.24 150.95 1393.43 158.85 1405.35 159.94 1413.41 168.25 1413.03 184.61 1407.35 191.77 1393.58 197.23 1355.59 197.15 1302.57 192.34 1293.39 191.5 1288.25 184.8 1289.86 163.85 1298.31 154.06"/><polygon class="cls-2" points="1289.85 163.85 1298.31 154.06 1306.24 150.95 1393.43 158.85 1405.35 159.93 1413.41 168.25 1413.11 180.97 1413.03 184.61 1407.34 191.76 1393.58 197.23 1355.59 197.15 1302.56 192.34 1293.39 191.5 1288.25 184.8 1289.39 169.91 1289.85 163.85"/><polygon class="cls-3" points="1289.39 169.91 1413.11 180.97 1413.03 184.61 1407.34 191.76 1393.58 197.23 1355.59 197.15 1302.56 192.34 1293.39 191.5 1288.25 184.8 1289.39 169.91"/><polygon class="cls-18" points="1372.65 184.88 1374.78 165.12 1389.51 163.02 1399.54 166.05 1404.69 169.43 1403.71 178.56 1403.29 182.43 1394.57 186.45 1387.49 188.07 1372.65 184.88"/><polygon class="cls-2" points="1278.09 166.71 1288.8 165 1400.13 177.52 1415.35 179.24 1424.5 186.02 1421.55 198.12 1413.15 203 1394.56 206 1345.55 203.03 1277.84 195.42 1266.12 194.1 1260.5 188.74 1265.71 173.32 1278.09 166.71"/><polygon class="cls-2" points="1265.71 173.32 1278.09 166.7 1288.8 165 1400.13 177.52 1415.35 179.24 1424.5 186.02 1422.21 195.43 1421.55 198.12 1413.14 203 1394.56 206 1345.55 203.04 1277.84 195.42 1266.12 194.1 1260.5 188.74 1264.2 177.78 1265.71 173.32"/><polygon class="cls-3" points="1264.2 177.78 1422.21 195.43 1421.55 198.12 1413.14 203 1394.56 206 1345.55 203.04 1277.84 195.42 1266.12 194.1 1260.5 188.74 1264.2 177.78"/><polygon class="cls-18" points="1379.92 197.5 1385.16 182.91 1399.59 181.42 1408.69 183.7 1413.08 186.23 1410.65 192.97 1409.63 195.83 1400.64 198.76 1393.6 199.93 1379.92 197.5"/><polygon class="cls-2" points="1254.59 182.08 1266.21 180 1387.05 195.27 1403.57 197.36 1413.5 205.63 1410.3 220.39 1401.18 226.34 1381 230 1327.81 226.38 1254.32 217.09 1241.6 215.49 1235.5 208.95 1241.16 190.14 1254.59 182.08"/><polygon class="cls-2" points="1241.16 190.14 1254.59 182.08 1266.21 180 1387.05 195.27 1403.57 197.36 1413.5 205.63 1411.01 217.1 1410.3 220.4 1401.18 226.34 1381 230 1327.81 226.38 1254.32 217.09 1241.6 215.48 1235.5 208.94 1239.52 195.59 1241.16 190.14"/><polygon class="cls-3" points="1239.52 195.59 1411.01 217.1 1410.3 220.4 1401.18 226.34 1381 230 1327.81 226.38 1254.32 217.09 1241.6 215.48 1235.5 208.94 1239.52 195.59"/><polygon class="cls-18" points="1363.91 219.34 1369.65 201.56 1385.87 199.88 1396.14 202.76 1401.1 205.89 1398.45 214.1 1397.32 217.59 1387.24 221.08 1379.33 222.44 1363.91 219.34"/><polygon class="cls-2" points="1247.28 198.79 1255.63 197.01 1340.34 219.12 1351.91 222.14 1358.5 231.66 1355.44 247.74 1348.66 253.87 1334.18 257 1296.73 250.68 1245.21 237.24 1236.29 234.91 1232.32 227.46 1237.34 207.05 1247.28 198.79"/><polygon class="cls-2" points="1237.34 207.05 1247.28 198.78 1255.63 197.02 1340.34 219.12 1351.91 222.14 1358.5 231.67 1356.12 244.16 1355.44 247.74 1348.66 253.86 1334.18 257 1296.73 250.69 1245.2 237.24 1236.29 234.91 1232.32 227.46 1235.89 212.96 1237.34 207.05"/><polygon class="cls-3" points="1235.89 212.96 1356.12 244.16 1355.44 247.74 1348.66 253.86 1334.18 257 1296.73 250.69 1245.2 237.24 1236.29 234.91 1232.32 227.46 1235.89 212.96"/><polygon class="cls-18" points="1315.57 241.38 1320.91 222.24 1335.78 222.58 1345.18 227.21 1349.71 231.4 1347.24 240.24 1346.19 243.99 1336.93 246.53 1329.68 246.96 1315.57 241.38"/><rect class="cls-1" x="2401" y="0.5" width="800" height="800"/><polygon class="cls-2" points="2873.67 201.63 2882.34 201.73 2955.19 254.06 2965.15 261.21 2967.85 275.26 2958.83 294.95 2950.01 300.86 2934.94 300.75 2901.42 282.03 2857.11 250.21 2849.45 244.7 2848.47 234.04 2861.01 209.37 2873.67 201.63"/><polygon class="cls-2" points="2861.01 209.37 2873.67 201.63 2882.34 201.73 2955.19 254.06 2965.15 261.21 2967.85 275.26 2960.84 290.56 2958.83 294.95 2950.01 300.85 2934.94 300.75 2901.42 282.04 2857.11 250.21 2849.45 244.7 2848.47 234.04 2857.38 216.51 2861.01 209.37"/><polygon class="cls-3" points="2857.38 216.51 2960.84 290.56 2958.83 294.95 2950.01 300.85 2934.94 300.75 2901.42 282.04 2857.11 250.21 2849.45 244.7 2848.47 234.04 2857.38 216.51"/><path class="cls-4" d="M2734.85,533.94V797.17c0,1,0,1.9-.1,2.83H2459.21c-.07-.93-.1-1.88-.1-2.83V533.94c0-19.88,15.08-36.13,33.5-36.13h208.74C2719.78,497.81,2734.85,514.06,2734.85,533.94Z"/><polygon class="cls-5" points="2671.93 607.75 2674.38 589.35 2660.62 576.89 2678.88 573.54 2686.47 556.6 2695.3 572.93 2713.75 574.91 2700.95 588.36 2704.77 606.53 2688.03 598.5 2671.93 607.75"/><polygon class="cls-6" points="2538.46 510.74 2479.24 541.46 2459.11 742.5 2453.35 800 2401.06 800 2429.77 518.83 2444.76 499.43 2462 497.81 2483.69 497.8 2506.23 497.81 2524.22 497.81 2538.46 510.74"/><rect class="cls-5" x="2547.65" y="475.04" width="31.49" height="84.05" transform="translate(4642.86 -1068.55) rotate(131.27)"/><polygon class="cls-6" points="2889.13 262.27 2750.19 521.66 2734.5 594 2686.74 496.8 2697.35 493.36 2836.29 233.96 2889.13 262.27"/><rect class="cls-3" x="2569.94" y="436.34" width="66.71" height="92.95"/><polygon class="cls-3" points="2716.79 334.74 2707.85 411.64 2707.73 412.67 2650.7 466.54 2572.38 471.14 2509.43 424.33 2491.29 348.01 2498.27 334.09 2526.46 277.88 2598.48 246.76 2673.65 269.22 2716.79 334.74"/><polygon class="cls-2" points="2707.87 412.72 2651.55 465.85 2540.97 271.66 2598.71 246.75 2673.87 269.25 2716.97 334.8 2707.87 412.72"/><polyline class="cls-7" points="2700.45 266.02 2647.55 360.08 2543.64 389.19 2449.59 336.3"/><rect class="cls-4" x="2442.93" y="294.46" width="264.37" height="24.45" transform="translate(12.73 705.99) rotate(-15.65)"/><polygon class="cls-7" points="2465.53 324.69 2420.29 280.95 2444.77 260.93 2457.32 238.6 2465.13 219.49 2473.96 220.78 2496.97 219.04 2513.78 215.27 2528.78 201.66 2537.39 195.49 2543.91 185.2 2575.75 293.81 2465.53 324.69"/><polygon class="cls-7" points="2683.35 263.67 2699.28 202.79 2667.96 198.41 2645.64 185.85 2629.04 173.58 2622.17 179.26 2601.59 189.73 2585.27 195.24 2565.39 191.41 2554.83 190.61 2543.91 185.2 2573.13 294.55 2683.35 263.67"/><polygon class="cls-8" points="2670.43 604.75 2672.88 586.35 2659.12 573.89 2677.38 570.54 2684.97 553.6 2693.8 569.93 2712.26 571.92 2699.45 585.36 2703.27 603.53 2686.53 595.51 2670.43 604.75"/><path class="cls-9" d="M2635.26,428.05l-8.19-7.39-9.86-2.29-11.88,4.47-6.16,7-3.64,7.93a54,54,0,0,1-4.86,3.53c-.58.14-9.86-2.29-9.86-2.29l-5.5-1,6.31,11,7.66,3.6s7.34,1.34,8.49,1.06l12.1-2.95s7.37-2.58,8.06-2,10.94-2.67,10.94-2.67l5.9-4.58,2-2.83Z"/><path class="cls-9" d="M2634.67,430.05l4.57-8.75,7-5.51,10-1.17,6.22,2.93,4.53,4.62a35.52,35.52,0,0,0,4.47.82c.46-.12,7-5.52,7-5.52l3.95-2.87L2680,425.35l-5,5.67s-5.26,3.83-6.2,4.05l-9.82,2.4s-6.17.87-6.55,1.6-8.89,2.17-8.89,2.17L2638,440l-2.13-1.39Z"/><polygon class="cls-10" points="2663.38 331.93 2700.37 338.89 2713.4 363.89 2716.86 335.15 2687.22 289.55 2663.38 331.93"/><polygon class="cls-10" points="2518.57 375.09 2503.74 400.38 2494.51 361.56 2518.57 375.09"/><polygon class="cls-5" points="2553.52 289.55 2549.14 264.16 2525.2 254.62 2548.62 241.16 2551.84 215.14 2570.69 232.22 2596.62 225.68 2584.85 249.69 2597.66 271.67 2571.53 269.43 2553.52 289.55"/><polygon class="cls-8" points="2551.27 285.8 2546.3 260.89 2522.96 250.87 2545.11 238.44 2547.43 213.14 2566.1 230.37 2590.87 224.76 2580.26 247.84 2593.25 269.67 2568.02 266.7 2551.27 285.8"/><rect class="cls-8" x="2550.65" y="471.29" width="31.49" height="84.05" transform="translate(4645.02 -1077.02) rotate(131.27)"/><rect class="cls-5" x="2633.91" y="475.91" width="31.53" height="78.96" transform="translate(1093.72 -1690.37) rotate(43.79)"/><rect class="cls-8" x="2629.24" y="471.4" width="32.16" height="80.95" transform="translate(1136.75 -1720.6) rotate(45)"/><polygon class="cls-11" points="2613.42 765.41 2571.44 649.22 2609.67 552.53 2648.65 649.22 2613.42 765.41"/><rect class="cls-11" x="2587.07" y="539.23" width="43.88" height="43.88" transform="translate(1018.2 -1581.53) rotate(41.27)"/><rect class="cls-7" x="2489.74" y="563.02" width="66.71" height="87.7"/><rect class="cls-12" x="2485.99" y="558.52" width="74.21" height="31.48"/><polygon class="cls-8" points="2518.44 584.84 2516.39 579.62 2519.18 574.76 2524.72 573.91 2528.84 577.72 2528.43 583.31 2523.81 586.48 2518.44 584.84"/><polygon class="cls-13" points="2605.54 430.55 2614.33 424.53 2615.67 422.1 2612.67 422.1 2607.42 424.35 2603.88 428.12 2602.92 431.09 2605.54 430.55"/><rect class="cls-14" x="2590.18" y="593.75" width="6.75" height="54.72" transform="translate(4787.5 2137.33) rotate(-158.82)"/><ellipse class="cls-3" cx="2873.5" cy="234" rx="29" ry="45" transform="translate(1466.84 2750.56) rotate(-65.45)"/><polyline class="cls-15" points="3028.21 606.43 3003.24 574.82 2962.97 574.62 2937.7 606"/><polyline class="cls-15" points="3022.43 333.33 2999.66 366.56 2959.49 369.48 2932.16 339.89"/><path class="cls-16" d="M2952.39,403.88c-.6-22.66,11-40.73,26.44-41.14s28,17,28.57,39.69-11,40.74-26.44,41.14S2953,426.55,2952.39,403.88Zm42-1.1c-.43-16.12-8.34-27.15-15.17-27s-14.14,11.61-13.72,27.73,8.33,27.15,15.17,27S2994.76,418.9,2994.34,402.78Z"/><path class="cls-16" d="M2954.24,474.1c-.6-22.66,11-40.73,26.44-41.14s28,17,28.57,39.69-11,40.73-26.44,41.14S2954.84,496.76,2954.24,474.1Zm42-1.11c-.42-16.12-8.33-27.15-15.16-27s-14.15,11.62-13.73,27.74,8.34,27.15,15.17,27S2996.62,489.11,2996.19,473Z"/><path class="cls-16" d="M2956.07,543.5c-.6-22.66,11-40.73,26.44-41.14s28,17,28.58,39.69-11,40.73-26.44,41.14S2956.67,566.16,2956.07,543.5Zm41.95-1.11c-.42-16.12-8.33-27.15-15.16-27s-14.15,11.62-13.73,27.74,8.34,27.15,15.17,27S2998.45,558.51,2998,542.39Z"/><rect class="cls-15" x="2951.44" y="357.86" width="53.91" height="19.6" rx="7.59" transform="translate(3267.35 -2619.4) rotate(88.49)"/><rect class="cls-15" x="2953.38" y="431.34" width="53.91" height="19.6" rx="7.59" transform="translate(3342.7 -2549.79) rotate(88.49)"/><rect class="cls-15" x="2955.19" y="499.92" width="53.91" height="19.6" rx="7.59" transform="translate(3413.02 -2484.83) rotate(88.49)"/><rect class="cls-15" x="2956.96" y="566.87" width="53.91" height="19.6" rx="7.59" transform="translate(3481.67 -2421.41) rotate(88.49)"/><path class="cls-16" d="M2872.57,289.87l18.09-90.17,81.78-42.08,83.89,37.7,22.82,89.1-55.42,73.39-91.94,2.43Zm49.2-66.68-11.44,57,37.44,44.48,58.12-1.53,35-46.4-14.43-56.32-53-23.84Z"/><path class="cls-16" d="M2879.05,659.2l55.42-73.39,91.94-2.42,59.22,70.36-18.09,90.18L2985.76,786l-83.89-37.7Zm73.26-38.73-35,46.4,14.43,56.33,53,23.83,51.7-26.6,11.44-57-37.44-44.49Z"/><rect class="cls-17" x="2874.46" y="626.57" width="80.82" height="5.34" transform="translate(677.66 2600.86) rotate(-53.57)"/><path class="cls-17" d="M2966.51,430.83c-3.17,0-6.09-3-8.21-8.48a64.34,64.34,0,0,1-.79-38c1.91-5.62,4.74-8.75,8-8.82l.06,3c-1.81,0-3.74,2.57-5.18,6.79a61.37,61.37,0,0,0,.75,36c1.61,4.15,3.63,6.62,5.46,6.57l.06,3Z"/><polygon class="cls-2" points="2898.3 154.06 2906.24 150.95 2993.43 158.85 3005.35 159.94 3013.41 168.25 3013.03 184.61 3007.34 191.77 2993.58 197.23 2955.59 197.15 2902.57 192.34 2893.39 191.5 2888.25 184.8 2889.86 163.85 2898.3 154.06"/><polygon class="cls-2" points="2889.85 163.85 2898.31 154.06 2906.24 150.95 2993.43 158.85 3005.35 159.93 3013.41 168.25 3013.11 180.97 3013.03 184.61 3007.34 191.76 2993.58 197.23 2955.59 197.15 2902.56 192.34 2893.39 191.5 2888.25 184.8 2889.39 169.91 2889.85 163.85"/><polygon class="cls-3" points="2889.39 169.91 3013.11 180.97 3013.03 184.61 3007.34 191.76 2993.58 197.23 2955.59 197.15 2902.56 192.34 2893.39 191.5 2888.25 184.8 2889.39 169.91"/><polygon class="cls-18" points="2972.65 184.88 2974.78 165.12 2989.51 163.02 2999.54 166.05 3004.69 169.43 3003.71 178.56 3003.29 182.43 2994.57 186.45 2987.49 188.07 2972.65 184.88"/><polygon class="cls-2" points="2878.09 166.71 2888.8 165 3000.13 177.52 3015.35 179.24 3024.5 186.02 3021.55 198.12 3013.15 203 2994.56 206 2945.55 203.03 2877.84 195.42 2866.12 194.1 2860.5 188.74 2865.71 173.32 2878.09 166.71"/><polygon class="cls-2" points="2865.71 173.32 2878.09 166.7 2888.8 165 3000.13 177.52 3015.35 179.24 3024.5 186.02 3022.21 195.43 3021.55 198.12 3013.14 203 2994.56 206 2945.55 203.04 2877.84 195.42 2866.12 194.1 2860.5 188.74 2864.2 177.78 2865.71 173.32"/><polygon class="cls-3" points="2864.2 177.78 3022.21 195.43 3021.55 198.12 3013.14 203 2994.56 206 2945.55 203.04 2877.84 195.42 2866.12 194.1 2860.5 188.74 2864.2 177.78"/><polygon class="cls-18" points="2979.92 197.5 2985.16 182.91 2999.59 181.42 3008.69 183.7 3013.08 186.23 3010.66 192.97 3009.63 195.83 3000.64 198.76 2993.6 199.93 2979.92 197.5"/><polygon class="cls-2" points="2854.59 182.08 2866.22 180 2987.05 195.27 3003.57 197.36 3013.5 205.63 3010.3 220.39 3001.18 226.34 2981 230 2927.81 226.38 2854.32 217.09 2841.6 215.49 2835.5 208.95 2841.16 190.14 2854.59 182.08"/><polygon class="cls-2" points="2841.16 190.14 2854.59 182.08 2866.21 180 2987.05 195.27 3003.57 197.36 3013.5 205.63 3011.01 217.1 3010.3 220.4 3001.18 226.34 2981 230 2927.81 226.38 2854.32 217.09 2841.6 215.48 2835.5 208.94 2839.52 195.59 2841.16 190.14"/><polygon class="cls-3" points="2839.52 195.59 3011.01 217.1 3010.3 220.4 3001.18 226.34 2981 230 2927.81 226.38 2854.32 217.09 2841.6 215.48 2835.5 208.94 2839.52 195.59"/><polygon class="cls-18" points="2963.91 219.34 2969.66 201.56 2985.87 199.88 2996.14 202.76 3001.1 205.89 2998.45 214.1 2997.32 217.59 2987.24 221.08 2979.33 222.44 2963.91 219.34"/><polygon class="cls-2" points="2847.28 198.79 2855.63 197.01 2940.34 219.12 2951.91 222.14 2958.5 231.66 2955.44 247.74 2948.66 253.87 2934.18 257 2896.73 250.68 2845.21 237.24 2836.29 234.91 2832.32 227.46 2837.34 207.05 2847.28 198.79"/><polygon class="cls-2" points="2837.34 207.05 2847.28 198.78 2855.63 197.02 2940.34 219.12 2951.91 222.14 2958.5 231.67 2956.12 244.16 2955.44 247.74 2948.66 253.86 2934.18 257 2896.73 250.69 2845.2 237.24 2836.29 234.91 2832.32 227.46 2835.89 212.96 2837.34 207.05"/><polygon class="cls-3" points="2835.89 212.96 2956.12 244.16 2955.44 247.74 2948.66 253.86 2934.18 257 2896.73 250.69 2845.2 237.24 2836.29 234.91 2832.32 227.46 2835.89 212.96"/><polygon class="cls-18" points="2915.57 241.38 2920.91 222.24 2935.78 222.58 2945.18 227.21 2949.71 231.4 2947.24 240.24 2946.19 243.99 2936.93 246.53 2929.68 246.96 2915.57 241.38"/></g></svg>
