<svg xmlns="http://www.w3.org/2000/svg" viewBox="0 0 350 500"><defs><style>.cls-1{fill:#ff931e;}.cls-2{fill:#f47200;}.cls-3{fill:#ff879d;}</style></defs><title>Kaffe</title><g id="Bilde_5" data-name="Bilde 5"><ellipse class="cls-1" cx="163.84" cy="343.17" rx="143.66" ry="50.67"/><path class="cls-2" d="M283.2,193.5H56.87c-7.13,0-12.68,6.61-11.9,14.17L59.05,343.18c.67,6.44,5.76,11.33,11.84,11.36l189.36,1A12.22,12.22,0,0,0,272.1,345L295,208.51C296.29,200.69,290.65,193.5,283.2,193.5Z"/><ellipse class="cls-3" cx="170" cy="193" rx="121.5" ry="28.5"/><path class="cls-2" d="M170,229c-33,0-64.13-3-87.63-8.55C54.53,213.92,41,204.94,41,193s13.53-20.92,41.37-27.45C105.87,160,137,157,170,157s64.13,3,87.63,8.55C285.47,172.08,299,181.06,299,193s-13.53,20.92-41.37,27.45C234.13,226,203,229,170,229ZM56,193c.78,1.93,8,8.07,32.37,13.44,22.1,4.88,51.08,7.56,81.6,7.56s59.5-2.68,81.6-7.56c24.34-5.37,31.59-11.51,32.37-13.44-.78-1.93-8-8.07-32.37-13.44C229.5,174.68,200.52,172,170,172s-59.5,2.68-81.6,7.56C64.06,184.93,56.81,191.07,56,193Z"/><path class="cls-2" d="M31.5,265.81c0,23.82,39.22,40.69,29,40.69s-40-16.05-40-39.87,27.78-43.13,38-43.13S31.5,242,31.5,265.81Z"/><path class="cls-1" d="M176.37,121.47c10.8,34.21-.72,51.33-6.54,53.31s10-15.17-.81-50,2.94-48,14.18-55.68C188.22,65.69,165.39,86.71,176.37,121.47Z"/><path class="cls-1" d="M148.65,142.36c6.13,15.73,1.24,24.13-1.42,25.24s4.2-7.44-1.93-23.45-.1-22.64,4.94-26.59C152.49,115.8,142.42,126.38,148.65,142.36Z"/><path class="cls-1" d="M194.67,134.06c7.57,18.31,2.05,28.27-1.06,29.64s4.76-8.82-2.82-27.47-.67-26.55,5.15-31.3C198.54,102.81,187,115.46,194.67,134.06Z"/></g></svg>
