<svg xmlns="http://www.w3.org/2000/svg" viewBox="0 0 350 500"><defs><style>.cls-1{fill:#f47200;}.cls-2{fill:#ff879d;}.cls-3{fill:#ff931e;}.cls-4{fill:#f7931e;}</style></defs><title>Kat</title><g id="Bilde_2" data-name="Bilde 2"><path class="cls-1" d="M224.7,269.79c0-31.89-21.76-64.82-68.94-64.82s-85.44,25.85-85.44,57.75c0,30.28,31.85,61.48,75.46,64.54-4.05,1.24-6.54,2.85-6.49,4.55.11,3.37,10.27,5.79,22.7,5.4s22.42-3.45,22.32-6.82a3.11,3.11,0,0,0,0-.32,1.11,1.11,0,0,0,.23-.64V322.8C211,313.93,224.7,293.54,224.7,269.79Z"/><path class="cls-1" d="M165.77,168.44c0,37.42-27.22,63.64-69.53,63.64s-86-20.33-86-57.75S50.4,84.77,92.71,84.77,165.77,131,165.77,168.44Z"/><path class="cls-1" d="M141,111.87,116.24,92.46a2.74,2.74,0,0,1,.5-4.9l17-6.28,16.9-5.37a2.74,2.74,0,0,1,3.43,3.51l-9.3,27C144.2,108.05,142.52,112.81,141,111.87Z"/><path class="cls-1" d="M29.78,127.09,19.47,89.38a2.87,2.87,0,0,1,4.32-3.17L42,97.8l23.51,16.28Z"/><path class="cls-2" d="M29,113.9l-2.88-10.56a2.54,2.54,0,0,1,3.81-2.81l5.12,3.26,6.21,4.31a2.54,2.54,0,0,1-.57,4.47l-8.37,3.05A2.54,2.54,0,0,1,29,113.9Z"/><path class="cls-2" d="M135.41,102.46l-9.33-5.85a2.61,2.61,0,0,1,.48-4.65l6.52-2.4,6.47-2.06a2.6,2.6,0,0,1,3.25,3.33l-3.54,10.27A2.61,2.61,0,0,1,135.41,102.46Z"/><rect class="cls-3" x="82.1" y="94.19" width="5.89" height="38.89" rx="2.5"/><rect class="cls-3" x="64.42" y="104.8" width="5.89" height="24.75" rx="2.5" transform="translate(-32.12 25.68) rotate(-17.5)"/><rect class="cls-3" x="101.08" y="94.55" width="5.89" height="30.16" rx="2.5" transform="translate(29.43 -21.81) rotate(13.92)"/><ellipse cx="60.3" cy="159.6" rx="5.3" ry="7.66"/><ellipse cx="101.55" cy="153.71" rx="5.3" ry="7.66"/><path d="M76.4,175.89a1,1,0,0,0,.29,0l9.19-1.51c-.45-.14,0,.58-.3,1.24l-2.8,5.87c-.82,1.72-2.84,2.06-3.69.61l-2.58-4.45a2,2,0,0,1-.15-1.6Z"/><path class="cls-4" d="M143.18,243.1c-4-6.09,9.9-17.61,18.75-23.46,11.1-7.33,24.71-12.7,28.37-7.16l-3.33,2.2c-.94-1.41-9.83-.29-22.83,8.3-13.53,8.93-18.49,16.61-17.62,17.92Z"/><path class="cls-4" d="M160,254.17c-1.7-2.57-.36-6.33,4-11.18a78.78,78.78,0,0,1,14.79-12.28,67.65,67.65,0,0,1,16.87-8.36c7.38-2.23,10.33-.58,11.5,1.2l-3.34,2.2c-.24-.36-2-1.07-7,.43a63.76,63.76,0,0,0-15.83,7.87,75.65,75.65,0,0,0-14,11.61c-3.68,4.11-3.78,6.05-3.61,6.31Z"/><path class="cls-4" d="M172.39,270c-1.7-2.58-.36-6.34,4-11.18a78.38,78.38,0,0,1,14.78-12.29A68.15,68.15,0,0,1,208,238.14c7.38-2.23,10.32-.58,11.5,1.19l-3.34,2.21c-.24-.37-2-1.07-7,.42a63.94,63.94,0,0,0-15.83,7.87,75.71,75.71,0,0,0-14,11.61c-3.68,4.12-3.78,6.05-3.61,6.31Z"/><path d="M80.92,182.58c0,1.95-3.16,3.54-7.07,3.54s-7.07-1.59-7.07-3.54c0-1.18,3.17,2.36,7.07,2.36S80.92,181.4,80.92,182.58Z"/><path d="M95.06,182.58c0,1.95-3.16,3.54-7.07,3.54s-7.07-1.59-7.07-3.54c0-1.18,3.17,2.36,7.07,2.36S95.06,181.4,95.06,182.58Z"/><rect class="cls-1" x="72.67" y="249.75" width="17.68" height="77.78"/><rect class="cls-1" x="97.42" y="294.53" width="10.61" height="34.18" rx="1.07"/><ellipse class="cls-1" cx="96.81" cy="322.79" rx="8.78" ry="6.29"/><path class="cls-1" d="M64.42,328.71c0-3.9,5-7.07,11.2-7.07s13.55,6.7,13.55,10.61-7.37,3.53-13.55,3.53S64.42,332.62,64.42,328.71Z"/><path class="cls-1" d="M274.64,307.16c38.72,6.46,55.59,28.14,54.84,32.7s-18.41-15.32-57.14-21.77-67-24.4-66.29-28.95S235.91,300.71,274.64,307.16Z"/><path class="cls-1" d="M76.71,325.18H87.12a3.23,3.23,0,0,1,3.23,3.23v3.92a3.22,3.22,0,0,1-3.45,3.22l-10.81-.72a3.23,3.23,0,0,1-3-3.63l.4-3.19A3.22,3.22,0,0,1,76.71,325.18Z"/><path class="cls-4" d="M232.14,306.85a3,3,0,0,1-.59-3.33,9.44,9.44,0,0,1,2.36-3.26c2.25-2.18,5.51-2.46,7.27-.65l-.72.7c-1.38-1.42-4-1.12-5.85.67a8.47,8.47,0,0,0-2.12,2.89,2,2,0,0,0,.37,2.28Z"/><path class="cls-4" d="M244.75,311.47c-1.71-1.76-1.2-4.93,1.16-7.21s5.51-2.46,7.27-.65l-.72.7c-1.38-1.42-4-1.12-5.85.67s-2.44,4.46-1.15,5.8Z"/><path class="cls-4" d="M258.75,314.47c-1.71-1.76-1.2-4.93,1.16-7.21s5.51-2.46,7.27-.65l-.72.7c-1.38-1.42-4-1.12-5.85.67s-2.44,4.46-1.15,5.8Z"/><path class="cls-4" d="M272.75,317.47c-1.71-1.76-1.2-4.93,1.16-7.21s5.51-2.46,7.27-.65l-.72.7c-1.38-1.42-4-1.12-5.85.67s-2.44,4.46-1.15,5.8Z"/><path class="cls-4" d="M285.75,320.47c-1.71-1.76-1.2-4.93,1.16-7.21s5.51-2.46,7.27-.65l-.72.7c-1.38-1.42-4-1.12-5.85.67s-2.44,4.46-1.15,5.8Z"/><rect x="64.5" y="327.5" width="5" height="1.01" rx="0.47"/><rect x="66.5" y="331.5" width="5" height="1.01" rx="0.5"/><rect x="66.5" y="324.5" width="5" height="1.01" rx="0.47"/><rect x="90.5" y="318.5" width="5" height="1.01" rx="0.2"/><rect x="90.5" y="321.5" width="3" height="1.01" rx="0.21"/><rect x="90.5" y="324.5" width="5" height="1.01" rx="0.23"/><rect x="141.5" y="333.5" width="5" height="1.01" rx="0.27"/><rect x="138.5" y="331.5" width="5" height="1.01" rx="0.2"/><rect x="140.5" y="329.5" width="5" height="1.01" rx="0.2"/></g></svg>
