<svg xmlns="http://www.w3.org/2000/svg" viewBox="0 0 1600 900"><defs><style>.cls-1{fill:#8acce4;}.cls-2{fill:#28495e;}.cls-3{fill:#fff;}</style></defs><title>level complete skærm</title><g id="baggrund_level_complete" data-name="baggrund level complete"><rect class="cls-1" x="-1.25" width="1600" height="900"/><rect class="cls-2" x="43.25" y="44" width="1509" height="812"/><rect class="cls-2" x="43" y="44" width="1509" height="812"/><rect class="cls-3" x="56.59" y="92" width="1397.49" height="752"/></g><g id="tekst"><path d="M858.79,283.9l-9.35,18.58a23.14,23.14,0,0,0-15.33-6.3c-2.73,0-4.83,1.57-4.83,3.67s1.26,2.94,7.67,4.52c4.83,1.26,8.82,2.83,11.34,4.62,4.72,3.15,7.66,9.24,7.66,15.64,0,14.07-13.65,25.52-30.55,25.52a53.43,53.43,0,0,1-21.21-5c-1.47-.74-3.68-1.79-6.51-3.36l9.45-18.9a23.14,23.14,0,0,0,17.53,8.29c3.57,0,5.88-1.57,5.88-4.09s-2-3.89-6.61-4.94c-4.83-.94-7.46-1.78-10-3.15-6.61-3.25-10.07-9.13-10.07-17.22,0-14,12.8-25.09,28.76-25.09a52.33,52.33,0,0,1,21.74,4.94C855.43,282.11,856.9,282.85,858.79,283.9Z"/><path d="M886.61,327.15a11.36,11.36,0,0,0-.1,1.79c0,4,2.1,6.61,5.35,6.61,2.52,0,4.1-1.26,5.25-4.2h23.31c-1.89,5.57-3.25,7.77-6.82,10.92-5.67,4.94-13,7.46-21.53,7.46-17.43,0-29.4-10.29-29.4-25.41,0-15.86,13-27.82,30.24-27.82,16.17,0,28.88,11.23,28.88,25.61,0,1.16-.21,2.84-.42,5Zm.95-10.08H898.9c-.11-4.41-1.79-6.51-5.36-6.51C890.18,310.56,888.29,312.56,887.56,317.07Z"/><path d="M958.33,299.33,949,372.41H924.73l9.34-73.08Zm3.57-17.95c0,6.61-6.2,11.86-14.18,11.86-7.45,0-13.33-4.93-13.33-11.23s6.4-12.08,13.86-12.08S961.9,275.29,961.9,281.38Z"/><path d="M995.18,317.49l-3.78,30.87H967.15l3.78-30.87-6.3.63L967,298.91l6,1,2.2-17.22h24.26L997.39,300l6-.63-2.31,18.79Z"/><path d="M1090.2,299.33l-5.46,44.2c-1.36,11.55-4,17.12-10.18,21.74-6,4.62-14.18,7.14-23.21,7.14A67.4,67.4,0,0,1,1029,368.1a24,24,0,0,1-3.15-1.26l6.51-16c6.19,3.78,10.5,5.25,15.75,5.25s9.66-2.31,11.65-6c1.16-2.31,1.58-3.78,2.94-10.5l-.73-.21c-3.15,6.82-7,9.24-14.28,9.24-11.66,0-20.26-9.87-20.26-23.21,0-15.54,10.6-27.82,24-27.82,7.35,0,12,3,14.49,10l.73-.21-.21-2.83-.1-3.57-.11-1.68Zm-26,24.67c0-4-2.41-6.93-5.77-6.93-3.89,0-7,3.47-7,7.67,0,3.88,2.52,6.51,6,6.51C1061.33,331.25,1064.16,328.2,1064.16,324Z"/><path d="M1158.66,299.33l-6.09,49h-24a57.66,57.66,0,0,1,2.62-8.71l-.73-.32c-4.2,7.35-8.61,10.4-15.12,10.4-11,0-20.47-10.5-20.47-22.89,0-15.54,11.55-29.19,24.56-29.19,7.77,0,12,2.94,14.81,10.5l.84-.32a50.42,50.42,0,0,1-.53-7.45v-1.05Zm-17.11-10.18c-3.26,2.52-7.67,2.93-10.92,2.93-5,0-8.51-1-10.82-2.83a11,11,0,0,1-4.3-8.61,10.63,10.63,0,0,1,4.2-8.4c3.25-2.52,7.66-2.94,10.92-2.94s7.77.42,10.92,2.94a11.14,11.14,0,0,1,4.2,8.4A10.69,10.69,0,0,1,1141.55,289.15Zm-9.35,34.22c0-3.67-2.41-6.4-5.77-6.4-3.78,0-7,3.67-7,8a5.9,5.9,0,0,0,6,6.19C1129.26,331.14,1132.2,327.78,1132.2,323.37ZM1127,277.91a3.29,3.29,0,0,0-1.57,2.94,2.78,2.78,0,0,0,1.57,2.63,7,7,0,0,0,3.68.84,8.06,8.06,0,0,0,3.78-.84,2.91,2.91,0,0,0,1.47-2.84,3.18,3.18,0,0,0-1.47-2.73,8,8,0,0,0-3.78-.84A6.82,6.82,0,0,0,1127,277.91Z"/><path d="M1187.54,327.15a10.34,10.34,0,0,0-.11,1.79c0,4,2.1,6.61,5.36,6.61,2.52,0,4.09-1.26,5.25-4.2h23.31c-1.89,5.57-3.26,7.77-6.83,10.92-5.67,4.94-13,7.46-21.52,7.46-17.43,0-29.4-10.29-29.4-25.41,0-15.86,13-27.82,30.24-27.82,16.17,0,28.87,11.23,28.87,25.61,0,1.16-.21,2.84-.42,5Zm.94-10.08h11.34c-.1-4.41-1.78-6.51-5.35-6.51C1191.11,310.56,1189.22,312.56,1188.48,317.07Z"/><path d="M1257.68,317.49l-3.78,30.87h-24.26l3.78-30.87-6.3.63,2.42-19.21,6,1,2.21-17.22H1262l-2.1,17.22,6-.63-2.31,18.79Z"/><path d="M1296.42,338c0,6.51-6.19,11.65-13.75,11.65s-14-5.46-14-12.07,5.88-11.34,13.65-11.34S1296.42,331.35,1296.42,338Zm6.3-59.64-5.14,42.52h-25.41l5.14-42.52Z"/><path d="M800.3,435h6.8c3.35,0,8.1.35,12.3,3.9a16.26,16.26,0,0,1,5.7,12.8,15.88,15.88,0,0,1-5.85,12.8c-3,2.6-6.25,3.85-12.2,3.85H800.3Zm3.7,29.85h3.25a14.25,14.25,0,0,0,9.55-3,12.76,12.76,0,0,0,4.5-10.15c0-8-5.6-13.2-14-13.2H804Z"/><path d="M834.6,459.71c0,1.45,0,3.15,1,4.45a5,5,0,0,0,7.3,0c1-1.3,1-3,1-4.45v-12.1h3.6v12.5c0,2.55-.25,4.45-1.9,6.25a9.05,9.05,0,0,1-12.7,0c-1.65-1.8-1.9-3.7-1.9-6.25v-12.5h3.6Z"/><path d="M867,447.61l6.2,14,6.2-14h4l-10.2,22.1L863,447.61Z"/><path d="M905.55,463.06a12.41,12.41,0,0,1-2.55,3.35,10.07,10.07,0,0,1-6.9,2.55c-5,0-10.25-3.15-10.25-10.85,0-6.2,3.8-11,10-11a9.28,9.28,0,0,1,7.85,3.8,13.93,13.93,0,0,1,2,7.8H889.55c.05,4.3,3,7.05,6.6,7.05a6.31,6.31,0,0,0,4.25-1.5,8.27,8.27,0,0,0,2.15-2.85ZM902,455.71a6.21,6.21,0,0,0-6.1-5.4,6.31,6.31,0,0,0-6.1,5.4Z"/><path d="M927.1,431.91h3.6v36.45h-3.6v-2.9A8.75,8.75,0,0,1,920,469c-5.25,0-10.1-3.7-10.1-11,0-7.15,4.8-10.85,10.1-10.85a8.58,8.58,0,0,1,7.1,3.45Zm-13.5,26c0,4.45,2.5,7.8,6.8,7.8s6.9-3.65,6.9-7.75c0-5.35-3.7-7.7-6.9-7.7C916.85,450.31,913.6,452.91,913.6,458Z"/><path d="M952.85,450.91v17.45h-3.6V450.91h-2.2v-3.3h2.2v-7.5h3.6v7.5h3.6v3.3Z"/><path d="M967.9,466.41l-9.55-18.8h4.1l7.35,14.85,6.75-14.85h4L965.3,479.86h-4Z"/><path d="M1000.25,431.91h3.6v36.45h-3.6v-2.9a8.75,8.75,0,0,1-7.1,3.5c-5.25,0-10.1-3.7-10.1-11,0-7.15,4.8-10.85,10.1-10.85a8.58,8.58,0,0,1,7.1,3.45Zm-13.5,26c0,4.45,2.5,7.8,6.8,7.8s6.9-3.65,6.9-7.75c0-5.35-3.7-7.7-6.9-7.7C990,450.31,986.75,452.91,986.75,458Z"/><path d="M1029.05,463.06a12.41,12.41,0,0,1-2.55,3.35,10.07,10.07,0,0,1-6.9,2.55c-5,0-10.25-3.15-10.25-10.85,0-6.2,3.8-11,10-11a9.28,9.28,0,0,1,7.85,3.8,13.93,13.93,0,0,1,2,7.8h-16.15c.05,4.3,3,7.05,6.6,7.05a6.31,6.31,0,0,0,4.25-1.5,8.27,8.27,0,0,0,2.15-2.85Zm-3.55-7.35a6.21,6.21,0,0,0-6.1-5.4,6.31,6.31,0,0,0-6.1,5.4Z"/><path d="M1038.29,431.91v36.45h-3.59V431.91Z"/><path d="M1046.89,437.21a2.55,2.55,0,1,1-2.55,2.55A2.56,2.56,0,0,1,1046.89,437.21Zm1.8,10.4v20.75h-3.6V447.61Z"/><path d="M1071.39,447.61H1075v20.25c0,2.25,0,5.45-2,8.15a10.12,10.12,0,0,1-8.31,3.85,10.28,10.28,0,0,1-7.4-2.8,9.35,9.35,0,0,1-2.7-6.7h3.55a6.53,6.53,0,0,0,1.6,4.3,6.43,6.43,0,0,0,5,2,5.84,5.84,0,0,0,5.51-2.9,9.72,9.72,0,0,0,1.14-5.3v-3a8.74,8.74,0,0,1-7.1,3.5,9.94,9.94,0,0,1-7.1-2.8,11.24,11.24,0,0,1-3-8.2,10.88,10.88,0,0,1,3-8,10.23,10.23,0,0,1,7.1-2.8,8.62,8.62,0,0,1,7.1,3.45Zm-11.4,4.65a7.9,7.9,0,0,0-2.1,5.7,8,8,0,0,0,2.35,6.1,6.28,6.28,0,0,0,4.45,1.7,6.18,6.18,0,0,0,4.56-1.75,8.45,8.45,0,0,0,2.34-6,8.16,8.16,0,0,0-2.2-5.85,6.64,6.64,0,0,0-4.7-1.85A6.43,6.43,0,0,0,1060,452.26Z"/><path d="M1082.79,447.61l6.2,14,6.2-14h4l-10.2,22.1-10.2-22.1Z"/><path d="M1104.79,437.21a2.55,2.55,0,1,1-2.55,2.55A2.56,2.56,0,0,1,1104.79,437.21Zm1.8,10.4v20.75H1103V447.61Z"/><path d="M1121.94,452.41a3.18,3.18,0,0,0-2.9-2.1,2.29,2.29,0,0,0-2.5,2.35c0,1.5,1,1.95,3.35,2.95,3,1.25,4.4,2.2,5.2,3.2a4.91,4.91,0,0,1,1.1,3.35c0,4.35-3.15,6.8-7.15,6.8a7.42,7.42,0,0,1-7.25-5.3l3.1-1.3c.4,1.1,1.6,3.4,4.2,3.4a3.22,3.22,0,0,0,3.4-3.3c0-1.95-1.4-2.6-3.35-3.45-2.5-1.1-4.1-1.9-5.05-3.05a4.51,4.51,0,0,1-.95-3c0-3.65,2.55-5.8,6-5.8a6,6,0,0,1,5.7,3.75Z"/><path d="M1142.64,431.91h3.6V450a7.32,7.32,0,0,1,6-2.9,7,7,0,0,1,6,2.85c1,1.55,1.2,3.25,1.2,5.55v12.85h-3.6V455.61a6.1,6.1,0,0,0-1-3.8,4.07,4.07,0,0,0-3.4-1.5,4.54,4.54,0,0,0-3.65,1.6c-1.4,1.65-1.5,4.1-1.5,5.6v10.85h-3.6Z"/><path d="M1167.14,447.61l6.2,14,6.2-14h4l-10.2,22.1-10.2-22.1Z"/><path d="M1186,458.06a11,11,0,1,1,11,10.9A10.65,10.65,0,0,1,1186,458.06Zm3.7,0c0,5.1,3.6,7.7,7.3,7.7s7.3-2.65,7.3-7.7-3.5-7.75-7.3-7.75S1189.74,453,1189.74,458.06Z"/><path d="M1213.54,447.61h3.6v2.25a5.77,5.77,0,0,1,4.7-2.75,7.6,7.6,0,0,1,3.2.85l-1.7,3.25a3.7,3.7,0,0,0-2.1-.7,3.48,3.48,0,0,0-2.9,1.3c-.6.8-1.2,2.2-1.2,5.6v10.95h-3.6Z"/><path d="M815.3,507.61h3.6v20.25c0,2.25,0,5.45-2,8.15a10.09,10.09,0,0,1-8.3,3.85,10.28,10.28,0,0,1-7.4-2.8,9.35,9.35,0,0,1-2.7-6.7h3.55a6.53,6.53,0,0,0,1.6,4.3,6.43,6.43,0,0,0,5,2,5.82,5.82,0,0,0,5.5-2.9,9.65,9.65,0,0,0,1.15-5.3v-3a8.75,8.75,0,0,1-7.1,3.5,9.94,9.94,0,0,1-7.1-2.8,11.24,11.24,0,0,1-3-8.2,10.88,10.88,0,0,1,3-8.05,10.23,10.23,0,0,1,7.1-2.8,8.63,8.63,0,0,1,7.1,3.45Zm-11.4,4.65a7.9,7.9,0,0,0-2.1,5.7,8,8,0,0,0,2.35,6.1,6.28,6.28,0,0,0,4.45,1.7,6.14,6.14,0,0,0,4.55-1.75,8.41,8.41,0,0,0,2.35-6,8.2,8.2,0,0,0-2.2-5.85,6.65,6.65,0,0,0-4.7-1.85A6.43,6.43,0,0,0,803.9,512.26Z"/><path d="M825.7,507.61h3.6v2.25a5.77,5.77,0,0,1,4.7-2.75,7.6,7.6,0,0,1,3.2.85l-1.7,3.25a3.7,3.7,0,0,0-2.1-.7,3.48,3.48,0,0,0-2.9,1.3c-.6.8-1.2,2.2-1.2,5.6v11h-3.6Z"/><path d="M872.4,523.16a10.16,10.16,0,0,1-9.35,5.8,9.31,9.31,0,0,1-8.15-4.15,8.39,8.39,0,0,1-7.8,4.15c-4.85,0-9-2.2-9-6.75s3.85-6.85,8.65-6.85a9.66,9.66,0,0,1,6,1.75,8.48,8.48,0,0,0-1-4.4c-1-1.8-2.8-2.4-4.95-2.4a21,21,0,0,0-6.4,1.3v-3.4a19.85,19.85,0,0,1,6.45-1.1c2.3,0,6.05.4,7.85,4.2a9.1,9.1,0,0,1,8-4.2c6,0,9.9,4.45,9.9,11.25v.35h-16.2c.15,4.1,3,7,6.55,7a7.39,7.39,0,0,0,6.4-4.4Zm-30.65-.95c0,1.5,1.1,3.55,5.25,3.55s5.55-2.1,5.55-3.7c0-1.45-1.35-3.5-5.45-3.5C843.55,518.56,841.75,520.21,841.75,522.21Zm27.2-6.5a6.17,6.17,0,0,0-12.25,0Z"/><path d="M878.15,507.61h3.6V510a7.32,7.32,0,0,1,6-2.9,7,7,0,0,1,5.95,2.85c1.05,1.55,1.2,3.25,1.2,5.55v12.85h-3.6V515.61a6.1,6.1,0,0,0-1-3.8,4.07,4.07,0,0,0-3.4-1.5,4.54,4.54,0,0,0-3.65,1.6c-1.4,1.65-1.5,4.1-1.5,5.6v10.85h-3.6Z"/><path d="M910.2,512.41a3.18,3.18,0,0,0-2.9-2.1,2.29,2.29,0,0,0-2.5,2.35c0,1.5,1,2,3.35,3,3,1.25,4.4,2.2,5.2,3.2a4.91,4.91,0,0,1,1.1,3.35c0,4.35-3.15,6.8-7.15,6.8a7.42,7.42,0,0,1-7.25-5.3l3.1-1.3c.4,1.1,1.6,3.4,4.2,3.4a3.22,3.22,0,0,0,3.4-3.3c0-2-1.4-2.6-3.35-3.45-2.5-1.1-4.1-1.9-5-3a4.51,4.51,0,0,1-1-3.05c0-3.65,2.55-5.8,6.05-5.8a6,6,0,0,1,5.7,3.75Z"/><path d="M937.65,523.06a12.41,12.41,0,0,1-2.55,3.35,10.07,10.07,0,0,1-6.9,2.55c-5,0-10.25-3.15-10.25-10.85,0-6.2,3.8-11,10-11a9.28,9.28,0,0,1,7.85,3.8,13.93,13.93,0,0,1,1.95,7.8H921.65c.05,4.3,3,7,6.6,7a6.31,6.31,0,0,0,4.25-1.5,8.27,8.27,0,0,0,2.15-2.85Zm-3.55-7.35a6.21,6.21,0,0,0-6.1-5.4,6.31,6.31,0,0,0-6.1,5.4Z"/><path d="M943.3,507.61h3.6V510a7.32,7.32,0,0,1,6-2.9A7,7,0,0,1,958.8,510c1.05,1.55,1.2,3.25,1.2,5.55v12.85h-3.6V515.61a6.1,6.1,0,0,0-.95-3.8,4.07,4.07,0,0,0-3.4-1.5,4.54,4.54,0,0,0-3.65,1.6c-1.4,1.65-1.5,4.1-1.5,5.6v10.85h-3.6Z"/><path d="M994.35,507.61H998v20.25c0,2.25,0,5.45-2,8.15a10.09,10.09,0,0,1-8.3,3.85,10.28,10.28,0,0,1-7.4-2.8,9.31,9.31,0,0,1-2.71-6.7h3.56a6.16,6.16,0,0,0,6.6,6.3,5.82,5.82,0,0,0,5.5-2.9,9.65,9.65,0,0,0,1.15-5.3v-3a8.75,8.75,0,0,1-7.1,3.5,9.94,9.94,0,0,1-7.1-2.8,11.24,11.24,0,0,1-3-8.2,10.88,10.88,0,0,1,3-8.05,10.23,10.23,0,0,1,7.1-2.8,8.63,8.63,0,0,1,7.1,3.45ZM983,512.26a7.9,7.9,0,0,0-2.1,5.7,8,8,0,0,0,2.35,6.1,6.28,6.28,0,0,0,4.45,1.7A6.14,6.14,0,0,0,992.2,524a8.41,8.41,0,0,0,2.35-6,8.2,8.2,0,0,0-2.2-5.85,6.65,6.65,0,0,0-4.7-1.85A6.43,6.43,0,0,0,983,512.26Z"/><path d="M1020.64,507.61h3.61v20.75h-3.61v-2.9a8.74,8.74,0,0,1-7.1,3.5c-5.25,0-10.1-3.7-10.1-11s4.8-10.85,10.1-10.85a8.57,8.57,0,0,1,7.1,3.45ZM1007.14,518c0,4.45,2.5,7.8,6.8,7.8s6.9-3.65,6.9-7.75c0-5.35-3.7-7.7-6.9-7.7C1010.39,510.31,1007.14,512.91,1007.14,518Zm7.6-23.05a4.3,4.3,0,1,1-4.3,4.3A4.33,4.33,0,0,1,1014.74,494.91Zm0,6.4a2.1,2.1,0,1,0-2.1-2.1A2.18,2.18,0,0,0,1014.74,501.31Z"/><path d="M1031,507.61h3.6v2.25a5.77,5.77,0,0,1,4.7-2.75,7.6,7.6,0,0,1,3.2.85l-1.7,3.25a3.7,3.7,0,0,0-2.1-.7,3.48,3.48,0,0,0-2.9,1.3c-.6.8-1.2,2.2-1.2,5.6v11H1031Z"/><path d="M1047,523.46l3.3,1.2-5,11.3-2.35-1Z"/><path d="M1068.84,507.61h3.6V510a7.32,7.32,0,0,1,6-2.9,7,7,0,0,1,5.95,2.85c1.05,1.55,1.2,3.25,1.2,5.55v12.85h-3.6V515.61a6.1,6.1,0,0,0-1-3.8,4.07,4.07,0,0,0-3.4-1.5,4.54,4.54,0,0,0-3.65,1.6c-1.4,1.65-1.5,4.1-1.5,5.6v10.85h-3.6Z"/><path d="M1108.24,507.61h3.6v20.75h-3.6v-2.9a8.75,8.75,0,0,1-7.1,3.5c-5.25,0-10.1-3.7-10.1-11s4.8-10.85,10.1-10.85a8.58,8.58,0,0,1,7.1,3.45ZM1094.74,518c0,4.45,2.5,7.8,6.8,7.8s6.9-3.65,6.9-7.75c0-5.35-3.7-7.7-6.9-7.7C1098,510.31,1094.74,512.91,1094.74,518Zm7.6-23.05a4.3,4.3,0,1,1-4.3,4.3A4.33,4.33,0,0,1,1102.34,494.91Zm0,6.4a2.1,2.1,0,1,0-2.1-2.1A2.18,2.18,0,0,0,1102.34,501.31Z"/><path d="M1118.64,507.61h3.6v2.25a5.77,5.77,0,0,1,4.7-2.75,7.6,7.6,0,0,1,3.2.85l-1.7,3.25a3.7,3.7,0,0,0-2.1-.7,3.48,3.48,0,0,0-2.9,1.3c-.6.8-1.2,2.2-1.2,5.6v11h-3.6Z"/><path d="M1161,491.91h3.6v36.45H1161v-2.9a8.75,8.75,0,0,1-7.1,3.5c-5.25,0-10.1-3.7-10.1-11s4.8-10.85,10.1-10.85a8.58,8.58,0,0,1,7.1,3.45ZM1147.49,518c0,4.45,2.5,7.8,6.8,7.8s6.9-3.65,6.9-7.75c0-5.35-3.7-7.7-6.9-7.7C1150.74,510.31,1147.49,512.91,1147.49,518Z"/><path d="M1189.79,523.06a12.41,12.41,0,0,1-2.55,3.35,10.07,10.07,0,0,1-6.9,2.55c-5,0-10.25-3.15-10.25-10.85,0-6.2,3.8-11,10.05-11a9.28,9.28,0,0,1,7.85,3.8,13.93,13.93,0,0,1,2,7.8h-16.15c0,4.3,3,7,6.6,7a6.31,6.31,0,0,0,4.25-1.5,8.27,8.27,0,0,0,2.15-2.85Zm-3.55-7.35a6.21,6.21,0,0,0-6.1-5.4,6.31,6.31,0,0,0-6.1,5.4Z"/><path d="M1199.14,510.91v17.45h-3.6V510.91h-2.2v-3.3h2.2v-7.5h3.6v7.5h3.6v3.3Z"/><path d="M1217.79,491.91h3.6V510a7.32,7.32,0,0,1,5.95-2.9,7,7,0,0,1,6,2.85c1,1.55,1.2,3.25,1.2,5.55v12.85h-3.6V515.61a6.1,6.1,0,0,0-1-3.8,4.07,4.07,0,0,0-3.4-1.5,4.54,4.54,0,0,0-3.65,1.6c-1.4,1.65-1.5,4.1-1.5,5.6v10.85h-3.6Z"/><path d="M1257.19,507.61h3.6v20.75h-3.6v-2.9a8.75,8.75,0,0,1-7.1,3.5c-5.26,0-10.1-3.7-10.1-11s4.8-10.85,10.1-10.85a8.58,8.58,0,0,1,7.1,3.45ZM1243.69,518c0,4.45,2.5,7.8,6.8,7.8s6.9-3.65,6.9-7.75c0-5.35-3.7-7.7-6.9-7.7C1246.94,510.31,1243.69,512.91,1243.69,518Z"/><path d="M1267.58,507.61h3.6V510a7.32,7.32,0,0,1,6-2.9,7,7,0,0,1,5.95,2.85c1.05,1.55,1.21,3.25,1.21,5.55v12.85h-3.61V515.61a6.1,6.1,0,0,0-1-3.8,4.07,4.07,0,0,0-3.4-1.5,4.54,4.54,0,0,0-3.65,1.6c-1.4,1.65-1.5,4.1-1.5,5.6v10.85h-3.6Z"/><path d="M1307,491.91h3.6v36.45H1307v-2.9a8.75,8.75,0,0,1-7.1,3.5c-5.25,0-10.1-3.7-10.1-11s4.8-10.85,10.1-10.85a8.58,8.58,0,0,1,7.1,3.45ZM1293.48,518c0,4.45,2.5,7.8,6.8,7.8s6.9-3.65,6.9-7.75c0-5.35-3.7-7.7-6.9-7.7C1296.73,510.31,1293.48,512.91,1293.48,518Z"/><path d="M1321,491.91v36.45h-3.6V491.91Z"/><path d="M1346.18,523.06a12.41,12.41,0,0,1-2.55,3.35,10.07,10.07,0,0,1-6.9,2.55c-5,0-10.25-3.15-10.25-10.85,0-6.2,3.8-11,10-11a9.28,9.28,0,0,1,7.85,3.8,13.93,13.93,0,0,1,1.95,7.8h-16.15c0,4.3,3,7,6.6,7a6.31,6.31,0,0,0,4.25-1.5,8.27,8.27,0,0,0,2.15-2.85Zm-3.55-7.35a6.21,6.21,0,0,0-6.1-5.4,6.31,6.31,0,0,0-6.1,5.4Z"/><path d="M1351.83,507.61h3.6v2.25a5.77,5.77,0,0,1,4.7-2.75,7.6,7.6,0,0,1,3.2.85l-1.7,3.25a3.7,3.7,0,0,0-2.1-.7,3.48,3.48,0,0,0-2.9,1.3c-.6.8-1.2,2.2-1.2,5.6v11h-3.6Z"/><path d="M798.1,578.06a11,11,0,1,1,11,10.9A10.65,10.65,0,0,1,798.1,578.06Zm3.7,0c0,5.1,3.6,7.7,7.3,7.7s7.3-2.65,7.3-7.7-3.5-7.75-7.3-7.75S801.8,573,801.8,578.06Z"/><path d="M825.6,567.61h3.6v2.2a6,6,0,0,1,5.15-2.7,6.21,6.21,0,0,1,5.65,3.35,6.93,6.93,0,0,1,6.25-3.35c6.15,0,6.75,5.15,6.75,8.1v13.15h-3.6v-12.6c0-2.35-.3-5.45-3.7-5.45-4.15,0-4.6,4-4.6,6.5v11.55h-3.6v-12.3c0-1.45,0-5.75-3.75-5.75-4.1,0-4.55,4.25-4.55,6.75v11.3h-3.6Z"/><path d="M875.1,588.36h-3.6V551.91h3.6v18.6a8.92,8.92,0,0,1,7.1-3.4c6.5,0,10.1,5.4,10.1,11S888.65,589,882.35,589a8.81,8.81,0,0,1-7.25-3.5Zm13.5-10.25c0-5.1-3.45-7.8-6.8-7.8s-6.9,2.75-6.9,7.75c0,4.25,2.7,7.7,7,7.7S888.6,582.26,888.6,578.11Z"/><path d="M899.6,557.21a2.55,2.55,0,1,1-2.55,2.55A2.56,2.56,0,0,1,899.6,557.21Zm1.8,10.4v20.75h-3.6V567.61Z"/><path d="M911.8,551.91v36.45h-3.6V551.91Z"/><path d="M922.2,551.91v36.45h-3.6V551.91Z"/><path d="M947.4,583.06a12.41,12.41,0,0,1-2.55,3.35A10.07,10.07,0,0,1,938,589c-5,0-10.25-3.15-10.25-10.85,0-6.2,3.8-11,10-11a9.28,9.28,0,0,1,7.85,3.8,13.93,13.93,0,0,1,1.95,7.8H931.4c.05,4.3,3,7,6.6,7a6.31,6.31,0,0,0,4.25-1.5,8.27,8.27,0,0,0,2.15-2.85Zm-3.55-7.35a6.21,6.21,0,0,0-6.1-5.4,6.31,6.31,0,0,0-6.1,5.4Z"/><path d="M969,551.91h3.6v36.45H969v-2.9a8.75,8.75,0,0,1-7.1,3.5c-5.25,0-10.1-3.7-10.1-11s4.8-10.85,10.1-10.85a8.58,8.58,0,0,1,7.1,3.45ZM955.45,578c0,4.45,2.5,7.8,6.8,7.8s6.9-3.65,6.9-7.75c0-5.35-3.7-7.7-6.9-7.7C958.7,570.31,955.45,572.91,955.45,578Z"/><path d="M995.25,551.91h3.6v36.45h-3.6v-2.9a8.77,8.77,0,0,1-7.1,3.5c-5.26,0-10.11-3.7-10.11-11s4.8-10.85,10.11-10.85a8.58,8.58,0,0,1,7.1,3.45ZM981.75,578c0,4.45,2.5,7.8,6.79,7.8s6.91-3.65,6.91-7.75c0-5.35-3.7-7.7-6.91-7.7C985,570.31,981.75,572.91,981.75,578Z"/><path d="M1024,583.06a12.41,12.41,0,0,1-2.55,3.35,10.07,10.07,0,0,1-6.9,2.55c-5,0-10.25-3.15-10.25-10.85,0-6.2,3.8-11,10-11a9.28,9.28,0,0,1,7.85,3.8,13.93,13.93,0,0,1,2,7.8H1008c.05,4.3,3,7,6.6,7a6.31,6.31,0,0,0,4.25-1.5,8.27,8.27,0,0,0,2.15-2.85Zm-3.55-7.35a6.21,6.21,0,0,0-6.1-5.4,6.31,6.31,0,0,0-6.1,5.4Z"/><path d="M1033.29,551.91v36.45h-3.6V551.91Z"/><path d="M1041.89,557.21a2.55,2.55,0,1,1-2.55,2.55A2.56,2.56,0,0,1,1041.89,557.21Zm1.8,10.4v20.75h-3.6V567.61Z"/><path d="M1050.49,567.61h3.6V570a7.32,7.32,0,0,1,6-2.9,7,7,0,0,1,6,2.85c1,1.55,1.2,3.25,1.2,5.55v12.85h-3.6V575.61a6.1,6.1,0,0,0-.95-3.8,4.07,4.07,0,0,0-3.4-1.5,4.54,4.54,0,0,0-3.65,1.6c-1.4,1.65-1.5,4.1-1.5,5.6v10.85h-3.6Z"/><path d="M1089.89,567.61h3.6v20.25c0,2.25,0,5.45-2,8.15a10.09,10.09,0,0,1-8.3,3.85,10.28,10.28,0,0,1-7.4-2.8,9.35,9.35,0,0,1-2.7-6.7h3.55a6.53,6.53,0,0,0,1.6,4.3,6.43,6.43,0,0,0,5,2,5.82,5.82,0,0,0,5.5-2.9,9.65,9.65,0,0,0,1.15-5.3v-3a8.75,8.75,0,0,1-7.1,3.5,9.94,9.94,0,0,1-7.1-2.8,11.24,11.24,0,0,1-3-8.2,10.88,10.88,0,0,1,3-8.05,10.23,10.23,0,0,1,7.1-2.8,8.63,8.63,0,0,1,7.1,3.45Zm-11.4,4.65a7.9,7.9,0,0,0-2.1,5.7,8,8,0,0,0,2.35,6.1,6.28,6.28,0,0,0,4.45,1.7,6.14,6.14,0,0,0,4.55-1.75,8.41,8.41,0,0,0,2.35-6,8.2,8.2,0,0,0-2.2-5.85,6.65,6.65,0,0,0-4.7-1.85A6.43,6.43,0,0,0,1078.49,572.26Z"/><path d="M1102.59,583.86a2.5,2.5,0,1,1-2.5,2.5A2.54,2.54,0,0,1,1102.59,583.86Z"/></g></svg>