<svg xmlns="http://www.w3.org/2000/svg" viewBox="0 0 350 500"><defs><style>.cls-1{fill:#ff931e;}.cls-2{fill:#f47200;}</style></defs><title>Lumse</title><g id="Bilde_3" data-name="Bilde 3"><ellipse class="cls-1" cx="158" cy="317.5" rx="2.5" ry="4"/><ellipse class="cls-1" cx="154" cy="317.5" rx="2.5" ry="4"/><ellipse class="cls-2" cx="109" cy="262.41" rx="65.5" ry="75.09"/><ellipse class="cls-2" cx="207" cy="268.41" rx="65.5" ry="75.09"/><polygon class="cls-2" points="245.5 306.5 59.5 306.5 48.5 0.5 257.5 0.5 245.5 306.5"/><rect class="cls-1" x="157.5" y="236.5" width="1" height="59"/><polygon class="cls-2" points="55.5 178.5 18.5 109.5 -0.5 -0.5 48.5 0.5 55.5 178.5"/><path class="cls-1" d="M52.5,139.5l-6-40,5-100h0l2,146C53.5,145.64,52.51,139.64,52.5,139.5Z"/><polygon class="cls-2" points="290.5 102.5 250.5 173.5 257.5 0.5 313.5 0.5 290.5 102.5"/><polygon class="cls-1" points="261.5 91.5 257.5 4.5 252.5 145.5 253.5 141.5 261.5 91.5"/><polygon class="cls-2" points="148.5 499.5 65.5 500.5 63.5 317.5 152.5 317.5 148.5 499.5"/><polygon class="cls-2" points="245.5 499.5 162.5 500.5 159.5 316.5 248.5 316.5 245.5 499.5"/></g><g id="Bilde_1" data-name="Bilde 1"><path class="cls-1" d="M229.73,331.35c-12.74,0-27.72-5.55-39.83-13-7.47-4.62-15.72-11.44-14.37-15.48l.94.32c-.92,2.77,4.82,8.66,14,14.3,19.17,11.85,45.56,18.84,58.22,6.19a80.71,80.71,0,0,0,13.91-17.9l.88.5a81.31,81.31,0,0,1-14.09,18.1C244.42,329.29,237.49,331.35,229.73,331.35Z"/><rect class="cls-2" x="170" y="221" width="2" height="91"/><path class="cls-1" d="M90.28,317.37c-9.25,0-17.19-1.8-23.77-5.4-14.26-7.8-18.34-21.82-20.3-28.56-.26-.9-.48-1.67-.68-2.25l.94-.32c.21.59.43,1.37.7,2.29,1.93,6.61,5.93,20.36,19.82,28,12.6,6.9,30.39,7,52.87.43l.28,1Q103.51,317.37,90.28,317.37Z"/></g></svg>
