<svg xmlns="http://www.w3.org/2000/svg" viewBox="0 0 160.12 100"><defs><style>.cls-1{fill:#e09819;}.cls-2{fill:#fff;}.cls-3{fill:#28495e;}</style></defs><title>mere_info</title><g id="ui_elementer" data-name="ui elementer"><polygon class="cls-1" points="23.43 80.87 26.66 83.29 129.61 83.29 131.33 81.68 133 80.12 133 40.75 130.92 38.91 129.01 37.29 24.36 37.29 22.18 39.31 20.1 41.64 20.1 77.81 23.43 80.87"/><polygon class="cls-1" points="31.17 97.37 31.6 79.95 32.03 62.53 46.9 71.62 61.77 80.7 46.47 89.03 31.17 97.37"/><path class="cls-2" d="M33.53,45.62V74.1H29.86V45.62Z"/><path class="cls-2" d="M40,74.1V45.62h4L53.09,60a80.67,80.67,0,0,1,5.12,9.26l.08-.05c-.34-3.8-.42-7.26-.42-11.7V45.62h3.46V74.1H57.62l-9-14.45a91.61,91.61,0,0,1-5.32-9.51l-.13,0c.21,3.59.3,7,.3,11.74V74.1Z"/><path class="cls-2" d="M67.76,45.62H83.09v3.09H71.43v9.46H82.21v3H71.43V74.1H67.76Z"/><path class="cls-2" d="M112.67,59.57c0,9.8-6,15-13.22,15-7.52,0-12.81-5.83-12.81-14.45,0-9,5.62-15,13.23-15C107.64,45.16,112.67,51.12,112.67,59.57ZM90.57,60c0,6.09,3.3,11.54,9.09,11.54s9.12-5.37,9.12-11.83c0-5.67-3-11.58-9.08-11.58S90.57,53.78,90.57,60Z"/><polygon class="cls-3" points="3.93 37.04 7.74 38.94 129 38.94 131.04 37.67 133 36.45 133 5.58 130.55 4.13 128.3 2.87 5.02 2.87 2.45 4.45 0 6.28 0 34.64 3.93 37.04"/><polygon class="cls-3" points="5.6 52.6 5.62 35.17 5.63 17.75 20.71 26.48 35.79 35.2 20.7 43.9 5.6 52.6"/><path class="cls-2" d="M43.61,20.78c-.17-3.29-.38-7.25-.35-10.19h-.1c-.81,2.77-1.79,5.71-3,9L36,31H33.71L29.89,19.76c-1.12-3.32-2.06-6.37-2.73-9.17h-.07c-.07,2.94-.24,6.9-.45,10.43L26,31.14H23.1L24.75,7.55h3.88l4,11.41c1,2.9,1.78,5.5,2.38,8h.1c.6-2.38,1.44-5,2.49-7.95l4.2-11.41h3.88l1.47,23.59h-3Z"/><path class="cls-2" d="M64.09,20.08H54.92v8.5H65.14v2.56H51.87V7.55H64.61V10.1H54.92v7.46h9.17Z"/><path class="cls-2" d="M69.09,7.86a32.22,32.22,0,0,1,5.85-.49c3.25,0,5.35.6,6.82,1.93a5.88,5.88,0,0,1,1.86,4.48,6.2,6.2,0,0,1-4.45,6v.1c1.82.63,2.91,2.31,3.47,4.77a37.44,37.44,0,0,0,1.82,6.47H81.31a30.12,30.12,0,0,1-1.58-5.64c-.7-3.25-2-4.48-4.72-4.58H72.14V31.14h-3Zm3,10.75h3.11c3.26,0,5.32-1.79,5.32-4.48,0-3.05-2.2-4.38-5.42-4.41a12.53,12.53,0,0,0-3,.28Z"/><path class="cls-2" d="M100.14,20.08H91v8.5h10.22v2.56H87.92V7.55h12.74V10.1H91v7.46h9.17Z"/></g></svg>
