<svg xmlns="http://www.w3.org/2000/svg" width="160" height="100" viewBox="0 0 160 100"><defs><style>.cls-1{fill:#e09819;}.cls-2{fill:#fff;}.cls-3{fill:#28495e;}</style></defs><title>mere_info</title><g id="ui_elementer" data-name="ui elementer"><polygon class="cls-1" points="26.37 80.87 29.6 83.29 132.55 83.29 134.27 81.68 135.94 80.12 135.94 40.75 133.86 38.91 131.95 37.29 27.3 37.29 25.12 39.31 23.04 41.64 23.04 77.81 26.37 80.87"/><polygon class="cls-1" points="34.11 97.37 34.54 79.95 34.97 62.53 49.84 71.62 64.71 80.7 49.41 89.03 34.11 97.37"/><path class="cls-2" d="M38.29,46.72V74.9H32.8V46.72Z"/><path class="cls-2" d="M44.71,74.9V46.72h3.8l17.16,18.8V46.72h5.49V74.9h-3.8L50.2,56.06V74.9Z"/><path class="cls-2" d="M92.54,51.46H83.08v6.29H92v4.73H83.08V74.9h-5.5V46.72h15Z"/><path class="cls-2" d="M126,60.83c0,8.58-6.16,14.71-15,14.71s-15-6.13-15-14.71,6.17-14.74,15-14.74S126,52.26,126,60.83Zm-5.66,0c0-5.7-3.88-9.76-9.38-9.76s-9.38,4.06-9.38,9.76,3.89,9.72,9.38,9.72S120.34,66.54,120.34,60.83Z"/><polygon class="cls-3" points="6.87 37.04 10.68 38.94 131.94 38.94 133.98 37.67 135.94 36.45 135.94 5.58 133.49 4.13 131.24 2.87 7.96 2.87 5.39 4.45 2.94 6.28 2.94 34.64 6.87 37.04"/><polygon class="cls-3" points="8.54 52.6 8.56 35.17 8.58 17.75 23.65 26.48 38.73 35.2 23.64 43.9 8.54 52.6"/><path class="cls-2" d="M29.82,8.46h3.29l6.2,14.84L45.78,8.46h3.29L53,31.81H48.37l-2.1-14.39L40,31.81H38.47l-6-14.39L30.1,31.81H25.48Z"/><path class="cls-2" d="M70.07,12.38h-8.4v5.21h8v3.92h-8v6.38h8.4v3.92H57.12V8.46H70.07Z"/><path class="cls-2" d="M81.24,8.46c3.22,0,4.86.84,6,1.75a6.64,6.64,0,0,1,2.31,5.25A6.29,6.29,0,0,1,84.21,22l7.28,9.84H85.82l-6.23-9.39H79v9.39H74.48V8.46ZM79,19.2h1.3c.87,0,4.48-.1,4.48-3.53s-3.57-3.5-4.41-3.5H79Z"/><path class="cls-2" d="M107.52,12.38h-8.4v5.21h8v3.92h-8v6.38h8.4v3.92h-13V8.46h13Z"/></g></svg>