<svg xmlns="http://www.w3.org/2000/svg" viewBox="0 0 350 500"><defs><style>.cls-1{fill:#ff879d;}.cls-2{fill:#f47200;}.cls-3{fill:#ff931e;}</style></defs><title>Natur</title><g id="Bilde_8" data-name="Bilde 8"><ellipse class="cls-1" cx="149.5" cy="201.5" rx="70.5" ry="58.5"/><polygon class="cls-2" points="130 172 74 125 11 311 155 311 130 172"/><polygon class="cls-2" points="258 107 176 192 129 298 350 298 258 107"/><polygon class="cls-2" points="350 298 291 298 291 177 349.97 217.33 350 298"/><polygon class="cls-2" points="52 208 0 237 0 311 49 311 52 208"/><rect class="cls-1" x="150" y="80" width="3" height="56" rx="1.5"/><rect class="cls-1" x="207" y="92" width="3" height="56" rx="1.5" transform="translate(70.41 -76.98) rotate(25.05)"/><rect class="cls-1" x="104" y="87" width="3" height="56" rx="1.5" transform="translate(-30.7 38.8) rotate(-18.24)"/></g><g id="Bilde_5" data-name="Bilde 5"><rect class="cls-3" y="311" width="350" height="188"/><polygon class="cls-3" points="350 313 155 314 152 298 350 298 350 313"/></g></svg>
