<svg xmlns="http://www.w3.org/2000/svg" viewBox="0 0 80.03 90"><defs><style>.cls-1{fill:#e09819;}</style></defs><title>replay_knap </title><g id="ui_elementer" data-name="ui elementer"><path class="cls-1" d="M34.44,58a12.93,12.93,0,1,0,3.35-18A11,11,0,1,1,25.34,21.91,34.92,34.92,0,0,1,64.86,79.5a34.67,34.67,0,0,1-19.69,6.14,35.3,35.3,0,0,1-6.46-.6A34.67,34.67,0,0,1,16.3,70.46"/><path class="cls-1" d="M28.89,6.78A.66.66,0,0,1,30,6.86l9.8,20.08L49.64,47A.66.66,0,0,1,49,48L26.71,46.41,4.43,44.87a.66.66,0,0,1-.5-1L16.41,25.31Z"/></g></svg>