<svg xmlns="http://www.w3.org/2000/svg" width="70" height="70" viewBox="0 0 70 70"><defs><style>.cls-1{fill:#606060;}</style></defs><title>setting_knap_start</title><g id="ui_elementer" data-name="ui elementer"><path class="cls-1" d="M34.78,58.38A23.28,23.28,0,1,1,57.92,35.1,23.23,23.23,0,0,1,34.78,58.38Zm0-33.58A10.3,10.3,0,1,0,44.94,35.1,10.23,10.23,0,0,0,34.78,24.8Z"/><rect class="cls-1" x="27.31" y="4.31" width="15.53" height="15.96"/><rect class="cls-1" x="48.55" y="15.13" width="13.52" height="13.9" transform="translate(37.66 -34.8) rotate(51)"/><rect class="cls-1" x="7.69" y="39.12" width="15.31" height="15.74" transform="translate(42.21 5.49) rotate(51)"/><path class="cls-1" d="M7.18,14.14H23.35a0,0,0,0,1,0,0V25.36A5.39,5.39,0,0,1,18,30.75H12.57a5.39,5.39,0,0,1-5.39-5.39V14.14a0,0,0,0,1,0,0Z" transform="translate(-11.85 21.13) rotate(-53)"/><rect class="cls-1" x="47.39" y="38.48" width="15.48" height="15.91" transform="translate(-15.13 62.52) rotate(-53)"/><rect class="cls-1" x="27.76" y="51.66" width="14.62" height="15.03"/></g></svg>
