<svg xmlns="http://www.w3.org/2000/svg" viewBox="0 0 64.14 70"><defs><style>.cls-1{fill:#e09819;}</style></defs><title>setting_knap</title><g id="ui_elementer" data-name="ui elementer"><path class="cls-1" d="M31.85,58.38A23.28,23.28,0,1,1,55,35.1,23.23,23.23,0,0,1,31.85,58.38Zm0-33.58A10.3,10.3,0,1,0,42,35.1,10.23,10.23,0,0,0,31.85,24.8Z"/><rect class="cls-1" x="24.38" y="4.31" width="15.53" height="15.96"/><rect class="cls-1" x="45.62" y="15.13" width="13.52" height="13.9" transform="translate(36.57 -32.52) rotate(51)"/><rect class="cls-1" x="4.76" y="39.12" width="15.31" height="15.74" transform="translate(41.12 7.77) rotate(51)"/><path class="cls-1" d="M4.25,14.14H20.42a0,0,0,0,1,0,0V25.36A5.39,5.39,0,0,1,15,30.75H9.64a5.39,5.39,0,0,1-5.39-5.39V14.14A0,0,0,0,1,4.25,14.14Z" transform="translate(-13.01 18.79) rotate(-53)"/><rect class="cls-1" x="44.46" y="38.48" width="15.48" height="15.91" transform="translate(-16.29 60.18) rotate(-53)"/><rect class="cls-1" x="24.83" y="51.66" width="14.62" height="15.03"/></g></svg>
