<svg xmlns="http://www.w3.org/2000/svg" width="1480" height="790" viewBox="0 0 1480 790"><defs><style>.cls-1{fill:#e09819;}.cls-2{fill:#eaae4e;}.cls-3{fill:#fff;}</style></defs><title>setting_background</title><g id="setting_skærm" data-name="setting skærm"><polygon class="cls-1" points="1418.5 730 1372.22 774 94.8 774 57.5 734 8.5 684 8.5 98.42 49.5 59 92.5 17 1384.5 17 1423.5 55 1461.5 89 1461.5 691 1418.5 730"/><polygon class="cls-2" points="1352.96 711.73 1309.55 753 111.44 753 76.46 715.48 30.5 668.59 30.5 119.37 68.95 82.39 109.28 43 1321.07 43 1357.65 78.64 1393.29 110.53 1393.29 675.15 1352.96 711.73"/><polygon class="cls-3" points="1299.23 701.85 1258.05 741 121.3 741 88.1 705.4 44.5 660.91 44.5 139.81 80.98 104.73 119.25 67.36 1268.98 67.36 1303.68 101.17 1337.5 131.43 1337.5 667.14 1299.23 701.85"/></g><g id="tekst_setting" data-name="tekst setting"><path d="M202.27,172,192,192.39a25.35,25.35,0,0,0-16.79-6.9c-3,0-5.29,1.73-5.29,4s1.38,3.22,8.39,4.94c5.29,1.38,9.66,3.11,12.42,5.07,5.18,3.44,8.4,10.12,8.4,17.13,0,15.41-14.95,28-33.47,28a58.56,58.56,0,0,1-23.23-5.52c-1.61-.81-4-2-7.13-3.68l10.35-20.7a25.35,25.35,0,0,0,19.21,9.08c3.91,0,6.44-1.72,6.44-4.48s-2.19-4.26-7.25-5.41c-5.29-1-8.16-2-10.92-3.45-7.25-3.57-11-10-11-18.86,0-15.3,14-27.49,31.52-27.49a57.24,57.24,0,0,1,23.8,5.41C198.59,170.08,200.2,170.89,202.27,172Z"/><path d="M267.59,165.94l-2.41,20H242.52l-1,8.4h20.7l-2.3,19h-20.7l-1,8.74h23.46l-2.53,20.58H207.79l9.43-76.71Z"/><path d="M330.38,165.94l-3,24.15-13.22-.8-6.56,53.36H279.43L286,189.29l-13.23.8,2.88-24.15Z"/><path d="M393.75,165.94l-3,24.15-13.22-.8L371,242.65H342.8l6.55-53.36-13.22.8L339,165.94Z"/><path d="M430.43,165.94,421,242.65H392.82l9.43-76.71Z"/><path d="M523.81,165.94l-9.43,76.71H487.47L474.13,216.2a89.91,89.91,0,0,1-6.1-15.53l-.46-1.38h-.92a84,84,0,0,1,.46,9.21,71.17,71.17,0,0,1-.34,7.7l-2.42,26.45H436.41l9.43-76.71h27.94l13.57,28.87a78.74,78.74,0,0,1,4.83,13.57l.7,2.53,1.14-.12-.23-2.52c-.34-4.26-.57-7.37-.57-10.59a77.65,77.65,0,0,1,.46-9.08l1.95-22.66Z"/><path d="M615.35,198v.69c0,10.35-2.3,24.38-12.65,34.62-9.54,9.43-20.47,11.27-30.71,11.27-10.69,0-20.81-2-30-11a37.09,37.09,0,0,1-11.27-27.37,42,42,0,0,1,11.73-29.45C547.38,171.69,558,164,576.25,164c16.33,0,28.52,5.86,36.69,19.43l-26.11,10.24a11,11,0,0,0-10.24-6.44,17.28,17.28,0,0,0-11.73,4.37,21.79,21.79,0,0,0-6.32,15.76,16.37,16.37,0,0,0,4.37,11.73c3.1,3.22,6.67,4.14,10.81,4.14,3,0,9.77-.69,12.3-8.4H571.07l2.3-16.79Z"/><path d="M158.88,380.93v51.94h16V439H152.44v-58Z"/><path d="M191.5,435.57l-16.62-32.71H182l12.79,25.84,11.74-25.84h7L187,459h-7Z"/><path d="M247.79,375.54h6.27V439h-6.27v-5A15.25,15.25,0,0,1,235.44,440c-9.14,0-17.58-6.44-17.58-19.14,0-12.45,8.35-18.88,17.58-18.88a14.91,14.91,0,0,1,12.35,6ZM224.3,420.87c0,7.74,4.35,13.57,11.83,13.57,7.66,0,12-6.35,12-13.49,0-9.31-6.44-13.4-12-13.4C230,407.55,224.3,412.08,224.3,420.87Z"/><path d="M297.9,429.74a21.61,21.61,0,0,1-4.43,5.83,17.54,17.54,0,0,1-12,4.44c-8.7,0-17.84-5.48-17.84-18.88,0-10.79,6.61-19.14,17.49-19.14,7.05,0,11.49,3.48,13.66,6.61s3.57,8.79,3.39,13.57h-28.1c.09,7.48,5.22,12.27,11.49,12.27a11,11,0,0,0,7.39-2.61,14.37,14.37,0,0,0,3.74-5ZM291.73,417c-1.05-5.65-5.31-9.4-10.62-9.4A11,11,0,0,0,270.5,417Z"/><path d="M314.17,408.6V439H307.9V408.6h-3.48v-5.74h3.48V387.11c0-3.31.27-7.48,3.48-10.18a11.24,11.24,0,0,1,7.23-2.35,12.08,12.08,0,0,1,4.43.78v6.09a11.37,11.37,0,0,0-4.09-.78,4.4,4.4,0,0,0-4,1.91c-.78,1.31-.78,3.31-.78,5.22v15.06H323v5.74Z"/><path d="M336.79,408.6V439h-6.27V408.6H327v-5.74h3.48V387.11c0-3.31.26-7.48,3.48-10.18a11.23,11.23,0,0,1,7.22-2.35,12.1,12.1,0,0,1,4.44.78v6.09a11.37,11.37,0,0,0-4.09-.78,4.4,4.4,0,0,0-4,1.91c-.78,1.31-.78,3.31-.78,5.22v15.06h8.87v5.74Z"/><path d="M383.25,429.74a21.65,21.65,0,0,1-4.44,5.83,17.54,17.54,0,0,1-12,4.44c-8.7,0-17.83-5.48-17.83-18.88,0-10.79,6.61-19.14,17.48-19.14,7.05,0,11.49,3.48,13.66,6.61s3.57,8.79,3.4,13.57H355.4c.09,7.48,5.22,12.27,11.49,12.27a11,11,0,0,0,7.39-2.61,14.4,14.4,0,0,0,3.75-5ZM377.07,417c-1.05-5.65-5.31-9.4-10.62-9.4a11,11,0,0,0-10.61,9.4Z"/><path d="M399.34,375.54v40.72l13.22-13.4h8.18l-15.49,15.48L423.53,439h-8.18L400.9,422.52l-1.56,1.57V439h-6.27V375.54Z"/><path d="M436.23,408.6V439H430V408.6h-3.83v-5.74H430V389.81h6.27v13.05h6.26v5.74Z"/><path d="M480.42,429.74a21.61,21.61,0,0,1-4.43,5.83A17.54,17.54,0,0,1,464,440c-8.7,0-17.84-5.48-17.84-18.88,0-10.79,6.61-19.14,17.49-19.14,7.05,0,11.49,3.48,13.66,6.61s3.57,8.79,3.39,13.57h-28.1c.09,7.48,5.22,12.27,11.49,12.27a11,11,0,0,0,7.39-2.61,14.37,14.37,0,0,0,3.74-5ZM474.25,417c-1.05-5.65-5.31-9.4-10.62-9.4A11,11,0,0,0,453,417Z"/><path d="M490.25,402.86h6.26v3.91c.61-1,3.31-4.78,8.18-4.78a13.09,13.09,0,0,1,5.57,1.48l-3,5.65a6.4,6.4,0,0,0-3.65-1.22,6.08,6.08,0,0,0-5,2.27c-1,1.39-2.09,3.82-2.09,9.74v19h-6.26Z"/><path d="M147.44,565l9.66-61.25,22.27,49,22.71-49.08,9,61.34h-6.62L199,524.59,179.28,567.4l-19.49-42.81L154.05,565Z"/><path d="M229.22,549.91c0,2.53,0,5.48,1.74,7.75a8.64,8.64,0,0,0,12.7,0c1.74-2.27,1.74-5.22,1.74-7.75v-21h6.27v21.75c0,4.43-.44,7.74-3.31,10.87a15.74,15.74,0,0,1-22.1,0c-2.87-3.13-3.31-6.44-3.31-10.87V528.86h6.27Z"/><path d="M278.37,537.21a5.54,5.54,0,0,0-5-3.66c-2.27,0-4.35,1.31-4.35,4.09,0,2.61,1.74,3.4,5.82,5.14,5.22,2.17,7.66,3.83,9.05,5.57a8.51,8.51,0,0,1,1.92,5.82c0,7.58-5.48,11.84-12.44,11.84a12.92,12.92,0,0,1-12.62-9.22l5.39-2.27c.7,1.92,2.79,5.92,7.31,5.92a5.61,5.61,0,0,0,5.92-5.74c0-3.4-2.44-4.53-5.83-6-4.35-1.91-7.13-3.3-8.79-5.3a7.85,7.85,0,0,1-1.65-5.31c0-6.35,4.44-10.09,10.53-10.09,1.91,0,7,.34,9.92,6.52Z"/><path d="M297.25,510.76a4.44,4.44,0,1,1-4.44,4.44A4.46,4.46,0,0,1,297.25,510.76Zm3.13,18.1V565h-6.26v-36.1Z"/><path d="M318.48,501.54v40.72l13.22-13.4h8.18l-15.49,15.48L342.66,565h-8.17L320,548.52l-1.56,1.57V565h-6.27V501.54Z"/></g></svg>
