<svg xmlns="http://www.w3.org/2000/svg" width="4500" height="900" viewBox="0 0 4500 900"><defs><style>.cls-1{fill:#d3ad9b;}.cls-2{fill:#dcb7a8;}.cls-3{fill:#005574;}.cls-4{fill:#be7600;}.cls-5{fill:#00475f;}.cls-6{fill:#002c3b;}.cls-7{fill:#f59800;}.cls-8{fill:#292929;}.cls-9{fill:#39768d;}.cls-10{fill:#003d4b;}.cls-11{fill:#4a4137;}.cls-12{fill:#518da4;}.cls-13{fill:#434140;}.cls-14{fill:none;}</style></defs><title>skuldre_politi</title><g id="Layer_2" data-name="Layer 2"><polygon class="cls-1" points="635.15 798.89 647.21 794.81 784.46 794.67 803.22 794.65 816.79 802.66 818.1 820.02 810.06 828.15 789.17 835.28 729.76 838.89 646.29 838.98 631.84 839 623.03 832.41 623.09 810.07 635.15 798.89"/><polygon class="cls-1" points="623.07 811.16 635.14 799.97 647.19 795.9 784.45 795.75 803.21 795.74 816.78 803.75 817.44 812.45 818.09 821.1 810.04 829.23 789.15 836.37 729.75 839.98 646.27 840.07 631.83 840.09 623.01 833.5 623.05 817.58 623.07 811.16"/><polygon class="cls-1" points="623.05 817.58 817.44 812.45 818.09 821.1 810.04 829.23 789.15 836.37 729.75 839.98 646.27 840.07 631.83 840.09 623.01 833.5 623.05 817.58"/><polygon class="cls-1" points="634.01 800.64 646.11 798.13 784.08 798.99 802.94 799.11 816.62 804.29 818.01 815.33 809.95 820.44 788.98 824.83 729.27 826.72 645.36 826.19 630.83 826.1 621.95 821.86 621.92 807.66 634.01 800.64"/><polygon class="cls-1" points="621.91 808.35 634 801.33 646.09 798.82 784.08 799.68 802.93 799.8 816.61 804.98 817.31 810.52 818 816.02 809.94 821.13 788.97 825.52 729.27 827.41 645.34 826.89 630.82 826.79 621.94 822.55 621.91 812.43 621.91 808.35"/><polygon class="cls-1" points="621.91 812.43 817.31 810.52 818 816.02 809.94 821.13 788.97 825.52 729.27 827.41 645.34 826.89 630.82 826.79 621.94 822.55 621.91 812.43"/><polygon class="cls-2" points="620.69 810.8 789.72 823.62 789.47 828.05 782.02 836.51 763.49 843.09 711.77 843.49 639.39 838.55 626.87 837.7 619.62 829.92 620.69 810.8"/><path class="cls-3" d="M392.33,598.91V897.4c0,.87,0,1.74-.1,2.6H68.46c-.07-.86-.1-1.73-.1-2.6V598.91a33.6,33.6,0,0,1,33.5-33.5h257A33.59,33.59,0,0,1,392.33,598.91Z"/><polygon class="cls-4" points="318.4 694.58 321.29 672.96 305.11 658.33 326.56 654.39 335.48 634.49 345.86 653.67 367.54 656 352.5 671.8 356.99 693.14 337.32 683.72 318.4 694.58"/><polygon class="cls-5" points="161.59 579.5 92.01 612.97 68.36 831.96 61.01 900 -0.44 900 33.89 588.31 51.5 567.17 71.76 565.41 97.24 565.4 123.72 565.41 144.86 565.41 161.59 579.5"/><polygon class="cls-5" points="319.18 571.97 386.02 610.61 393 830.77 393.49 840.37 454.54 842 445.84 590.43 429.89 568.02 409.82 564.73 384.41 562.78 358.01 560.79 336.93 559.18 319.18 571.97"/><rect class="cls-4" x="172.39" y="538.66" width="37" height="98.75" transform="translate(758.77 832.44) rotate(131.27)"/><rect class="cls-2" x="198.58" y="493.19" width="78.38" height="109.21"/><polygon class="cls-2" points="378.94 405.53 351.6 492.29 351.24 493.44 273.5 542.98 182.12 530.96 119.84 463.01 115.8 370.93 126.94 356.41 171.91 297.79 261.89 277.83 343.66 320.38 378.94 405.53"/><polyline class="cls-6" points="403.57 351.81 304.23 430.59 178.28 416.06 99.5 316.72"/><rect class="cls-3" x="93.89" y="325.96" width="310.62" height="28.72" transform="translate(40.66 -26.33) rotate(6.58)"/><polygon class="cls-6" points="122 311.19 92.25 243.5 127.77 232.61 151.35 213.92 168.34 196.6 177.36 201.93 203.17 210.26 223.12 213.63 245.48 205.5 257.59 202.62 269.26 194.33 255.6 326.6 122 311.19"/><polygon class="cls-6" points="386.02 341.66 430.41 282.53 398.3 263.83 379.6 240.26 367 219.53 357 222.66 329.98 224.89 309.78 223.63 289.86 210.63 278.73 205.06 269.26 194.33 252.43 326.24 386.02 341.66"/><polygon class="cls-7" points="316.64 691.06 319.52 669.44 303.35 654.81 324.8 650.87 333.72 630.96 344.1 650.15 365.78 652.48 350.74 668.28 355.23 689.62 335.56 680.2 316.64 691.06"/><path class="cls-8" d="M242.61,488.75l-6.18-11.39-10-6.4-14.9.28L202,476.56l-7.15,7.35s-6.08,2.08-6.77,2-10-6.4-10-6.4l-5.71-3.27,2.7,14.64,7.06,7s7.61,4.37,9,4.51l14.55,1.47s9.19,0,9.7,1,13.17,1.34,13.17,1.34l8.33-2.75,3.3-2.36Z"/><path class="cls-8" d="M241.51,488.94l9.53-8.86,11.09-3.79,12.95,2.95,6.44,6.38,3.6,7.73s4.57,2.92,5.2,3,11.08-3.79,11.08-3.79l6.18-1.83L299.92,503l-8.72,4.85s-8.23,2.44-9.49,2.31l-13.28-1.34s-8.05-1.63-8.84-.9-12-1.21-12-1.21l-6.3-3.92-2-2.66Z"/><polygon class="cls-4" points="233.32 312.09 239.85 282.52 218.05 261.51 249.5 257.28 264.57 230.41 277.48 257.37 308.58 261.78 285.11 282.66 289.27 312.25 261.86 298.2 233.32 312.09"/><polygon class="cls-7" points="228.53 306.99 233.61 277.58 212.27 256.71 241.81 252.47 255.06 225.72 268.23 252.5 297.76 256.84 276.36 277.64 281.36 307.06 254.96 293.14 228.53 306.99"/><rect class="cls-7" x="175.91" y="534.26" width="37" height="98.75" transform="translate(761.31 822.48) rotate(131.27)"/><rect class="cls-4" x="273.73" y="539.69" width="37.05" height="92.77" transform="translate(486.89 -39.24) rotate(43.79)"/><rect class="cls-7" x="268.25" y="534.39" width="37.79" height="95.11" transform="translate(495.6 -32.6) rotate(45)"/><polygon class="cls-9" points="249.66 879.82 200.34 743.31 245.25 629.7 291.05 743.31 249.66 879.82"/><rect class="cls-9" x="218.7" y="614.08" width="51.55" height="51.55" transform="translate(482.77 -2.32) rotate(41.27)"/><rect class="cls-6" x="104.34" y="642.03" width="78.38" height="103.04"/><rect class="cls-10" x="99.94" y="636.75" width="87.19" height="36.99"/><polygon class="cls-7" points="138.07 667.66 135.65 661.54 138.94 655.82 145.45 654.83 150.29 659.3 149.81 665.87 144.37 669.59 138.07 667.66"/><polygon class="cls-11" points="209.21 483.06 220.68 478.06 222.76 475.55 219.3 474.89 212.75 476.32 207.82 479.89 206.06 483.11 209.21 483.06"/><rect class="cls-12" x="222.36" y="678.14" width="7.93" height="64.29" transform="translate(180.72 1454.36) rotate(-158.82)"/><polygon class="cls-13" points="153.22 384.46 117.47 408.95 115.57 371.22 128.92 353.82 153.22 384.46"/><polygon class="cls-13" points="342.11 400.55 370.12 433.54 379.31 406.06 368.28 379.8 342.11 400.55"/><rect class="cls-5" x="393.74" y="789.71" width="239.2" height="53.77" transform="translate(2.69 -1.68) rotate(0.19)"/><rect class="cls-14" y="0.5" width="900" height="900"/><polygon class="cls-1" points="4235.15 798.89 4247.21 794.81 4384.46 794.67 4403.22 794.65 4416.79 802.66 4418.1 820.02 4410.06 828.15 4389.17 835.28 4329.76 838.89 4246.29 838.98 4231.84 839 4223.03 832.41 4223.09 810.07 4235.15 798.89"/><polygon class="cls-1" points="4223.07 811.16 4235.14 799.97 4247.19 795.9 4384.45 795.75 4403.21 795.74 4416.78 803.75 4417.44 812.45 4418.09 821.1 4410.04 829.23 4389.15 836.37 4329.75 839.98 4246.27 840.07 4231.82 840.09 4223.01 833.5 4223.05 817.58 4223.07 811.16"/><polygon class="cls-1" points="4223.05 817.58 4417.44 812.45 4418.09 821.1 4410.04 829.23 4389.15 836.37 4329.75 839.98 4246.27 840.07 4231.82 840.09 4223.01 833.5 4223.05 817.58"/><polygon class="cls-1" points="4234.01 800.64 4246.1 798.13 4384.08 798.99 4402.94 799.11 4416.62 804.29 4418.01 815.33 4409.95 820.44 4388.98 824.83 4329.27 826.72 4245.36 826.19 4230.83 826.1 4221.95 821.86 4221.92 807.66 4234.01 800.64"/><polygon class="cls-1" points="4221.91 808.35 4234 801.33 4246.09 798.82 4384.07 799.68 4402.93 799.8 4416.61 804.98 4417.31 810.52 4418 816.02 4409.94 821.13 4388.97 825.52 4329.27 827.41 4245.34 826.89 4230.82 826.79 4221.94 822.55 4221.91 812.43 4221.91 808.35"/><polygon class="cls-1" points="4221.91 812.43 4417.31 810.52 4418 816.02 4409.94 821.13 4388.97 825.52 4329.27 827.41 4245.34 826.89 4230.82 826.79 4221.94 822.55 4221.91 812.43"/><polygon class="cls-2" points="4220.69 810.8 4389.72 823.62 4389.47 828.05 4382.02 836.51 4363.48 843.09 4311.77 843.49 4239.39 838.55 4226.87 837.7 4219.62 829.92 4220.69 810.8"/><path class="cls-3" d="M3992.33,598.91V897.4c0,.87,0,1.74-.1,2.6H3668.46c-.07-.86-.1-1.73-.1-2.6V598.91a33.6,33.6,0,0,1,33.5-33.5h257A33.59,33.59,0,0,1,3992.33,598.91Z"/><polygon class="cls-4" points="3918.4 694.58 3921.29 672.96 3905.11 658.33 3926.57 654.39 3935.48 634.49 3945.86 653.67 3967.54 656 3952.5 671.8 3956.99 693.14 3937.32 683.72 3918.4 694.58"/><polygon class="cls-5" points="3761.59 579.5 3692.01 612.97 3668.36 831.96 3661.01 900 3599.56 900 3633.89 588.31 3651.5 567.17 3671.76 565.41 3697.24 565.4 3723.72 565.41 3744.86 565.41 3761.59 579.5"/><polygon class="cls-5" points="3919.18 571.97 3986.02 610.61 3993 830.77 3993.49 840.37 4054.54 842 4045.84 590.43 4029.89 568.02 4009.82 564.73 3984.41 562.78 3958.01 560.79 3936.93 559.18 3919.18 571.97"/><rect class="cls-4" x="3772.39" y="538.66" width="37" height="98.75" transform="translate(6733.36 -1873.36) rotate(131.27)"/><rect class="cls-2" x="3798.58" y="493.19" width="78.38" height="109.21"/><polygon class="cls-2" points="3978.94 405.53 3951.6 492.29 3951.24 493.44 3873.5 542.98 3782.12 530.96 3719.84 463.01 3715.8 370.93 3726.93 356.41 3771.91 297.79 3861.89 277.83 3943.66 320.38 3978.94 405.53"/><polyline class="cls-6" points="4003.57 351.81 3904.23 430.59 3778.28 416.06 3699.5 316.72"/><rect class="cls-3" x="3693.89" y="325.96" width="310.62" height="28.72" transform="translate(64.4 -439.05) rotate(6.58)"/><polygon class="cls-6" points="3722 311.19 3692.25 243.5 3727.77 232.61 3751.35 213.92 3768.34 196.6 3777.36 201.93 3803.17 210.26 3823.12 213.63 3845.48 205.5 3857.59 202.62 3869.26 194.33 3855.6 326.6 3722 311.19"/><polygon class="cls-6" points="3986.03 341.66 4030.41 282.53 3998.3 263.83 3979.6 240.26 3967 219.53 3957.01 222.66 3929.98 224.89 3909.78 223.63 3889.86 210.63 3878.72 205.06 3869.26 194.33 3852.43 326.24 3986.03 341.66"/><polygon class="cls-7" points="3916.64 691.06 3919.53 669.44 3903.35 654.81 3924.8 650.87 3933.72 630.96 3944.1 650.15 3965.78 652.48 3950.74 668.28 3955.23 689.62 3935.56 680.2 3916.64 691.06"/><path class="cls-8" d="M3842.61,488.75l-6.18-11.39-10-6.4-14.9.28-9.56,5.32-7.15,7.35s-6.08,2.08-6.77,2-10-6.4-10-6.4l-5.71-3.27,2.7,14.64,7.06,7s7.61,4.37,9,4.51l14.55,1.47s9.19,0,9.7,1,13.17,1.34,13.17,1.34l8.33-2.75,3.3-2.36Z"/><path class="cls-8" d="M3841.51,488.94l9.53-8.86,11.09-3.79,12.95,2.95,6.44,6.38,3.6,7.73s4.57,2.92,5.2,3,11.08-3.79,11.08-3.79l6.18-1.83L3899.92,503l-8.72,4.85s-8.23,2.44-9.49,2.31l-13.28-1.34s-8-1.63-8.84-.9-12-1.21-12-1.21l-6.3-3.92-2-2.66Z"/><polygon class="cls-4" points="3833.32 312.09 3839.85 282.52 3818.05 261.51 3849.5 257.28 3864.57 230.41 3877.48 257.37 3908.59 261.78 3885.11 282.66 3889.27 312.25 3861.86 298.2 3833.32 312.09"/><polygon class="cls-7" points="3828.53 306.99 3833.61 277.58 3812.27 256.71 3841.81 252.47 3855.06 225.72 3868.23 252.5 3897.76 256.84 3876.36 277.64 3881.36 307.06 3854.96 293.14 3828.53 306.99"/><rect class="cls-7" x="3775.91" y="534.26" width="37" height="98.75" transform="translate(6735.89 -1883.32) rotate(131.27)"/><rect class="cls-4" x="3873.73" y="539.69" width="37.05" height="92.77" transform="translate(1488.27 -2530.65) rotate(43.79)"/><rect class="cls-7" x="3868.25" y="534.39" width="37.79" height="95.11" transform="translate(1550.01 -2578.18) rotate(45)"/><polygon class="cls-9" points="3849.66 879.82 3800.34 743.31 3845.26 629.7 3891.05 743.31 3849.66 879.82"/><rect class="cls-9" x="3818.7" y="614.08" width="51.55" height="51.55" transform="translate(1376.97 -2376.91) rotate(41.27)"/><rect class="cls-6" x="3704.34" y="642.03" width="78.38" height="103.04"/><rect class="cls-10" x="3699.94" y="636.75" width="87.19" height="36.99"/><polygon class="cls-7" points="3738.07 667.66 3735.65 661.54 3738.93 655.82 3745.45 654.83 3750.29 659.3 3749.81 665.87 3744.37 669.59 3738.07 667.66"/><polygon class="cls-11" points="3809.2 483.06 3820.68 478.06 3822.76 475.55 3819.3 474.89 3812.75 476.32 3807.82 479.89 3806.07 483.11 3809.2 483.06"/><rect class="cls-12" x="3822.36" y="678.14" width="7.93" height="64.29" transform="translate(7137.53 2755.06) rotate(-158.82)"/><polygon class="cls-13" points="3753.22 384.46 3717.47 408.95 3715.57 371.22 3728.92 353.82 3753.22 384.46"/><polygon class="cls-13" points="3942.11 400.55 3970.12 433.54 3979.31 406.06 3968.28 379.8 3942.11 400.55"/><rect class="cls-5" x="3993.74" y="789.71" width="239.2" height="53.77" transform="translate(2.71 -13.53) rotate(0.19)"/><rect class="cls-14" x="3600" y="0.5" width="900" height="900"/><polygon class="cls-1" points="1548.1 689.79 1560.13 685.68 1697.39 685.08 1716.15 685 1729.74 692.97 1731.11 710.32 1723.09 718.48 1702.23 725.68 1642.83 729.49 1559.36 729.85 1544.91 729.91 1536.08 723.35 1536.06 701.01 1548.1 689.79"/><polygon class="cls-1" points="1536.05 702.1 1548.09 690.88 1560.12 686.76 1697.38 686.17 1716.14 686.09 1729.73 694.06 1730.42 702.75 1731.1 711.41 1723.08 719.56 1702.22 726.76 1642.83 730.58 1559.35 730.94 1544.9 731 1536.07 724.44 1536.05 708.52 1536.05 702.1"/><polygon class="cls-1" points="1536.05 708.52 1730.42 702.75 1731.1 711.41 1723.08 719.56 1702.22 726.76 1642.83 730.58 1559.35 730.94 1544.9 731 1536.07 724.44 1536.05 708.52"/><polygon class="cls-1" points="1546.95 691.55 1559.04 689 1697.02 689.4 1715.88 689.46 1729.57 694.6 1731 705.63 1722.96 710.77 1702 715.23 1642.31 717.31 1558.39 717.07 1543.86 717.02 1534.96 712.8 1534.89 698.61 1546.95 691.55"/><polygon class="cls-1" points="1534.88 699.3 1546.95 692.24 1559.03 689.69 1697.02 690.09 1715.88 690.15 1729.57 695.29 1730.28 700.82 1730.99 706.32 1722.95 711.46 1701.99 715.92 1642.3 718 1558.38 717.76 1543.86 717.71 1534.95 713.49 1534.9 703.38 1534.88 699.3"/><polygon class="cls-1" points="1534.9 703.38 1730.28 700.82 1730.99 706.32 1722.95 711.46 1701.99 715.92 1642.3 718 1558.38 717.76 1543.86 717.71 1534.95 713.49 1534.9 703.38"/><polygon class="cls-2" points="1533.67 701.75 1702.74 714.01 1702.51 718.45 1695.08 726.93 1676.57 733.57 1624.85 734.14 1552.46 729.45 1539.94 728.63 1532.66 720.88 1533.67 701.75"/><path class="cls-3" d="M1292.33,598.91V897.4c0,.87,0,1.74-.1,2.6H968.46c-.07-.86-.1-1.73-.1-2.6V598.91a33.6,33.6,0,0,1,33.5-33.5h257A33.59,33.59,0,0,1,1292.33,598.91Z"/><polygon class="cls-5" points="1332.15 868.69 1245.78 606.01 1231.08 561.56 1250.02 547.43 1272.85 534 1302.11 546.41 1322.52 570.99 1331.58 636.23 1382 846.5 1332.15 868.69"/><polygon class="cls-4" points="1218.4 694.58 1221.29 672.96 1205.11 658.33 1226.57 654.39 1235.48 634.49 1245.86 653.67 1267.54 656 1252.5 671.8 1256.99 693.14 1237.32 683.72 1218.4 694.58"/><polygon class="cls-5" points="1061.59 579.5 992.01 612.97 968.36 831.96 961.01 900 899.56 900 933.89 588.31 951.5 567.17 970 556.5 999 552.5 1027 553.5 1044.86 565.41 1061.59 579.5"/><rect class="cls-4" x="1072.39" y="538.66" width="37" height="98.75" transform="translate(2252.42 155.99) rotate(131.27)"/><rect class="cls-2" x="1098.58" y="493.19" width="78.38" height="109.21"/><polygon class="cls-2" points="1278.94 405.53 1251.6 492.29 1251.24 493.44 1173.5 542.98 1082.12 530.96 1019.84 463.01 1015.8 370.93 1026.93 356.41 1071.91 297.79 1161.89 277.83 1243.66 320.38 1278.94 405.53"/><polyline class="cls-6" points="1303.57 351.81 1204.23 430.59 1078.28 416.06 999.5 316.72"/><rect class="cls-3" x="993.89" y="325.96" width="310.62" height="28.72" transform="translate(46.59 -129.51) rotate(6.58)"/><polygon class="cls-6" points="1022 311.19 992.25 243.5 1027.77 232.61 1051.35 213.92 1068.34 196.6 1077.36 201.93 1103.17 210.26 1123.12 213.63 1145.48 205.5 1157.59 202.62 1169.26 194.33 1155.6 326.6 1022 311.19"/><polygon class="cls-6" points="1286.03 341.66 1330.41 282.53 1298.3 263.83 1279.6 240.26 1267 219.53 1257.01 222.66 1229.98 224.89 1209.78 223.63 1189.86 210.63 1178.72 205.06 1169.26 194.33 1152.43 326.24 1286.03 341.66"/><polygon class="cls-7" points="1216.64 691.06 1219.53 669.44 1203.35 654.81 1224.8 650.87 1233.72 630.96 1244.1 650.15 1265.78 652.48 1250.74 668.28 1255.23 689.62 1235.56 680.2 1216.64 691.06"/><path class="cls-8" d="M1142.61,488.75l-6.18-11.39-10-6.4-14.9.28-9.56,5.32-7.15,7.35s-6.08,2.08-6.77,2-10-6.4-10-6.4l-5.71-3.27,2.7,14.64,7.06,7s7.61,4.37,9,4.51l14.55,1.47s9.19,0,9.7,1,13.17,1.34,13.17,1.34l8.33-2.75,3.3-2.36Z"/><path class="cls-8" d="M1141.51,488.94l9.53-8.86,11.09-3.79,12.95,2.95,6.44,6.38,3.6,7.73s4.57,2.92,5.2,3,11.08-3.79,11.08-3.79l6.18-1.83L1199.92,503l-8.72,4.85s-8.23,2.44-9.49,2.31l-13.28-1.34s-8-1.63-8.84-.9-12-1.21-12-1.21l-6.3-3.92-2-2.66Z"/><polygon class="cls-4" points="1133.32 312.09 1139.85 282.52 1118.05 261.51 1149.5 257.28 1164.57 230.41 1177.48 257.37 1208.59 261.78 1185.11 282.66 1189.27 312.25 1161.86 298.2 1133.32 312.09"/><polygon class="cls-7" points="1128.53 306.99 1133.61 277.58 1112.27 256.71 1141.81 252.47 1155.06 225.72 1168.23 252.5 1197.76 256.84 1176.36 277.64 1181.36 307.06 1154.96 293.14 1128.53 306.99"/><rect class="cls-7" x="1075.91" y="534.26" width="37" height="98.75" transform="translate(2254.96 146.03) rotate(131.27)"/><rect class="cls-4" x="1173.73" y="539.69" width="37.05" height="92.77" transform="translate(737.24 -662.09) rotate(43.79)"/><rect class="cls-7" x="1168.25" y="534.39" width="37.79" height="95.11" transform="translate(759.2 -668.99) rotate(45)"/><polygon class="cls-9" points="1149.66 879.82 1100.34 743.31 1145.26 629.7 1191.05 743.31 1149.66 879.82"/><rect class="cls-9" x="1118.7" y="614.08" width="51.55" height="51.55" transform="translate(706.32 -595.97) rotate(41.27)"/><rect class="cls-6" x="1004.34" y="642.03" width="78.38" height="103.04"/><rect class="cls-10" x="999.94" y="636.75" width="87.19" height="36.99"/><polygon class="cls-7" points="1038.07 667.66 1035.65 661.54 1038.93 655.82 1045.45 654.83 1050.29 659.3 1049.81 665.87 1044.37 669.59 1038.07 667.66"/><polygon class="cls-11" points="1109.2 483.06 1120.68 478.06 1122.76 475.55 1119.3 474.89 1112.75 476.32 1107.82 479.89 1106.07 483.11 1109.2 483.06"/><rect class="cls-12" x="1122.36" y="678.14" width="7.93" height="64.29" transform="translate(1919.92 1779.53) rotate(-158.82)"/><polygon class="cls-13" points="1053.22 384.46 1017.47 408.95 1015.57 371.22 1028.92 353.82 1053.22 384.46"/><polygon class="cls-13" points="1242.11 400.55 1270.12 433.54 1279.31 406.06 1268.28 379.8 1242.11 400.55"/><polygon class="cls-5" points="1572.8 732.63 1382 846.5 1339.88 809.16 1545.22 686.47 1572.8 732.63"/><rect class="cls-14" x="900" y="0.5" width="900" height="900"/><polygon class="cls-1" points="3348.1 689.79 3360.13 685.68 3497.39 685.08 3516.15 685 3529.74 692.97 3531.11 710.32 3523.09 718.48 3502.23 725.68 3442.83 729.49 3359.36 729.85 3344.91 729.91 3336.08 723.35 3336.06 701.01 3348.1 689.79"/><polygon class="cls-1" points="3336.05 702.1 3348.09 690.88 3360.12 686.76 3497.38 686.17 3516.14 686.09 3529.74 694.06 3530.42 702.75 3531.1 711.41 3523.08 719.56 3502.22 726.76 3442.83 730.58 3359.34 730.94 3344.9 731 3336.07 724.44 3336.05 708.52 3336.05 702.1"/><polygon class="cls-1" points="3336.05 708.52 3530.42 702.75 3531.1 711.41 3523.08 719.56 3502.22 726.76 3442.83 730.58 3359.34 730.94 3344.9 731 3336.07 724.44 3336.05 708.52"/><polygon class="cls-1" points="3346.95 691.55 3359.04 689 3497.02 689.4 3515.88 689.46 3529.57 694.6 3531 705.63 3522.96 710.77 3502 715.23 3442.3 717.31 3358.39 717.07 3343.86 717.02 3334.97 712.8 3334.89 698.61 3346.95 691.55"/><polygon class="cls-1" points="3334.88 699.3 3346.95 692.24 3359.03 689.69 3497.02 690.09 3515.88 690.15 3529.57 695.29 3530.28 700.82 3530.99 706.32 3522.95 711.46 3501.99 715.92 3442.3 718 3358.38 717.76 3343.86 717.71 3334.95 713.49 3334.9 703.38 3334.88 699.3"/><polygon class="cls-1" points="3334.9 703.38 3530.28 700.82 3530.99 706.32 3522.95 711.46 3501.99 715.92 3442.3 718 3358.38 717.76 3343.86 717.71 3334.95 713.49 3334.9 703.38"/><polygon class="cls-2" points="3333.67 701.75 3502.74 714.01 3502.51 718.45 3495.08 726.93 3476.57 733.57 3424.85 734.14 3352.46 729.45 3339.94 728.63 3332.66 720.88 3333.67 701.75"/><path class="cls-3" d="M3092.33,598.91V897.4c0,.87,0,1.74-.1,2.6H2768.46c-.07-.86-.1-1.73-.1-2.6V598.91a33.6,33.6,0,0,1,33.5-33.5h257A33.59,33.59,0,0,1,3092.33,598.91Z"/><polygon class="cls-5" points="3132.15 868.69 3045.78 606.01 3031.08 561.56 3050.02 547.43 3072.85 534 3102.11 546.41 3122.51 570.99 3131.58 636.23 3182 846.5 3132.15 868.69"/><polygon class="cls-4" points="3018.4 694.58 3021.29 672.96 3005.11 658.33 3026.57 654.39 3035.48 634.49 3045.86 653.67 3067.54 656 3052.5 671.8 3056.99 693.14 3037.32 683.72 3018.4 694.58"/><polygon class="cls-5" points="2861.59 579.5 2792.01 612.97 2768.36 831.96 2761.01 900 2699.56 900 2733.89 588.31 2751.5 567.17 2770 556.5 2799 552.5 2827 553.5 2844.86 565.41 2861.59 579.5"/><rect class="cls-4" x="2872.39" y="538.66" width="37" height="98.75" transform="translate(5239.71 -1196.91) rotate(131.27)"/><rect class="cls-2" x="2898.58" y="493.19" width="78.38" height="109.21"/><polygon class="cls-2" points="3078.94 405.53 3051.6 492.29 3051.24 493.44 2973.5 542.98 2882.12 530.96 2819.84 463.01 2815.8 370.93 2826.93 356.41 2871.91 297.79 2961.89 277.83 3043.66 320.38 3078.94 405.53"/><polyline class="cls-6" points="3103.57 351.81 3004.23 430.59 2878.28 416.06 2799.5 316.72"/><rect class="cls-3" x="2793.89" y="325.96" width="310.62" height="28.72" transform="translate(58.46 -335.87) rotate(6.58)"/><polygon class="cls-6" points="2822 311.19 2792.25 243.5 2827.77 232.61 2851.35 213.92 2868.34 196.6 2877.36 201.93 2903.17 210.26 2923.12 213.63 2945.48 205.5 2957.59 202.62 2969.26 194.33 2955.6 326.6 2822 311.19"/><polygon class="cls-6" points="3086.03 341.66 3130.41 282.53 3098.3 263.83 3079.6 240.26 3067 219.53 3057.01 222.66 3029.98 224.89 3009.78 223.63 2989.86 210.63 2978.72 205.06 2969.26 194.33 2952.43 326.24 3086.03 341.66"/><polygon class="cls-7" points="3016.64 691.06 3019.53 669.44 3003.35 654.81 3024.8 650.87 3033.72 630.96 3044.1 650.15 3065.78 652.48 3050.74 668.28 3055.23 689.62 3035.56 680.2 3016.64 691.06"/><path class="cls-8" d="M2942.61,488.75l-6.18-11.39-10-6.4-14.9.28-9.56,5.32-7.15,7.35s-6.08,2.08-6.77,2-10-6.4-10-6.4l-5.71-3.27,2.7,14.64,7.06,7s7.61,4.37,9,4.51l14.55,1.47s9.19,0,9.7,1,13.17,1.34,13.17,1.34l8.33-2.75,3.3-2.36Z"/><path class="cls-8" d="M2941.51,488.94l9.53-8.86,11.09-3.79,12.95,2.95,6.44,6.38,3.6,7.73s4.57,2.92,5.2,3,11.08-3.79,11.08-3.79l6.18-1.83L2999.92,503l-8.72,4.85s-8.23,2.44-9.49,2.31l-13.28-1.34s-8-1.63-8.84-.9-12-1.21-12-1.21l-6.3-3.92-2-2.66Z"/><polygon class="cls-4" points="2933.32 312.09 2939.85 282.52 2918.05 261.51 2949.5 257.28 2964.57 230.41 2977.48 257.37 3008.59 261.78 2985.11 282.66 2989.27 312.25 2961.86 298.2 2933.32 312.09"/><polygon class="cls-7" points="2928.53 306.99 2933.61 277.58 2912.27 256.71 2941.81 252.47 2955.06 225.72 2968.23 252.5 2997.76 256.84 2976.36 277.64 2981.36 307.06 2954.96 293.14 2928.53 306.99"/><rect class="cls-7" x="2875.91" y="534.26" width="37" height="98.75" transform="translate(5242.25 -1206.87) rotate(131.27)"/><rect class="cls-4" x="2973.73" y="539.69" width="37.05" height="92.77" transform="translate(1237.93 -1907.8) rotate(43.79)"/><rect class="cls-7" x="2968.25" y="534.39" width="37.79" height="95.11" transform="translate(1286.41 -1941.79) rotate(45)"/><polygon class="cls-9" points="2949.66 879.82 2900.34 743.31 2945.26 629.7 2991.05 743.31 2949.66 879.82"/><rect class="cls-9" x="2918.7" y="614.08" width="51.55" height="51.55" transform="translate(1153.42 -1783.26) rotate(41.27)"/><rect class="cls-6" x="2804.34" y="642.03" width="78.38" height="103.04"/><rect class="cls-10" x="2799.94" y="636.75" width="87.19" height="36.99"/><polygon class="cls-7" points="2838.07 667.66 2835.65 661.54 2838.93 655.82 2845.45 654.83 2850.29 659.3 2849.81 665.87 2844.37 669.59 2838.07 667.66"/><polygon class="cls-11" points="2909.2 483.06 2920.68 478.06 2922.76 475.55 2919.3 474.89 2912.75 476.32 2907.82 479.89 2906.07 483.11 2909.2 483.06"/><rect class="cls-12" x="2922.36" y="678.14" width="7.93" height="64.29" transform="translate(5398.33 2429.88) rotate(-158.82)"/><polygon class="cls-13" points="2853.22 384.46 2817.47 408.95 2815.57 371.22 2828.92 353.82 2853.22 384.46"/><polygon class="cls-13" points="3042.11 400.55 3070.12 433.54 3079.31 406.06 3068.28 379.8 3042.11 400.55"/><polygon class="cls-5" points="3372.8 732.63 3182 846.5 3139.89 809.16 3345.22 686.47 3372.8 732.63"/><rect class="cls-14" x="2700" y="0.5" width="900" height="900"/><polygon class="cls-1" points="2474.1 592.79 2486.13 588.68 2623.39 588.08 2642.15 588 2655.74 595.97 2657.11 613.32 2649.09 621.48 2628.23 628.68 2568.83 632.49 2485.36 632.85 2470.91 632.91 2462.08 626.35 2462.06 604.01 2474.1 592.79"/><polygon class="cls-1" points="2462.05 605.1 2474.09 593.88 2486.12 589.76 2623.38 589.17 2642.14 589.09 2655.74 597.06 2656.42 605.75 2657.1 614.41 2649.08 622.56 2628.22 629.76 2568.83 633.58 2485.34 633.94 2470.9 634 2462.07 627.44 2462.05 611.52 2462.05 605.1"/><polygon class="cls-1" points="2462.05 611.52 2656.42 605.75 2657.1 614.41 2649.08 622.56 2628.22 629.76 2568.83 633.58 2485.34 633.94 2470.9 634 2462.07 627.44 2462.05 611.52"/><polygon class="cls-1" points="2472.95 594.55 2485.04 592 2623.02 592.4 2641.88 592.46 2655.57 597.6 2657 608.63 2648.96 613.77 2628 618.23 2568.3 620.31 2484.39 620.07 2469.86 620.02 2460.97 615.8 2460.89 601.61 2472.95 594.55"/><polygon class="cls-1" points="2460.88 602.3 2472.95 595.24 2485.03 592.69 2623.02 593.09 2641.88 593.15 2655.57 598.29 2656.28 603.82 2656.99 609.32 2648.95 614.46 2627.99 618.92 2568.3 621 2484.38 620.76 2469.86 620.71 2460.95 616.49 2460.9 606.38 2460.88 602.3"/><polygon class="cls-1" points="2460.9 606.38 2656.28 603.82 2656.99 609.32 2648.95 614.46 2627.99 618.92 2568.3 621 2484.38 620.76 2469.86 620.71 2460.95 616.49 2460.9 606.38"/><polygon class="cls-2" points="2459.67 604.75 2628.74 617.01 2628.51 621.45 2621.08 629.93 2602.57 636.57 2550.85 637.14 2478.46 632.45 2465.94 631.63 2458.66 623.88 2459.67 604.75"/><path class="cls-3" d="M2192.33,598.91V897.4c0,.87,0,1.74-.1,2.6H1868.46c-.07-.86-.1-1.73-.1-2.6V598.91a33.6,33.6,0,0,1,33.5-33.5h257A33.59,33.59,0,0,1,2192.33,598.91Z"/><polygon class="cls-5" points="2238 789.5 2134.54 589.75 2113.02 548.16 2129.49 531.22 2149.92 514.36 2180.76 522.01 2204.79 543.06 2224.04 606.05 2290 761.5 2238 789.5"/><polygon class="cls-5" points="1858.35 858.66 1904.57 586.04 1953 564.5 1922 538.5 1910 527.5 1867.06 518.87 1839.98 535.51 1823.46 562.85 1824.23 628.71 1805.48 849.7 1858.35 858.66"/><polygon class="cls-4" points="2118.4 694.58 2121.29 672.96 2105.11 658.33 2126.57 654.39 2135.48 634.49 2145.86 653.67 2167.54 656 2152.5 671.8 2156.99 693.14 2137.32 683.72 2118.4 694.58"/><polygon class="cls-5" points="1961.59 579.5 1892.01 612.97 1868.36 831.96 1861.01 900 1799.56 900 1833.89 588.31 1851.5 567.17 1871.76 565.41 1897.24 565.4 1923.72 565.41 1944.86 565.41 1961.59 579.5"/><rect class="cls-4" x="1972.39" y="538.66" width="37" height="98.75" transform="translate(3746.07 -520.46) rotate(131.27)"/><rect class="cls-2" x="1998.58" y="493.19" width="78.38" height="109.21"/><polygon class="cls-2" points="2178.94 405.53 2151.6 492.29 2151.24 493.44 2073.5 542.98 1982.12 530.96 1919.84 463.01 1915.8 370.93 1926.93 356.41 1971.91 297.79 2061.89 277.83 2143.66 320.38 2178.94 405.53"/><polyline class="cls-6" points="2203.57 351.81 2104.23 430.59 1978.28 416.06 1899.5 316.72"/><rect class="cls-3" x="1893.89" y="325.96" width="310.62" height="28.72" transform="translate(52.53 -232.69) rotate(6.58)"/><polygon class="cls-6" points="1922 311.19 1892.25 243.5 1927.77 232.61 1951.35 213.92 1968.34 196.6 1977.36 201.93 2003.17 210.26 2023.12 213.63 2045.48 205.5 2057.59 202.62 2069.26 194.33 2055.6 326.6 1922 311.19"/><polygon class="cls-6" points="2186.03 341.66 2230.41 282.53 2198.3 263.83 2179.6 240.26 2167 219.53 2157.01 222.66 2129.98 224.89 2109.78 223.63 2089.86 210.63 2078.72 205.06 2069.26 194.33 2052.43 326.24 2186.03 341.66"/><polygon class="cls-7" points="2116.64 691.06 2119.53 669.44 2103.35 654.81 2124.8 650.87 2133.72 630.96 2144.1 650.15 2165.78 652.48 2150.74 668.28 2155.23 689.62 2135.56 680.2 2116.64 691.06"/><path class="cls-8" d="M2042.61,488.75l-6.18-11.39-10-6.4-14.9.28-9.56,5.32-7.15,7.35s-6.08,2.08-6.77,2-10-6.4-10-6.4l-5.71-3.27,2.7,14.64,7.06,7s7.61,4.37,9,4.51l14.55,1.47s9.19,0,9.7,1,13.17,1.34,13.17,1.34l8.33-2.75,3.3-2.36Z"/><path class="cls-8" d="M2041.51,488.94l9.53-8.86,11.09-3.79,12.95,2.95,6.44,6.38,3.6,7.73s4.57,2.92,5.2,3,11.08-3.79,11.08-3.79l6.18-1.83L2099.92,503l-8.72,4.85s-8.23,2.44-9.49,2.31l-13.28-1.34s-8-1.63-8.84-.9-12-1.21-12-1.21l-6.3-3.92-2-2.66Z"/><polygon class="cls-4" points="2033.32 312.09 2039.85 282.52 2018.05 261.51 2049.5 257.28 2064.57 230.41 2077.48 257.37 2108.59 261.78 2085.11 282.66 2089.27 312.25 2061.86 298.2 2033.32 312.09"/><polygon class="cls-7" points="2028.53 306.99 2033.61 277.58 2012.27 256.71 2041.81 252.47 2055.06 225.72 2068.23 252.5 2097.76 256.84 2076.36 277.64 2081.36 307.06 2054.96 293.14 2028.53 306.99"/><rect class="cls-7" x="1975.91" y="534.26" width="37" height="98.75" transform="translate(3748.6 -530.42) rotate(131.27)"/><rect class="cls-4" x="2073.73" y="539.69" width="37.05" height="92.77" transform="translate(987.58 -1284.95) rotate(43.79)"/><rect class="cls-7" x="2068.25" y="534.39" width="37.79" height="95.11" transform="translate(1022.81 -1305.39) rotate(45)"/><polygon class="cls-9" points="2049.66 879.82 2000.34 743.31 2045.26 629.7 2091.05 743.31 2049.66 879.82"/><rect class="cls-9" x="2018.7" y="614.08" width="51.55" height="51.55" transform="translate(929.87 -1189.61) rotate(41.27)"/><rect class="cls-6" x="1904.34" y="642.03" width="78.38" height="103.04"/><rect class="cls-10" x="1899.94" y="636.75" width="87.19" height="36.99"/><polygon class="cls-7" points="1938.07 667.66 1935.65 661.54 1938.93 655.82 1945.45 654.83 1950.29 659.3 1949.81 665.87 1944.37 669.59 1938.07 667.66"/><polygon class="cls-11" points="2009.2 483.06 2020.68 478.06 2022.76 475.55 2019.3 474.89 2012.75 476.32 2007.82 479.89 2006.07 483.11 2009.2 483.06"/><rect class="cls-12" x="2022.36" y="678.14" width="7.93" height="64.29" transform="translate(3659.13 2104.71) rotate(-158.82)"/><polygon class="cls-13" points="1953.22 384.46 1917.47 408.95 1915.57 371.22 1928.92 353.82 1953.22 384.46"/><polygon class="cls-13" points="2142.11 400.55 2170.12 433.54 2179.31 406.06 2168.28 379.8 2142.11 400.55"/><rect class="cls-5" x="2255.74" y="652.01" width="239.2" height="53.77" transform="translate(-11.96 1314.44) rotate(-30.86)"/><rect class="cls-14" x="1800" y="0.5" width="900" height="900"/></g></svg>
