<svg xmlns="http://www.w3.org/2000/svg" width="350" height="499.97" viewBox="0 0 350 499.97"><defs><style>.cls-1{fill:#fff;}.cls-2{fill:#b2b2b2;}</style></defs><title>sms_bobel_screen</title><g id="mission_skærm" data-name="mission skærm"><rect class="cls-1" y="0.05" width="350" height="499.97"/></g><g id="mission_tekst" data-name="mission tekst"><polygon class="cls-2" points="36 378.01 52.11 386.01 91.87 386.01 249 389.01 275 377.01 335 404.01 317 352.01 326 317.01 326 149.76 323 127.01 315 104.01 293 93.01 261.19 87.01 69.74 87.01 40 89.01 26 102.01 25 117.01 24.25 128.73 24.25 326.78 24.25 360.77 36 378.01"/><path d="M60.8,154.12H54v4.95h6.6v1.75H54v6.47h6.8V169H52.15V152.37H60.8Z"/><path d="M63.75,158.67h1.8v1.2a3.66,3.66,0,0,1,3-1.45,3.52,3.52,0,0,1,3,1.43,4.64,4.64,0,0,1,.6,2.77V169H70.3v-6.37a3,3,0,0,0-.48-1.9,2,2,0,0,0-1.7-.75,2.27,2.27,0,0,0-1.82.8,4.38,4.38,0,0,0-.75,2.8V169h-1.8Z"/><path d="M81.32,158.67h1.8v1.1a3,3,0,0,1,2.58-1.35,3.11,3.11,0,0,1,2.82,1.68,3.47,3.47,0,0,1,3.13-1.68c3.07,0,3.37,2.58,3.37,4.05V169h-1.8v-6.29c0-1.18-.15-2.73-1.85-2.73-2.07,0-2.3,2-2.3,3.25V169h-1.8v-6.15c0-.72,0-2.87-1.87-2.87-2.05,0-2.28,2.12-2.28,3.37V169h-1.8Z"/><path d="M106.4,158.67h1.8V169h-1.8v-1.45a4.37,4.37,0,0,1-3.55,1.75c-2.63,0-5-1.85-5-5.5s2.4-5.42,5-5.42a4.29,4.29,0,0,1,3.55,1.73Zm-6.75,5.17c0,2.23,1.25,3.9,3.4,3.9s3.45-1.82,3.45-3.87a3.52,3.52,0,0,0-3.45-3.85C101.27,160,99.65,161.32,99.65,163.84Z"/><path d="M115.87,161.07a1.59,1.59,0,0,0-1.45-1,1.15,1.15,0,0,0-1.25,1.18c0,.75.5,1,1.68,1.47a6.25,6.25,0,0,1,2.6,1.6,2.45,2.45,0,0,1,.55,1.67,3.3,3.3,0,0,1-3.58,3.4,3.71,3.71,0,0,1-3.62-2.65l1.55-.65a2.35,2.35,0,0,0,2.1,1.7,1.61,1.61,0,0,0,1.7-1.65c0-1-.7-1.3-1.68-1.72a6.63,6.63,0,0,1-2.52-1.53,2.22,2.22,0,0,1-.48-1.52,2.8,2.8,0,0,1,3-2.9,3,3,0,0,1,2.85,1.88Z"/><path d="M124.67,161.07a1.59,1.59,0,0,0-1.45-1A1.15,1.15,0,0,0,122,161.2c0,.75.5,1,1.68,1.47a6.25,6.25,0,0,1,2.6,1.6,2.45,2.45,0,0,1,.55,1.67,3.3,3.3,0,0,1-3.58,3.4,3.71,3.71,0,0,1-3.62-2.65l1.55-.65a2.35,2.35,0,0,0,2.1,1.7,1.61,1.61,0,0,0,1.7-1.65c0-1-.7-1.3-1.68-1.72a6.63,6.63,0,0,1-2.52-1.53,2.22,2.22,0,0,1-.48-1.52,2.8,2.8,0,0,1,3-2.9,3,3,0,0,1,2.85,1.88Z"/><path d="M138.4,166.39a6.15,6.15,0,0,1-1.28,1.68,5,5,0,0,1-3.45,1.27c-2.5,0-5.12-1.57-5.12-5.42,0-3.1,1.9-5.5,5-5.5a4.65,4.65,0,0,1,3.93,1.9,7,7,0,0,1,1,3.9H130.4a3.32,3.32,0,0,0,3.3,3.52,3.14,3.14,0,0,0,2.12-.75,4.13,4.13,0,0,0,1.08-1.42Zm-1.78-3.67a3.11,3.11,0,0,0-3.05-2.7,3.16,3.16,0,0,0-3,2.7Z"/><path d="M148.85,169h-1.8V150.82h1.8v9.3a4.47,4.47,0,0,1,3.54-1.7c3.25,0,5.05,2.7,5.05,5.5s-1.82,5.42-5,5.42a4.38,4.38,0,0,1-3.62-1.75Zm6.74-5.12c0-2.55-1.72-3.9-3.39-3.9a3.6,3.6,0,0,0-3.45,3.87,3.55,3.55,0,0,0,3.47,3.85C154.32,167.74,155.59,166,155.59,163.92Z"/><path d="M161.1,153.47a1.28,1.28,0,1,1-1.28,1.28A1.29,1.29,0,0,1,161.1,153.47Zm.9,5.2V169h-1.8V158.67Z"/><path d="M167.2,150.82V169h-1.8V150.82Z"/><path d="M172.4,150.82V169h-1.8V150.82Z"/><path d="M185,166.39a6.31,6.31,0,0,1-1.27,1.68,5,5,0,0,1-3.45,1.27c-2.5,0-5.12-1.57-5.12-5.42,0-3.1,1.9-5.5,5-5.5a4.63,4.63,0,0,1,3.92,1.9,7,7,0,0,1,1,3.9H177a3.31,3.31,0,0,0,3.29,3.52,3.17,3.17,0,0,0,2.13-.75,4.1,4.1,0,0,0,1.07-1.42Zm-1.77-3.67a3.11,3.11,0,0,0-3.05-2.7,3.16,3.16,0,0,0-3,2.7Z"/><path d="M195.77,150.82h1.8V169h-1.8v-1.45a4.37,4.37,0,0,1-3.55,1.75c-2.62,0-5.05-1.85-5.05-5.5s2.4-5.42,5.05-5.42a4.29,4.29,0,0,1,3.55,1.73Zm-6.75,13c0,2.23,1.25,3.9,3.4,3.9s3.45-1.82,3.45-3.87a3.52,3.52,0,0,0-3.45-3.85C190.64,160,189,161.32,189,163.84Z"/><path d="M210.17,166.39a6.15,6.15,0,0,1-1.28,1.68,5,5,0,0,1-3.45,1.27c-2.5,0-5.12-1.57-5.12-5.42,0-3.1,1.9-5.5,5-5.5a4.65,4.65,0,0,1,3.93,1.9,7,7,0,0,1,1,3.9h-8.07a3.32,3.32,0,0,0,3.3,3.52,3.14,3.14,0,0,0,2.12-.75,4.13,4.13,0,0,0,1.08-1.42Zm-1.78-3.67a3.11,3.11,0,0,0-3-2.7,3.16,3.16,0,0,0-3.05,2.7Z"/><path d="M213,158.67h1.8v1.13a2.88,2.88,0,0,1,2.35-1.38,3.73,3.73,0,0,1,1.6.43l-.85,1.62a1.88,1.88,0,0,0-1-.35,1.76,1.76,0,0,0-1.45.65,4.48,4.48,0,0,0-.6,2.8V169H213Z"/><path d="M60.9,196.39a6.15,6.15,0,0,1-1.28,1.68,5,5,0,0,1-3.45,1.27c-2.5,0-5.12-1.57-5.12-5.42,0-3.1,1.9-5.5,5-5.5a4.65,4.65,0,0,1,3.93,1.9,7,7,0,0,1,1,3.9H52.9a3.32,3.32,0,0,0,3.3,3.52,3.14,3.14,0,0,0,2.12-.75,4.13,4.13,0,0,0,1.08-1.42Zm-1.78-3.67a3.11,3.11,0,0,0-3-2.7,3.16,3.16,0,0,0-3,2.7Z"/><path d="M63.72,188.67h1.8v1.13a2.88,2.88,0,0,1,2.35-1.38,3.73,3.73,0,0,1,1.6.43l-.85,1.62a1.88,1.88,0,0,0-1.05-.35,1.76,1.76,0,0,0-1.45.65,4.48,4.48,0,0,0-.6,2.8V199h-1.8Z"/><path d="M77.45,188.67l3.1,7,3.1-7h2l-5.1,11.05-5.1-11.05Z"/><path d="M96.75,196.39a6.15,6.15,0,0,1-1.28,1.68A5,5,0,0,1,92,199.34c-2.5,0-5.12-1.57-5.12-5.42,0-3.1,1.9-5.5,5-5.5a4.65,4.65,0,0,1,3.93,1.9,7,7,0,0,1,1,3.9H88.75a3.32,3.32,0,0,0,3.3,3.52,3.14,3.14,0,0,0,2.12-.75,4.13,4.13,0,0,0,1.08-1.42ZM95,192.72a3.11,3.11,0,0,0-3-2.7,3.16,3.16,0,0,0-3,2.7Z"/><path d="M107.52,180.82h1.8V199h-1.8v-1.45a4.37,4.37,0,0,1-3.55,1.75c-2.62,0-5-1.85-5-5.5s2.4-5.42,5-5.42a4.29,4.29,0,0,1,3.55,1.73Zm-6.75,13c0,2.23,1.25,3.9,3.4,3.9s3.45-1.82,3.45-3.87a3.52,3.52,0,0,0-3.45-3.85C102.4,190,100.77,191.32,100.77,193.84Z"/><path d="M126.49,188.67h1.8V199h-1.8v-1.45a4.36,4.36,0,0,1-3.55,1.75c-2.62,0-5-1.85-5-5.5s2.39-5.42,5-5.42a4.27,4.27,0,0,1,3.55,1.73Zm-6.74,5.17c0,2.23,1.25,3.9,3.39,3.9s3.45-1.82,3.45-3.87a3.52,3.52,0,0,0-3.45-3.85C121.37,190,119.75,191.32,119.75,193.84Z"/><path d="M133.54,190.32V199h-1.79v-8.72h-1.11v-1.65h1.11v-3.75h1.79v3.75h1.8v1.65Z"/><path d="M53.5,229H51.7V210.82h1.8v9.3a4.47,4.47,0,0,1,3.55-1.7c3.25,0,5.05,2.7,5.05,5.5s-1.83,5.42-5,5.42a4.4,4.4,0,0,1-3.62-1.75Zm6.75-5.12c0-2.55-1.73-3.9-3.4-3.9a3.6,3.6,0,0,0-3.45,3.87,3.55,3.55,0,0,0,3.47,3.85C59,227.74,60.25,226,60.25,223.92Z"/><path d="M66.65,210.82V229h-1.8V210.82Z"/><path d="M71,213.47a1.28,1.28,0,1,1-1.28,1.28A1.28,1.28,0,0,1,71,213.47Zm.9,5.2V229h-1.8V218.67Z"/><path d="M75.75,218.67l3.1,7,3.1-7h2l-5.1,11.05-5.1-11.05Z"/><path d="M95.05,226.39a6.15,6.15,0,0,1-1.28,1.68,5,5,0,0,1-3.45,1.27c-2.5,0-5.12-1.57-5.12-5.42,0-3.1,1.9-5.5,5-5.5a4.65,4.65,0,0,1,3.93,1.9,7,7,0,0,1,1,3.9H87.05a3.32,3.32,0,0,0,3.3,3.52,3.14,3.14,0,0,0,2.12-.75,4.13,4.13,0,0,0,1.08-1.42Zm-1.78-3.67a3.11,3.11,0,0,0-3-2.7,3.16,3.16,0,0,0-3,2.7Z"/><path d="M104.2,218.67l3.1,7,3.1-7h2l-5.1,11.05-5.1-11.05Z"/><path d="M115.2,213.47a1.28,1.28,0,1,1-1.28,1.28A1.28,1.28,0,0,1,115.2,213.47Zm.9,5.2V229h-1.8V218.67Z"/><path d="M127.45,210.82h1.8V229h-1.8v-1.45a4.37,4.37,0,0,1-3.55,1.75c-2.63,0-5.05-1.85-5.05-5.5s2.4-5.42,5.05-5.42a4.29,4.29,0,0,1,3.55,1.73Zm-6.75,13c0,2.23,1.25,3.9,3.4,3.9s3.45-1.82,3.45-3.87A3.52,3.52,0,0,0,124.1,220C122.32,220,120.7,221.32,120.7,223.84Z"/><path d="M141.84,226.39a6.31,6.31,0,0,1-1.27,1.68,5,5,0,0,1-3.45,1.27c-2.5,0-5.12-1.57-5.12-5.42,0-3.1,1.9-5.5,5-5.5a4.67,4.67,0,0,1,3.93,1.9,7,7,0,0,1,1,3.9h-8.07a3.32,3.32,0,0,0,3.3,3.52,3.14,3.14,0,0,0,2.12-.75,4,4,0,0,0,1.07-1.42Zm-1.77-3.67a3.11,3.11,0,0,0-3-2.7,3.16,3.16,0,0,0-3.05,2.7Z"/><path d="M144.67,218.67h1.8v1.13a2.88,2.88,0,0,1,2.35-1.38,3.73,3.73,0,0,1,1.6.43l-.85,1.62a1.9,1.9,0,0,0-1-.35,1.76,1.76,0,0,0-1.45.65,4.48,4.48,0,0,0-.6,2.8V229h-1.8Z"/><path d="M156.07,221.07a1.6,1.6,0,0,0-1.45-1,1.15,1.15,0,0,0-1.25,1.18c0,.75.5,1,1.68,1.47a6.2,6.2,0,0,1,2.59,1.6,2.45,2.45,0,0,1,.55,1.67,3.29,3.29,0,0,1-3.57,3.4,3.71,3.71,0,0,1-3.62-2.65l1.55-.65a2.35,2.35,0,0,0,2.1,1.7,1.6,1.6,0,0,0,1.69-1.65c0-1-.69-1.3-1.67-1.72a6.63,6.63,0,0,1-2.52-1.53,2.22,2.22,0,0,1-.48-1.52,2.8,2.8,0,0,1,3-2.9,3,3,0,0,1,2.84,1.88Z"/><path d="M169.79,226.39a6.31,6.31,0,0,1-1.27,1.68,5,5,0,0,1-3.45,1.27c-2.5,0-5.12-1.57-5.12-5.42,0-3.1,1.9-5.5,5-5.5a4.63,4.63,0,0,1,3.92,1.9,7,7,0,0,1,1,3.9H161.8a3.31,3.31,0,0,0,3.29,3.52,3.17,3.17,0,0,0,2.13-.75,4.1,4.1,0,0,0,1.07-1.42ZM168,222.72A3.11,3.11,0,0,0,165,220a3.16,3.16,0,0,0-3.05,2.7Z"/><path d="M172.62,218.67h1.8v1.2a3.68,3.68,0,0,1,3-1.45,3.52,3.52,0,0,1,3,1.43,4.64,4.64,0,0,1,.6,2.77V229h-1.8v-6.37a3,3,0,0,0-.48-1.9A2,2,0,0,0,177,220a2.27,2.27,0,0,0-1.82.8,4.38,4.38,0,0,0-.75,2.8V229h-1.8Z"/><path d="M192.32,210.82h1.8V229h-1.8v-1.45a4.37,4.37,0,0,1-3.55,1.75c-2.62,0-5.05-1.85-5.05-5.5s2.4-5.42,5.05-5.42a4.29,4.29,0,0,1,3.55,1.73Zm-6.75,13c0,2.23,1.25,3.9,3.4,3.9s3.45-1.82,3.45-3.87A3.52,3.52,0,0,0,189,220C187.19,220,185.57,221.32,185.57,223.84Z"/><path d="M199.37,220.32V229h-1.8v-8.72h-1.1v-1.65h1.1v-3.75h1.8v3.75h1.8v1.65Z"/><path d="M204,226.79a1.25,1.25,0,0,1,0,2.5,1.25,1.25,0,0,1,0-2.5Z"/><path d="M59.6,245.67a4,4,0,0,0-1-1.25,3,3,0,0,0-1.87-.57,2.55,2.55,0,0,0-2.8,2.57,1.74,1.74,0,0,0,.62,1.45,5.41,5.41,0,0,0,1.75,1l1.6.7a8.17,8.17,0,0,1,2.58,1.58,4,4,0,0,1,1.2,3,5,5,0,0,1-5.28,5.12A4.94,4.94,0,0,1,52.8,258a6,6,0,0,1-1.55-3l1.8-.5a3.86,3.86,0,0,0,1,2.13,3.19,3.19,0,0,0,2.4.92,3.16,3.16,0,0,0,3.35-3.3,2.46,2.46,0,0,0-.83-1.94,6.89,6.89,0,0,0-2-1.15l-1.5-.7a7.29,7.29,0,0,1-2.22-1.38,3.44,3.44,0,0,1-1.15-2.72c0-2.58,2-4.3,4.67-4.3a4.53,4.53,0,0,1,2.68.75,5,5,0,0,1,1.62,1.85Z"/><path d="M66.5,250.32V259H64.7v-8.72H63.6v-1.65h1.1v-3.75h1.8v3.75h1.8v1.65Z"/><path d="M69.35,253.89a5.5,5.5,0,1,1,5.5,5.45A5.33,5.33,0,0,1,69.35,253.89Zm1.85,0A3.66,3.66,0,1,0,74.85,250,3.6,3.6,0,0,0,71.2,253.89Z"/><path d="M84.9,264.79H83.1V248.67h1.8v1.45a4.47,4.47,0,0,1,3.55-1.7c3.25,0,5,2.7,5,5.5s-1.83,5.42-5,5.42a4.4,4.4,0,0,1-3.62-1.75Zm6.75-10.87c0-2.55-1.73-3.9-3.4-3.9a3.6,3.6,0,0,0-3.45,3.87,3.55,3.55,0,0,0,3.47,3.85C90.37,257.74,91.65,256,91.65,253.92Z"/><path d="M110,240.82h1.8V259H110v-1.45a4.36,4.36,0,0,1-3.55,1.75c-2.62,0-5-1.85-5-5.5s2.4-5.42,5-5.42a4.27,4.27,0,0,1,3.55,1.73Zm-6.75,13c0,2.23,1.25,3.9,3.4,3.9s3.45-1.82,3.45-3.87a3.52,3.52,0,0,0-3.45-3.85C104.9,250,103.27,251.32,103.27,253.84Z"/><path d="M124.42,256.39a6.31,6.31,0,0,1-1.27,1.68,5,5,0,0,1-3.45,1.27c-2.5,0-5.13-1.57-5.13-5.42,0-3.1,1.9-5.5,5-5.5a4.63,4.63,0,0,1,3.92,1.9,7,7,0,0,1,1,3.9h-8.08a3.32,3.32,0,0,0,3.3,3.52,3.17,3.17,0,0,0,2.13-.75,4.1,4.1,0,0,0,1.07-1.42Zm-1.77-3.67a3.11,3.11,0,0,0-3.05-2.7,3.14,3.14,0,0,0-3,2.7Z"/><path d="M134.87,259h-1.8V240.82h1.8v9.3a4.47,4.47,0,0,1,3.55-1.7c3.25,0,5.05,2.7,5.05,5.5s-1.83,5.42-5,5.42a4.41,4.41,0,0,1-3.62-1.75Zm6.75-5.12c0-2.55-1.73-3.9-3.4-3.9a3.6,3.6,0,0,0-3.45,3.87,3.55,3.55,0,0,0,3.47,3.85C140.34,257.74,141.62,256,141.62,253.92Z"/><path d="M147.12,243.47a1.28,1.28,0,1,1-1.28,1.28A1.28,1.28,0,0,1,147.12,243.47Zm.9,5.2V259h-1.8V248.67Z"/><path d="M153.22,240.82V259h-1.8V240.82Z"/><path d="M158.42,240.82V259h-1.8V240.82Z"/><path d="M171,256.39a6.15,6.15,0,0,1-1.28,1.68,5,5,0,0,1-3.45,1.27c-2.5,0-5.12-1.57-5.12-5.42,0-3.1,1.9-5.5,5-5.5a4.65,4.65,0,0,1,3.93,1.9,7,7,0,0,1,1,3.9H163a3.32,3.32,0,0,0,3.3,3.52,3.14,3.14,0,0,0,2.12-.75,4.13,4.13,0,0,0,1.08-1.42Zm-1.78-3.67a3.11,3.11,0,0,0-3.05-2.7,3.14,3.14,0,0,0-3,2.7Z"/><path d="M181.79,240.82h1.8V259h-1.8v-1.45a4.36,4.36,0,0,1-3.55,1.75c-2.62,0-5-1.85-5-5.5s2.39-5.42,5-5.42a4.27,4.27,0,0,1,3.55,1.73Zm-6.75,13c0,2.23,1.25,3.9,3.4,3.9s3.45-1.82,3.45-3.87a3.52,3.52,0,0,0-3.45-3.85C176.67,250,175,251.32,175,253.84Z"/><path d="M196.19,256.39a6.31,6.31,0,0,1-1.27,1.68,5,5,0,0,1-3.45,1.27c-2.5,0-5.13-1.57-5.13-5.42,0-3.1,1.9-5.5,5-5.5a4.63,4.63,0,0,1,3.92,1.9,7,7,0,0,1,1,3.9h-8.08a3.32,3.32,0,0,0,3.3,3.52,3.17,3.17,0,0,0,2.13-.75,4.1,4.1,0,0,0,1.07-1.42Zm-1.77-3.67a3.11,3.11,0,0,0-3-2.7,3.14,3.14,0,0,0-3.05,2.7Z"/><path d="M199,248.67h1.8v1.13a2.86,2.86,0,0,1,2.35-1.38,3.73,3.73,0,0,1,1.6.43l-.85,1.62a1.9,1.9,0,0,0-1-.35,1.73,1.73,0,0,0-1.45.65,4.48,4.48,0,0,0-.6,2.8V259H199Z"/><path d="M220.19,240.82H222V259h-1.8v-1.45a4.36,4.36,0,0,1-3.55,1.75c-2.62,0-5-1.85-5-5.5s2.4-5.42,5-5.42a4.27,4.27,0,0,1,3.55,1.73Zm-6.75,13c0,2.23,1.25,3.9,3.4,3.9s3.45-1.82,3.45-3.87a3.52,3.52,0,0,0-3.45-3.85C215.07,250,213.44,251.32,213.44,253.84Z"/><path d="M234.59,256.39a6.31,6.31,0,0,1-1.27,1.68,5,5,0,0,1-3.45,1.27c-2.5,0-5.13-1.57-5.13-5.42,0-3.1,1.9-5.5,5-5.5a4.63,4.63,0,0,1,3.92,1.9,7,7,0,0,1,1,3.9h-8.08a3.32,3.32,0,0,0,3.3,3.52A3.17,3.17,0,0,0,232,257a4.1,4.1,0,0,0,1.07-1.42Zm-1.77-3.67a3.11,3.11,0,0,0-3-2.7,3.14,3.14,0,0,0-3.05,2.7Z"/><path d="M237.42,248.67h1.8v1.13a2.86,2.86,0,0,1,2.35-1.38,3.77,3.77,0,0,1,1.6.43l-.85,1.62a1.9,1.9,0,0,0-1-.35,1.73,1.73,0,0,0-1.45.65,4.48,4.48,0,0,0-.6,2.8V259h-1.8Z"/><path d="M251.54,243.47a1.28,1.28,0,1,1-1.28,1.28A1.28,1.28,0,0,1,251.54,243.47Zm.9,5.2V259h-1.8V248.67Z"/><path d="M257.64,240.82v11.7l3.8-3.85h2.35l-4.45,4.45,5.25,5.92h-2.35l-4.15-4.72-.45.45V259h-1.8V240.82Z"/><path d="M268.19,240.82v11.7l3.8-3.85h2.35l-4.45,4.45,5.25,5.92h-2.35l-4.15-4.72-.45.45V259h-1.8V240.82Z"/><path d="M285.89,256.39a6.15,6.15,0,0,1-1.28,1.68,5,5,0,0,1-3.45,1.27c-2.5,0-5.12-1.57-5.12-5.42,0-3.1,1.9-5.5,5-5.5a4.65,4.65,0,0,1,3.93,1.9,7,7,0,0,1,1,3.9h-8.07a3.32,3.32,0,0,0,3.3,3.52,3.14,3.14,0,0,0,2.12-.75,4.13,4.13,0,0,0,1.08-1.42Zm-1.78-3.67a3.11,3.11,0,0,0-3.05-2.7,3.16,3.16,0,0,0-3.05,2.7Z"/><path d="M51.7,278.67h1.8v1.1a3,3,0,0,1,2.57-1.35,3.11,3.11,0,0,1,2.83,1.68A3.45,3.45,0,0,1,62,278.42c3.08,0,3.38,2.58,3.38,4.05V289H63.6v-6.29c0-1.18-.15-2.73-1.85-2.73-2.08,0-2.3,2-2.3,3.25V289h-1.8v-6.15c0-.72,0-2.87-1.88-2.87-2.05,0-2.27,2.12-2.27,3.37V289H51.7Z"/><path d="M76.77,278.67h1.8V289h-1.8v-1.45a4.36,4.36,0,0,1-3.55,1.75c-2.62,0-5-1.85-5-5.5s2.4-5.42,5-5.42a4.27,4.27,0,0,1,3.55,1.73ZM70,283.84c0,2.23,1.25,3.9,3.4,3.9s3.45-1.82,3.45-3.87A3.52,3.52,0,0,0,73.42,280C71.65,280,70,281.32,70,283.84Zm3.8-11.52a2.15,2.15,0,1,1-2.15,2.15A2.17,2.17,0,0,1,73.82,272.32Zm0,3.2a1,1,0,1,0-1-1A1.09,1.09,0,0,0,73.82,275.52Z"/><path d="M92.07,281.07A1.59,1.59,0,0,0,90.62,280a1.15,1.15,0,0,0-1.25,1.18c0,.75.5,1,1.68,1.47a6.25,6.25,0,0,1,2.6,1.6,2.45,2.45,0,0,1,.55,1.67,3.3,3.3,0,0,1-3.58,3.4A3.71,3.71,0,0,1,87,286.69l1.55-.65a2.35,2.35,0,0,0,2.1,1.7,1.61,1.61,0,0,0,1.7-1.65c0-1-.7-1.3-1.68-1.72a6.63,6.63,0,0,1-2.52-1.53,2.22,2.22,0,0,1-.48-1.52,2.8,2.8,0,0,1,3-2.9,3,3,0,0,1,2.85,1.88Z"/><path d="M105.8,286.39a6.15,6.15,0,0,1-1.28,1.68,5,5,0,0,1-3.45,1.27c-2.5,0-5.12-1.57-5.12-5.42,0-3.1,1.9-5.5,5-5.5a4.65,4.65,0,0,1,3.93,1.9,7,7,0,0,1,1,3.9H97.8a3.32,3.32,0,0,0,3.3,3.52,3.14,3.14,0,0,0,2.12-.75,4.13,4.13,0,0,0,1.08-1.42ZM104,282.72a3.11,3.11,0,0,0-3-2.7,3.16,3.16,0,0,0-3,2.7Z"/><path d="M108.62,278.67h1.8v1.2a3.69,3.69,0,0,1,3-1.45,3.5,3.5,0,0,1,3,1.43,4.57,4.57,0,0,1,.6,2.77V289h-1.8v-6.37a3.07,3.07,0,0,0-.47-1.9A2,2,0,0,0,113,280a2.29,2.29,0,0,0-1.83.8,4.38,4.38,0,0,0-.75,2.8V289h-1.8Z"/><path d="M128.32,270.82h1.8V289h-1.8v-1.45a4.36,4.36,0,0,1-3.55,1.75c-2.62,0-5-1.85-5-5.5s2.4-5.42,5-5.42a4.27,4.27,0,0,1,3.55,1.73Zm-6.75,13c0,2.23,1.25,3.9,3.4,3.9s3.45-1.82,3.45-3.87A3.52,3.52,0,0,0,125,280C123.2,280,121.57,281.32,121.57,283.84Z"/><path d="M142.72,286.39a6.31,6.31,0,0,1-1.27,1.68,5,5,0,0,1-3.45,1.27c-2.5,0-5.13-1.57-5.13-5.42,0-3.1,1.9-5.5,5-5.5a4.63,4.63,0,0,1,3.92,1.9,7,7,0,0,1,1,3.9h-8.07a3.32,3.32,0,0,0,3.3,3.52,3.19,3.19,0,0,0,2.13-.75,4.1,4.1,0,0,0,1.07-1.42ZM141,282.72a3.11,3.11,0,0,0-3-2.7,3.14,3.14,0,0,0-3.05,2.7Z"/><path d="M149.82,281.07a1.6,1.6,0,0,0-1.45-1.05,1.15,1.15,0,0,0-1.25,1.18c0,.75.5,1,1.68,1.47a6.2,6.2,0,0,1,2.59,1.6,2.45,2.45,0,0,1,.55,1.67,3.29,3.29,0,0,1-3.57,3.4,3.71,3.71,0,0,1-3.62-2.65l1.55-.65a2.35,2.35,0,0,0,2.1,1.7,1.6,1.6,0,0,0,1.69-1.65c0-1-.69-1.3-1.67-1.72a6.63,6.63,0,0,1-2.52-1.53,2.22,2.22,0,0,1-.48-1.52,2.8,2.8,0,0,1,3-2.9,3,3,0,0,1,2.84,1.88Z"/><path d="M160.67,278.67l3.1,7,3.1-7h2l-5.1,11.05-5.1-11.05Z"/><path d="M171.67,273.47a1.28,1.28,0,1,1-1.28,1.28A1.28,1.28,0,0,1,171.67,273.47Zm.9,5.2V289h-1.8V278.67Z"/><path d="M183.92,270.82h1.8V289h-1.8v-1.45a4.37,4.37,0,0,1-3.55,1.75c-2.62,0-5.05-1.85-5.05-5.5s2.4-5.42,5.05-5.42a4.29,4.29,0,0,1,3.55,1.73Zm-6.75,13c0,2.23,1.25,3.9,3.4,3.9s3.45-1.82,3.45-3.87a3.52,3.52,0,0,0-3.45-3.85C178.79,280,177.17,281.32,177.17,283.84Z"/><path d="M198.32,286.39a6.15,6.15,0,0,1-1.28,1.68,5,5,0,0,1-3.45,1.27c-2.5,0-5.12-1.57-5.12-5.42,0-3.1,1.9-5.5,5-5.5a4.65,4.65,0,0,1,3.93,1.9,7,7,0,0,1,1,3.9h-8.07a3.32,3.32,0,0,0,3.3,3.52,3.14,3.14,0,0,0,2.12-.75,4.13,4.13,0,0,0,1.08-1.42Zm-1.78-3.67a3.11,3.11,0,0,0-3-2.7,3.16,3.16,0,0,0-3.05,2.7Z"/><path d="M201.14,278.67h1.8v1.13a2.88,2.88,0,0,1,2.35-1.38,3.73,3.73,0,0,1,1.6.43l-.85,1.62a1.88,1.88,0,0,0-1-.35,1.76,1.76,0,0,0-1.45.65,4.48,4.48,0,0,0-.6,2.8V289h-1.8Z"/><path d="M217.14,286.39a6.31,6.31,0,0,1-1.27,1.68,5,5,0,0,1-3.45,1.27c-2.5,0-5.13-1.57-5.13-5.42,0-3.1,1.9-5.5,5-5.5a4.63,4.63,0,0,1,3.92,1.9,7,7,0,0,1,1,3.9h-8.08a3.32,3.32,0,0,0,3.3,3.52,3.17,3.17,0,0,0,2.13-.75,4.1,4.1,0,0,0,1.07-1.42Zm-1.77-3.67a3.11,3.11,0,0,0-3.05-2.7,3.14,3.14,0,0,0-3,2.7Z"/><path d="M221.77,286.79a1.25,1.25,0,1,1,0,2.5,1.25,1.25,0,0,1,0-2.5Zm-.9-1.12v-13.3h1.8v13.3Z"/><path d="M52.85,316.79a1.25,1.25,0,1,1,0,2.5,1.25,1.25,0,0,1,0-2.5Z"/><path d="M58.55,316.79A1.25,1.25,0,1,1,57.3,318,1.28,1.28,0,0,1,58.55,316.79Z"/><path d="M64.25,316.79A1.25,1.25,0,1,1,63,318,1.28,1.28,0,0,1,64.25,316.79Z"/><path d="M70,316.79A1.25,1.25,0,1,1,68.7,318,1.27,1.27,0,0,1,70,316.79Z"/><path d="M75.65,316.79A1.25,1.25,0,1,1,74.4,318,1.27,1.27,0,0,1,75.65,316.79Z"/><path d="M81.35,316.79A1.25,1.25,0,1,1,80.1,318,1.27,1.27,0,0,1,81.35,316.79Z"/></g></svg>
