<svg xmlns="http://www.w3.org/2000/svg" viewBox="0 0 1600 900"><defs><style>.cls-1{fill:#8acce4;}.cls-2{fill:#af937a;}.cls-3{fill:#d2b7a8;}.cls-4{fill:#16222f;}.cls-5{fill:#fff;}.cls-6{fill:#8e8e8e;}.cls-7{fill:#c9ac9b;}.cls-8{fill:#ecd6c3;}.cls-9{fill:#526b7f;}.cls-10{fill:#2e5672;}</style></defs><title>spilskærm </title><g id="baggrund"><rect class="cls-1" width="1600" height="900"/></g><g id="hånd_og_mobil" data-name="hånd og mobil"><polygon class="cls-2" points="536.59 655.99 489.74 637.25 504.2 631.51 529.86 627.88 536.47 618.87 536.59 655.99"/><polygon class="cls-3" points="1168 899.98 811 899.98 777 798.93 711.01 772.92 695.59 742.92 889.01 742.98 941.12 691.01 956.88 691.52 1066.03 695.03 1168 899.98"/><polygon class="cls-3" points="1066 694.99 1096 606 1100 572 1100 474.01 1096 450.01 1034 335.01 1034 308.02 1045 278.02 1065 216.02 1073 184.03 1073 145.03 1061 138.03 1045 124.03 1022 122.03 1005 122.03 991 126.03 978 136.03 964.75 145.13 965 667.99 941 690.99 1066 694.99"/><path class="cls-4" d="M966.75,120V668c0,.2,0,.4,0,.6L890.54,744H613l-76.27-75.46c0-.17,0-.35,0-.52V120c33.5-34,55.5-55,76-76H890.47l17.67,17.48h0l58.59,58C966.75,119.65,966.75,119.83,966.75,120Z"/><path class="cls-4" d="M966.75,120V668c0,.2,0,.4,0,.6L890.54,744H752V44H890.47l17.67,17.48h0l58.59,58C966.75,119.65,966.75,119.83,966.75,120Z"/><rect class="cls-5" x="579" y="137.03" width="350" height="499.97"/><polygon class="cls-6" points="724.82 696.81 722.4 680.44 729.21 665.35 743.1 656.34 759.66 656.26 773.62 665.15 780.57 680.18 778.28 696.58 767.49 709.14 751.63 713.88 735.72 709.28 724.82 696.81"/><polygon class="cls-3" points="558 297.68 557.88 334.02 557.73 379.4 535.6 382.99 506.81 365.93 468.41 352.06 468.41 309.41 490 288.02 545 291.02 554.8 295.55 558 297.68"/><polygon class="cls-7" points="557.88 334.02 557.73 379.4 535.6 382.99 506.81 365.93 468.41 352.06 468.41 334.02 557.88 334.02"/><polygon class="cls-2" points="490 288.02 536.59 266.72 536.75 290.57 490 288.02"/><polygon class="cls-3" points="557.73 390.75 557.73 482.96 551.6 487.5 534.54 481.11 482.28 476.84 431.09 459.78 424.69 443.78 424.69 409.65 425.4 407.94 444.95 360.6 468.41 352.06 506.81 365.93 535.6 382.99 557.73 390.75"/><polygon class="cls-7" points="557.73 436.82 557.73 482.96 551.6 487.5 534.54 481.11 482.28 476.84 431.09 459.78 424.69 443.78 424.69 409.65 425.4 407.94 557.73 436.82"/><polygon class="cls-3" points="557.73 491.23 557.73 565.46 545.2 570.69 522.81 570.69 441.75 548.29 428.95 513.1 429.48 510.21 435.35 477.91 442.85 463.7 549.47 482.18 557.73 491.23"/><polygon class="cls-7" points="557.73 528.08 557.73 565.46 545.2 570.69 522.81 570.69 441.75 548.29 428.95 513.1 429.48 510.21 557.73 528.08"/><polygon class="cls-3" points="557.73 573.03 557.73 620.79 551.6 629.34 527.07 632.53 513.21 637.88 488.68 643.21 454.55 637.88 440.68 620.81 441.85 596.33 442.82 576.02 452.42 570.69 468.41 555.66 551.24 568.17 557.73 573.03"/><polygon class="cls-7" points="557.73 600.07 557.73 620.79 551.6 629.34 527.07 632.53 513.21 637.88 488.68 643.21 454.55 637.88 440.68 620.81 441.85 596.33 557.73 600.07"/><polygon class="cls-8" points="1073 145.03 1061 138.03 1054 141.03 1048 151.03 1048 176.03 1049 201.02 1050 217.02 1059.46 233.19 1064.61 217.23 1068.9 200.43 1073 184.03 1073 145.03"/><polygon class="cls-8" points="532.4 358.47 539.87 358.47 537.74 305.14 529.2 305.14 503.61 313.68 499.34 342.47 502.54 349.94 519.61 358.47 532.4 358.47"/><polygon class="cls-8" points="495.66 408.01 491.36 442.46 495.14 451.85 530.18 465.73 546.34 467.94 549.27 411.14 535.98 403.4 512.3 400.58 495.66 408.01"/><polygon class="cls-8" points="548.4 505.63 547.34 548.29 534.54 551.49 507.87 547.23 499.34 539.76 497.21 521.63 500.41 505.63 511.07 500.3 532.4 500.3 548.4 505.63"/><polygon class="cls-8" points="549.47 588.82 548.4 606.95 539.87 615.48 508.94 612.28 508.94 585.62 513.21 576.02 532.4 578.15 542 581.35 549.47 588.82"/><polygon class="cls-7" points="1060.24 802.34 955.42 900.98 811 900.98 777 799.93 711.01 773.92 695.59 743.92 889.01 743.98 940 694.99 949 685.99 1060.24 802.34"/><polygon class="cls-9" points="1241.37 901 732.5 901 721.12 869.36 791.81 843.94 792.11 843.83 1020.88 761.55 1021.15 761.45 1087.25 737.68 1171.7 707.3 1241.37 901"/><polygon class="cls-10" points="1241.37 901 1071.04 901 1070.68 899.98 1041.8 819.7 1020.88 761.55 1021.15 761.45 1087.25 737.68 1171.7 707.3 1241.37 901"/></g></svg>