<svg xmlns="http://www.w3.org/2000/svg" width="1600" height="900" viewBox="0 0 1600 900"><defs><style>.cls-1{fill:#eaae4e;}.cls-2{fill:#af937a;}.cls-3{fill:#d2b7a8;}.cls-4{fill:#16222f;}.cls-5{fill:#fff;}.cls-6{fill:#8e8e8e;}.cls-7{fill:#c9ac9b;}.cls-8{fill:#ecd6c3;}.cls-9{fill:#526b7f;}.cls-10{fill:#2e5672;}.cls-11{fill:#ad751a;}.cls-12{fill:#28495e;}.cls-13{fill:#16303d;}.cls-14{fill:#e09819;}.cls-15{fill:#2d2d2d;}.cls-16{fill:#444342;}.cls-17{fill:#51758c;}.cls-18{fill:#1d3f4c;}.cls-19{fill:#49433a;}.cls-20{fill:#678da3;}.cls-21{fill:#dc8f39;}.cls-22{fill:#d7711b;}.cls-23{fill:#e5912f;}.cls-24{fill:#e3859a;}.cls-25{fill:#fcfcfc;}</style></defs><title>start_background</title><g id="Layer_14" data-name="Layer 14"><rect class="cls-1" x="-1" width="1600" height="900"/></g><g id="startskærm"><polygon class="cls-2" points="1046.44 710.88 1009.7 696.18 1021.04 691.67 1041.16 688.83 1046.34 681.76 1046.44 710.88"/><polygon class="cls-3" points="1541.57 902.2 1261.62 902.2 1234.96 822.96 1183.21 802.56 1171.12 779.04 1322.79 779.09 1363.65 738.34 1376.01 738.74 1461.61 741.49 1541.57 902.2"/><polygon class="cls-3" points="1461.58 741.46 1485.11 671.67 1488.24 645.01 1488.24 568.17 1485.11 549.35 1436.49 459.18 1436.49 438 1445.11 414.48 1460.8 365.87 1467.07 340.77 1467.07 310.19 1457.66 304.71 1445.11 293.73 1427.08 292.16 1413.75 292.16 1402.77 295.3 1392.58 303.14 1382.18 310.27 1382.38 720.28 1363.56 738.32 1461.58 741.46"/><path class="cls-4" d="M1383.75,290.58V720.77L1324,779.88H1106.38l-59.81-59.17c0-.14,0-.28,0-.41V290.58c26.27-26.65,43.52-43.11,59.58-59.58h217.8l13.85,13.71h0l46,45.44Z"/><path class="cls-4" d="M1383.75,290.58V720.77L1324,779.88H1215.35V231h108.59l13.85,13.71h0l46,45.44Z"/><rect class="cls-5" x="1079.69" y="303.92" width="274.46" height="392.06"/><polygon class="cls-6" points="1194.04 742.88 1192.14 730.04 1197.48 718.21 1208.37 711.14 1221.36 711.09 1232.31 718.06 1237.76 729.84 1235.96 742.7 1227.5 752.55 1215.06 756.26 1202.59 752.66 1194.04 742.88"/><polygon class="cls-3" points="1063.23 429.9 1063.13 458.39 1063.02 493.98 1045.66 496.8 1023.09 483.42 992.97 472.55 992.97 439.1 1009.9 422.32 1053.03 424.68 1060.72 428.23 1063.23 429.9"/><polygon class="cls-7" points="1063.13 458.39 1063.02 493.98 1045.66 496.8 1023.09 483.42 992.97 472.55 992.97 458.39 1063.13 458.39"/><polygon class="cls-2" points="1009.9 422.32 1046.44 405.62 1046.56 424.32 1009.9 422.32"/><polygon class="cls-3" points="1063.02 502.88 1063.02 575.18 1058.21 578.75 1044.83 573.73 1003.85 570.39 963.71 557.01 958.69 544.46 958.69 517.7 959.25 516.36 974.58 479.24 992.97 472.55 1023.09 483.42 1045.66 496.8 1063.02 502.88"/><polygon class="cls-7" points="1063.02 539.01 1063.02 575.18 1058.21 578.75 1044.83 573.73 1003.85 570.39 963.71 557.01 958.69 544.46 958.69 517.7 959.25 516.36 1063.02 539.01"/><polygon class="cls-3" points="1063.02 581.67 1063.02 639.88 1053.19 643.98 1035.63 643.98 972.07 626.42 962.03 598.83 962.45 596.56 967.05 571.23 972.93 560.08 1056.54 574.57 1063.02 581.67"/><polygon class="cls-7" points="1063.02 610.57 1063.02 639.88 1053.19 643.98 1035.63 643.98 972.07 626.42 962.03 598.83 962.45 596.56 1063.02 610.57"/><polygon class="cls-3" points="1063.02 645.82 1063.02 683.27 1058.21 689.97 1038.97 692.48 1028.1 696.67 1008.87 700.85 982.11 696.67 971.23 683.28 972.15 664.09 972.91 648.16 980.43 643.98 992.97 632.2 1057.93 642.01 1063.02 645.82"/><polygon class="cls-7" points="1063.02 667.02 1063.02 683.27 1058.21 689.97 1038.97 692.48 1028.1 696.67 1008.87 700.85 982.11 696.67 971.23 683.28 972.15 664.09 1063.02 667.02"/><polygon class="cls-8" points="1467.07 310.19 1457.66 304.71 1452.17 307.06 1447.47 314.9 1447.47 334.5 1448.25 354.11 1449.04 366.65 1456.45 379.33 1460.49 366.81 1463.86 353.64 1467.07 340.77 1467.07 310.19"/><polygon class="cls-8" points="1043.15 477.56 1049.01 477.56 1047.34 435.75 1040.65 435.75 1020.58 442.44 1017.23 465.02 1019.74 470.88 1033.12 477.56 1043.15 477.56"/><polygon class="cls-8" points="1014.34 516.41 1010.97 543.43 1013.93 550.79 1041.41 561.68 1054.09 563.41 1056.38 518.87 1045.96 512.8 1027.39 510.59 1014.34 516.41"/><polygon class="cls-8" points="1055.7 592.97 1054.86 626.42 1044.83 628.93 1023.92 625.58 1017.23 619.73 1015.56 605.51 1018.07 592.97 1026.43 588.79 1043.15 588.79 1055.7 592.97"/><polygon class="cls-8" points="1056.54 658.2 1055.7 672.41 1049.01 679.1 1024.76 676.6 1024.76 655.69 1028.1 648.16 1043.15 649.83 1050.68 652.34 1056.54 658.2"/><polygon class="cls-7" points="1457.07 825.64 1374.87 902.98 1261.62 902.98 1234.96 823.75 1183.21 803.35 1171.12 779.82 1322.79 779.87 1362.78 741.46 1369.83 734.4 1457.07 825.64"/><polygon class="cls-9" points="1599.1 903 1200.06 903 1191.14 878.19 1246.57 858.26 1246.81 858.17 1426.2 793.65 1426.41 793.57 1478.24 774.93 1544.47 751.11 1599.1 903"/><polygon class="cls-10" points="1599.1 903 1465.53 903 1465.25 902.2 1442.61 839.25 1426.2 793.65 1426.41 793.57 1478.24 774.93 1544.47 751.11 1599.1 903"/><path class="cls-10" d="M391.68,604.38,393,1041.13c0,1.57,0,3.15-.15,4.69l-457.17,1.37c-.12-1.54-.18-3.12-.18-4.69l-1.31-436.75c-.1-33,24.84-60,55.4-60.12l346.34-1C366.5,544.5,391.58,571.4,391.68,604.38Z"/><polygon class="cls-11" points="287.65 727.15 291.63 696.61 268.73 676.01 299.01 670.36 311.52 642.21 326.25 669.26 356.88 672.46 335.71 694.83 342.13 724.96 314.31 711.73 287.65 727.15"/><polygon class="cls-12" points="65.72 566.86 -32.38 618.12 -64.78 951.79 -74.06 1047.21 -160.81 1047.47 -114.58 580.82 -89.8 548.56 -61.2 545.79 -25.22 545.66 12.18 545.57 42.03 545.48 65.72 566.86"/><polygon class="cls-12" points="263.89 565.45 362 616.71 394.4 950.38 403.67 1045.8 490.43 1046.06 444.19 579.41 419.41 547.15 390.82 544.38 354.83 544.25 317.43 544.16 287.58 544.07 263.89 565.45"/><rect class="cls-11" x="81" y="507.5" width="52.25" height="139.46" transform="translate(612.54 875.95) rotate(131.1)"/><rect class="cls-3" x="117.82" y="443.1" width="110.69" height="154.22" transform="translate(-1.56 0.52) rotate(-0.17)"/><polygon class="cls-3" points="360.73 273.96 346.28 401.6 346.08 403.3 251.72 492.97 121.8 500.99 17.12 423.64 -13.35 297.1 -1.84 273.97 44.65 180.56 163.99 128.58 288.82 165.47 360.73 273.96"/><polygon class="cls-7" points="346.31 403.38 253.14 491.81 68.69 170.17 164.37 128.56 289.18 165.52 361.03 274.06 346.31 403.38"/><polyline class="cls-13" points="333.27 160.03 245.98 316.35 73.72 365.16 -82.61 277.87"/><rect class="cls-10" x="-93.79" y="207.83" width="438.64" height="40.56" transform="translate(-57.43 42.86) rotate(-15.82)"/><polygon class="cls-13" points="-56.22 258.53 -131.48 186.18 -90.97 152.84 -70.25 115.74 -57.39 83.99 -42.74 86.09 -4.56 83.08 23.31 76.74 48.12 54.1 62.38 43.81 73.15 26.71 126.51 206.76 -56.22 258.53"/><polygon class="cls-13" points="304.89 156.21 331.01 55.13 279.03 48 241.94 27.28 214.33 7 202.96 16.47 168.88 33.93 141.82 43.16 108.82 36.9 91.28 35.62 73.15 26.71 122.17 207.99 304.89 156.21"/><polygon class="cls-14" points="285.15 722.18 289.13 691.64 266.23 671.04 296.5 665.39 309.01 637.25 323.75 664.3 354.38 667.5 333.21 689.87 339.63 719.99 311.81 706.76 285.15 722.18"/><path class="cls-15" d="M225.92,429.19,212.28,417l-16.36-3.76-19.68,7.47-10.19,11.61-6,13.18s-7.09,5.65-8,5.89-16.36-3.75-16.36-3.75L126.49,446,137,464.15l12.73,6s12.18,2.18,14.09,1.71l20.05-4.95s12.23-4.32,13.36-3.31,18.14-4.48,18.14-4.48l9.78-7.61,3.27-4.71Z"/><path class="cls-15" d="M225,432.49,232.49,418,244,408.78l16.58-2,10.34,4.83,7.53,7.64s6.65,1.52,7.42,1.33,11.53-9.18,11.53-9.18l6.54-4.78-3.85,17.83-8.28,9.44s-8.72,6.37-10.27,6.76l-16.28,4s-10.23,1.48-10.86,2.69S239.67,451,239.67,451l-9.12-2L227,446.76Z"/><polygon class="cls-16" points="272.1 269.56 333.5 280.93 355.25 322.34 360.85 274.63 311.43 199.13 272.1 269.56"/><polygon class="cls-16" points="32.05 341.89 7.56 383.93 -7.94 319.56 32.05 341.89"/><polygon class="cls-11" points="89.61 199.79 82.22 157.68 42.46 141.97 81.24 119.53 86.45 76.34 117.81 104.58 160.8 93.6 141.39 133.5 162.75 169.9 119.39 166.31 89.61 199.79"/><polygon class="cls-14" points="85.86 193.59 77.48 152.28 38.71 135.77 75.4 115.03 79.12 73.05 110.18 101.54 151.26 92.11 133.76 130.45 155.43 166.61 113.55 161.81 85.86 193.59"/><rect class="cls-14" x="85.96" y="501.27" width="52.25" height="139.46" transform="translate(616.06 861.88) rotate(131.1)"/><rect class="cls-11" x="224.11" y="508.52" width="52.32" height="131.01" transform="translate(465.12 -14.17) rotate(43.62)"/><rect class="cls-14" x="216.35" y="501.06" width="53.37" height="134.32" transform="translate(471.25 -6.11) rotate(44.83)"/><polygon class="cls-17" points="191.35 989.02 121.13 796.46 184.08 635.84 249.23 796.08 191.35 989.02"/><rect class="cls-17" x="146.62" y="613.77" width="72.8" height="72.8" transform="translate(472.49 39.91) rotate(41.1)"/><rect class="cls-13" x="-14.64" y="653.68" width="110.69" height="145.51" transform="translate(-2.18 0.13) rotate(-0.17)"/><rect class="cls-18" x="-21.02" y="646.21" width="123.13" height="52.24" transform="translate(-2.01 0.12) rotate(-0.17)"/><polygon class="cls-14" points="34.51 682.79 31.07 674.15 35.68 666.07 44.87 664.63 51.72 670.93 51.07 680.21 43.41 685.49 34.51 682.79"/><polygon class="cls-19" points="176.62 433.48 191.18 423.45 193.38 419.4 188.4 419.42 179.71 423.18 173.85 429.45 172.28 434.39 176.62 433.48"/><rect class="cls-20" x="152.08" y="704.32" width="11.19" height="90.79" transform="translate(36.1 1506.12) rotate(-158.99)"/><path class="cls-21" d="M1353.05,476.63,1324.33,492c-1.88-22.06-12.49-49.22-20.39-69.66q-1.31-3.36-2.68-6.6l-6.56-80.82a17.22,17.22,0,0,0,7.94-7.07L1354,391l-.91-42.75-22.62-43.7h-38.62a12.42,12.42,0,0,0-4.3,0H1167.82l0,0-46.49,0L1080,398.15l.39,57.35,77-132.9a16.41,16.41,0,0,0,9.06,12.7l-11.16,89.28c-11.87,23-19.07,54.53-19.07,75.78v4.06l-3.9-1.72L1080,472.27V619.74h0c0,.13,0,.26,0,.39,0,24.78,30.92,44.87,69,44.87,33.69,0,61.74-15.67,67.83-36.41,8.3,18.77,35,32.51,66.77,32.51,36.52,0,66.46-18.22,69.23-41.36h.21v-103h0Z"/><path class="cls-22" d="M1209.45,501.49c-28.39,3.75-61.9,24.86-52.47,18.67,10.07-6.6,25.71-15.39,54-19.7,37.61-5.72,79.87,21.53,59.93,12.37C1257.94,506.86,1237,497.85,1209.45,501.49Z"/><polygon class="cls-22" points="1136.37 503.4 1154.74 520.03 1154.15 520.26 1136.28 503.84 1136.37 503.4"/><polygon class="cls-22" points="1278.44 515.95 1324.07 491.1 1323.89 491.97 1279.29 515.76 1278.44 515.95"/><rect class="cls-22" x="1215.69" y="524.63" width="0.78" height="105.27"/><path class="cls-22" d="M1279.37,580.13c6.94,23.06,23.39,48.92,18.51,41.89-5.37-7.73-12.9-20.15-19.86-43.21-9.25-30.64-3.44-66.81-4.27-49.87C1273.21,540,1272.64,557.76,1279.37,580.13Z"/><path class="cls-22" d="M1163.81,576c-1.74-22.64-9.28-49.83-7-42.36,2.55,8.22,5.93,21.21,7.69,43.85,2.34,30.08-5.68,62.13-3.15,46.72A190.57,190.57,0,0,0,1163.81,576Z"/><path class="cls-22" d="M1250.87,574.1c8.59-8.79,16.79-21.72,14.63-18.06-2.38,4-6.38,10.11-15,18.9-11.4,11.68-27.6,19.51-20.32,15.17A96.36,96.36,0,0,0,1250.87,574.1Z"/><path class="cls-22" d="M1190.28,584.79c10.11,5.81,23.94,10.3,20.06,9.17-4.26-1.23-10.8-3.47-20.91-9.28C1176,577,1164.93,564,1170.66,569.6A91.21,91.21,0,0,0,1190.28,584.79Z"/><path class="cls-22" d="M1218.31,555.19c0,7-.29,17-1.7,17s-1.7-10-1.7-17,.29-14.18,1.7-14.18A70.27,70.27,0,0,1,1218.31,555.19Z"/><path class="cls-22" d="M1196.66,336.21c-.5,1.75-11.5,8.48-22.43,5.35s-17.6-16.89-17.1-18.65,7.86,9.88,18.79,13S1197.17,334.46,1196.66,336.21Z"/><path class="cls-22" d="M1302.56,328c.35,1.79-6.4,12.78-17.56,15s-23.36-7.07-23.7-8.86,11.48,5.24,22.64,3.07S1302.21,326.17,1302.56,328Z"/><ellipse class="cls-22" cx="1171.63" cy="327.73" rx="3.51" ry="2.73"/><ellipse class="cls-22" cx="1285.48" cy="329.68" rx="3.51" ry="2.34"/><rect class="cls-5" x="1431.32" y="419.66" width="204.43" height="292.05" transform="matrix(0.98, 0.21, -0.21, 0.98, 154.29, -311.48)"/><ellipse class="cls-23" cx="1524.94" cy="617.41" rx="29.59" ry="83.91" transform="translate(599.04 1977.32) rotate(-77.79)"/><path class="cls-22" d="M1611.57,546.71l-129.21-28a7.29,7.29,0,0,0-8.54,6.62l-8.7,79.1a7.16,7.16,0,0,0,5.36,7.94l108,23.94a7.13,7.13,0,0,0,8.06-4.54l29.92-75.08C1618.16,552.43,1615.82,547.63,1611.57,546.71Z"/><ellipse class="cls-24" cx="1547.01" cy="532.44" rx="16.65" ry="70.97" transform="translate(699.49 1931.88) rotate(-77.79)"/><path class="cls-22" d="M1542.56,553c-18.85-4.08-36.24-9.66-49-15.71-15.09-7.16-21.7-14-20.23-20.78s10.31-10.27,27-10.56c14.09-.25,32.23,1.86,51.08,5.94s36.24,9.66,49,15.7c15.09,7.17,21.71,14,20.23,20.79s-10.31,10.27-27,10.56C1579.55,559.18,1561.41,557.07,1542.56,553Zm-60.62-34.63c.21,1.2,3.59,5.6,16.82,11.67,12,5.51,28.23,10.62,45.65,14.39s34.3,5.82,47.52,5.77c14.56-.06,19.46-2.67,20.14-3.68-.2-1.2-3.59-5.6-16.82-11.67-12-5.51-28.23-10.62-45.65-14.39s-34.3-5.82-47.52-5.77C1487.52,514.75,1482.62,517.36,1481.94,518.37Z"/><path class="cls-22" d="M1458.94,556.91c-2.94,13.59,17.37,28.07,11.53,26.81s-20.85-14.11-17.91-27.71,21.19-21.19,27-19.93S1461.89,543.31,1458.94,556.91Z"/><path class="cls-23" d="M1559.48,492.39c1.94,20.87-6.76,29.22-10.32,29.63s7.56-7.43,5.71-28.64,7.61-27.05,15-30C1573.13,462,1557.5,471.19,1559.48,492.39Z"/><path class="cls-23" d="M1541.07,500.9c1.56,9.73-2.27,13.92-3.93,14.23s3.32-3.72,1.8-13.63,2.74-12.93,6.1-14.56C1546.54,486.21,1539.49,491,1541.07,500.9Z"/><path class="cls-23" d="M1568.37,501.84c2.06,11.39-2.32,16.4-4.27,16.79s3.81-4.44,1.78-16,2.91-15.24,6.81-17.23C1574.44,484.48,1566.28,490.27,1568.37,501.84Z"/><rect class="cls-5" x="1079" y="302" width="276.8" height="395.43"/><polygon class="cls-23" points="1169.42 431.56 1129.51 447.52 1133.02 366.06 1175.48 401.53 1169.42 431.56"/><polygon class="cls-23" points="1205.54 379.14 1270.39 363.69 1262.71 453.85 1214.92 430.66 1205.54 379.14"/><path class="cls-22" d="M1345.52,558.63c0-25.16-14-46.77-34-56.21V471.16a12.8,12.8,0,0,0-9-12.22l-81.84-25.69a12.84,12.84,0,0,0-1.68-.41l-8.78-31.62c42-11.86,87.63-66.43,86.23-92l.79-7.22h-193c4.27,30.32,29,83.73,69.53,98l-7.38,31L1079,464.13V525h0v112.3l22.28-49.8c2.39,15.84,10.45,28.79,22,38.73v71.18H1294.9V617.55C1323.35,614.34,1345.52,590.31,1345.52,558.63Z"/><polygon class="cls-23" points="1137.52 442.15 1094.82 458.59 1092.44 302 1137.52 302 1137.52 442.15"/><polygon class="cls-23" points="1305.18 460.17 1263.27 446.73 1264.06 302 1309.14 302 1305.18 460.17"/><path class="cls-24" d="M1196.13,349.45c-17,0-25.62,10.25-30.75,5.13-3-3,13.77,15.37,30.75,15.37,15,0,31.41-11.93,35.11-14.77C1225.6,358.76,1212.33,349.45,1196.13,349.45Zm1.87,10.66a75.08,75.08,0,0,1-13.08-1.16,75.08,75.08,0,0,1,13.08-1.16,99.7,99.7,0,0,1,14.25,1.16A99.7,99.7,0,0,1,1198,360.11Z"/><path class="cls-24" d="M1231.24,355.18a4.84,4.84,0,0,0,.77-.6Z"/><path class="cls-22" d="M1184.92,359a75.08,75.08,0,0,0,13.08,1.16,99.7,99.7,0,0,0,14.25-1.16,99.7,99.7,0,0,0-14.25-1.16A75.08,75.08,0,0,0,1184.92,359Z"/><path class="cls-23" d="M1341.24,580.71c.86,4.63-12.64,32.11-36.11,36.49s-49.93-20.61-50.79-25.24,24.68,14.65,48.14,10.27S1340.37,576.08,1341.24,580.71Z"/><path class="cls-23" d="M1219.77,599.36c.49,6.56-39.54,35.2-70.38,35.59-31.89.4-46.26-33.5-46.6-40.26-.33-6.57,23.79,30.74,55.3,28.4S1219.28,592.8,1219.77,599.36Z"/><ellipse class="cls-23" cx="1340.38" cy="564.17" rx="6.72" ry="4.35"/><ellipse class="cls-23" cx="1141.08" cy="602.92" rx="6.72" ry="5.14"/><rect class="cls-23" x="1107.89" y="518.57" width="0.51" height="69.97" transform="translate(132.21 -209.31) rotate(11.47)"/><polygon class="cls-23" points="1311.51 501.63 1311.51 502.42 1295.69 481.52 1296.49 481.52 1311.51 501.63"/></g><g id="Layer_16" data-name="Layer 16"><path class="cls-25" d="M474.71,42,449,93.31H432.82L421.28,42h19.48l2,16.17a59.37,59.37,0,0,1,.46,7.63c0,2.23-.08,3.85-.31,6.85l.77.08a58.76,58.76,0,0,1,4-16.25L453.61,42Z"/><path class="cls-25" d="M513.6,42,512,55.35H496.81L496.12,61H510l-1.54,12.71H494.58l-.7,5.85h15.71L507.9,93.31H473.56L479.87,42Z"/><path class="cls-25" d="M522.14,42h17.4c18.1,0,28.88,9.32,28.88,24.87A25.44,25.44,0,0,1,559,87.07c-5.69,4.55-11.85,6.24-22.63,6.24H515.83ZM538.85,57l-2.54,21h2.62c6.16,0,11.09-5.15,11.09-11.7C550,61,546.24,57,541.16,57Z"/><path class="cls-25" d="M597.37,42h17.4c18.1,0,28.88,9.32,28.88,24.87a25.44,25.44,0,0,1-9.4,20.25c-5.7,4.55-11.86,6.24-22.64,6.24H591.06ZM614.08,57l-2.54,21h2.62c6.16,0,11.08-5.15,11.08-11.7,0-5.39-3.77-9.32-8.85-9.32Z"/><path class="cls-25" d="M702.7,42l-3.46,28.42c-1.39,10.93-2.62,14.09-7.16,18.24s-10.09,6-17.4,6c-7.47,0-13.71-1.93-18.17-5.54-4.09-3.32-5.78-7.32-5.78-13.48a37.2,37.2,0,0,1,.23-4.08L654.66,42h18.86l-3.46,28.42c-.23,1.84-.39,3.15-.39,3.77,0,3.08,1.7,4.77,4.62,4.77,3.54,0,5.24-2.23,6-7.85L683.84,42Z"/><path class="cls-25" d="M779.16,42l-6.31,51.36H754.22l2.31-18.71h-11l-2.24,18.71H724.65L731,42H749.6l-2.16,17.56h10.93L760.53,42Z"/><path class="cls-25" d="M837.76,42,812,93.31H795.87L784.32,42H803.8l2,16.17a61.23,61.23,0,0,1,.46,7.63c0,2.23-.08,3.85-.31,6.85l.77.08a59.13,59.13,0,0,1,4-16.25L816.66,42Z"/><path class="cls-25" d="M894.12,67.21c0,15.55-12.09,27.41-28.1,27.41-16.25,0-28.72-11.4-28.72-26.26,0-15.55,12.47-27.64,28.33-27.64a31,31,0,0,1,20,7.09C891.2,52.43,894.12,59.12,894.12,67.21Zm-18.78.31c0-5.47-3.93-9.78-9.09-9.78-5.62,0-10.16,4.85-10.16,10.78,0,5.69,3.85,9.93,9.08,9.93C871,78.45,875.34,73.75,875.34,67.52Z"/><path class="cls-25" d="M934.93,73.21l11.17,20.1H925.92l-4.61-12.4a56.12,56.12,0,0,1-2-6.85l-.54.08c.08,1.69.08,2.38.08,3.77a61.21,61.21,0,0,1-.38,6.78l-1,8.62H898.82L905.14,42h20.4c8.39,0,12.32,1.08,16.17,4.16a16.86,16.86,0,0,1,6,12.78,14.6,14.6,0,0,1-5.15,11.32C940.25,72.06,938.78,72.68,934.93,73.21ZM922.07,55.74,920.92,65h1.54c4.31,0,7-2,7-5.09,0-2.85-1.85-4.15-5.93-4.15Z"/><path class="cls-25" d="M461.88,151.22V152c0,11.25-2.5,26.5-13.76,37.62-10.37,10.25-22.24,12.25-33.37,12.25-11.63,0-22.63-2.12-32.63-12a40.36,40.36,0,0,1-12.24-29.75,45.6,45.6,0,0,1,12.74-32c5.38-5.5,16.88-13.87,36.76-13.87,17.74,0,31,6.37,39.87,21.12l-28.37,11.13a11.94,11.94,0,0,0-11.13-7A18.74,18.74,0,0,0,407,144.22c-4,3.75-6.88,10-6.88,17.12a17.77,17.77,0,0,0,4.76,12.75c3.37,3.5,7.24,4.5,11.74,4.5,3.26,0,10.63-.75,13.38-9.12H413.75l2.5-18.25Z"/><path class="cls-25" d="M528.37,167.09l18.13,32.63H513.75l-7.5-20.13A89.8,89.8,0,0,1,503,168.47l-.88.12c.13,2.75.13,3.88.13,6.13a97.46,97.46,0,0,1-.63,11l-1.62,14H469.75L480,116.34h33.12c13.63,0,20,1.75,26.25,6.75a27.36,27.36,0,0,1,9.75,20.75,23.7,23.7,0,0,1-8.37,18.38C537,165.22,534.62,166.22,528.37,167.09ZM507.5,138.72l-1.88,15h2.5c7,0,11.38-3.25,11.38-8.25,0-4.63-3-6.75-9.63-6.75Z"/><path class="cls-25" d="M648.37,116.34l3.88,21.88H626.87l1.5,8.87h25.5l3.63,21.25H632.12l1.63,8.75h25.37l4,22.63H607.37l-.5-11H586.25l-4,11H549.87l38.75-83.38Zm-55,53.5H605l-1.5-16.37a37.46,37.46,0,0,1-.13-4,48.46,48.46,0,0,1,.5-7.13l-1.37-.25a53.33,53.33,0,0,1-3.13,11.38Z"/><path class="cls-25" d="M767.37,116.34l-10.25,83.38H727.87L713.37,171a98.33,98.33,0,0,1-6.62-16.88l-.5-1.5h-1a93.62,93.62,0,0,1,.5,10,77.36,77.36,0,0,1-.38,8.38l-2.62,28.75H672.37l10.25-83.38H713l14.75,31.38A86.5,86.5,0,0,1,733,162.47l.75,2.75,1.25-.13-.25-2.75c-.38-4.62-.63-8-.63-11.5a86.74,86.74,0,0,1,.5-9.87l2.13-24.63Z"/><path class="cls-25" d="M843.75,123l-11.13,22.12a27.55,27.55,0,0,0-18.25-7.5c-3.25,0-5.75,1.88-5.75,4.38s1.5,3.5,9.13,5.37c5.75,1.5,10.5,3.38,13.5,5.5,5.62,3.75,9.12,11,9.12,18.63,0,16.75-16.25,30.37-36.37,30.37-7.75,0-17.13-2.25-25.25-6-1.75-.87-4.38-2.12-7.75-4l11.25-22.5a27.53,27.53,0,0,0,20.87,9.88c4.25,0,7-1.88,7-4.88s-2.37-4.62-7.87-5.87c-5.75-1.13-8.88-2.13-11.88-3.75-7.87-3.88-12-10.88-12-20.5,0-16.63,15.25-29.88,34.25-29.88a62.31,62.31,0,0,1,25.88,5.88C839.75,120.84,841.5,121.72,843.75,123Z"/><path class="cls-25" d="M914.75,116.34l-2.63,21.75H887.5l-1.13,9.13h22.5l-2.5,20.62h-22.5l-1.12,9.5h25.5l-2.75,22.38H849.75L860,116.34Z"/><path class="cls-25" d="M1013.37,116.34l-10.25,83.38H973.87L959.37,171a98.33,98.33,0,0,1-6.62-16.88l-.5-1.5h-1a93.62,93.62,0,0,1,.5,10,77.36,77.36,0,0,1-.38,8.38l-2.62,28.75H918.37l10.25-83.38H959l14.75,31.38A86.5,86.5,0,0,1,979,162.47l.75,2.75,1.25-.13-.25-2.75c-.38-4.62-.63-8-.63-11.5a86.74,86.74,0,0,1,.5-9.87l2.13-24.63Z"/><path class="cls-25" d="M1142,151.22V152c0,11.25-2.5,26.5-13.75,37.62-10.37,10.25-22.25,12.25-33.37,12.25-11.63,0-22.63-2.12-32.63-12A40.36,40.36,0,0,1,1050,160.09a45.61,45.61,0,0,1,12.75-32c5.38-5.5,16.88-13.87,36.75-13.87,17.75,0,31,6.37,39.88,21.12L1111,146.47a11.92,11.92,0,0,0-11.12-7,18.74,18.74,0,0,0-12.75,4.75c-4,3.75-6.88,10-6.88,17.12a17.76,17.76,0,0,0,4.75,12.75c3.38,3.5,7.25,4.5,11.75,4.5,3.25,0,10.63-.75,13.38-9.12h-16.25l2.5-18.25Z"/><path class="cls-25" d="M1178,188.59l-4,11.13h-32.5l38.5-83.38h34.5l15.5,83.38h-30.87l-.63-11.13Zm32.5-82c-3.87,3-9.12,3.5-13,3.5-6,0-10.12-1.25-12.87-3.37a13.09,13.09,0,0,1-5.13-10.25,12.65,12.65,0,0,1,5-10c3.88-3,9.13-3.5,13-3.5s9.25.5,13,3.5a13.24,13.24,0,0,1,5,10A12.73,12.73,0,0,1,1210.49,106.59Zm-25.5,63h11.5l-1.25-15.12c-.12-1.38-.25-3.5-.25-5.88a55.54,55.54,0,0,1,.38-6.62h-1a80.54,80.54,0,0,1-3.75,12.5Zm8.13-76.37a3.88,3.88,0,0,0-1.88,3.5,3.31,3.31,0,0,0,1.88,3.12,8.38,8.38,0,0,0,4.37,1,9.47,9.47,0,0,0,4.5-1,3.46,3.46,0,0,0,1.75-3.37,3.78,3.78,0,0,0-1.75-3.25,9.46,9.46,0,0,0-4.5-1A7.93,7.93,0,0,0,1193.12,93.22Z"/><path class="cls-25" d="M1297,167.09l18.13,32.63h-32.75l-7.5-20.13a89.8,89.8,0,0,1-3.25-11.12l-.88.12c.13,2.75.13,3.88.13,6.13a97.46,97.46,0,0,1-.63,11l-1.62,14h-30.25l10.25-83.38h33.12c13.63,0,20,1.75,26.25,6.75a27.36,27.36,0,0,1,9.75,20.75,23.7,23.7,0,0,1-8.37,18.38C1305.62,165.22,1303.24,166.22,1297,167.09Zm-20.87-28.37-1.88,15h2.5c7,0,11.38-3.25,11.38-8.25,0-4.63-3-6.75-9.63-6.75Z"/><path class="cls-25" d="M1353.87,147.34a14.74,14.74,0,0,0,5.5,1c3.12,0,5.75-.62,7.5-2a7.39,7.39,0,0,0,2.87-6,5.44,5.44,0,0,0-1.62-4.25,6.15,6.15,0,0,0-4-1.5,5.63,5.63,0,0,0-4.38,2c-1.25,1.5-1.5,3.88-1.5,5.5h-28a31.26,31.26,0,0,1,8.75-18.25c7.75-7.87,17.63-9.37,25.75-9.37,8.5,0,18.25,1.62,25.75,9.25a24.21,24.21,0,0,1,7.13,17.62,24.62,24.62,0,0,1-6.88,17.63c-6.37,6.5-16,8.5-27.62,8.5a52.92,52.92,0,0,1-11.88-1.13Zm20.87,40.38c0,8.12-7.87,13.62-16.62,13.62-10.38,0-16.38-7.25-16.38-13.87s6-14.25,16.75-14.25S1374.74,181.09,1374.74,187.72Z"/><rect class="cls-5" x="1457.51" y="107.55" width="187.26" height="267.51" transform="translate(-10.15 404.53) rotate(-14.81)"/><ellipse class="cls-23" cx="1568.31" cy="273.84" rx="1.34" ry="2.14" transform="translate(-17.89 410) rotate(-14.81)"/><ellipse class="cls-23" cx="1566.24" cy="274.39" rx="1.34" ry="2.14" transform="translate(-18.1 409.49) rotate(-14.81)"/><ellipse class="cls-22" cx="1535.44" cy="252.05" rx="35.04" ry="40.17" transform="translate(-13.42 400.87) rotate(-14.81)"/><ellipse class="cls-22" cx="1586.95" cy="241.75" rx="35.04" ry="40.17" transform="translate(-9.07 413.7) rotate(-14.81)"/><polygon class="cls-22" points="1612.07 256.19 1515.86 281.62 1468.32 124.85 1576.42 96.27 1612.07 256.19"/><rect class="cls-23" x="1561" y="231.42" width="0.54" height="31.57" transform="translate(-11.32 407.32) rotate(-14.81)"/><polygon class="cls-22" points="1496.29 215.96 1467.71 185.33 1442.84 131.04 1468.32 124.85 1496.29 215.96"/><path class="cls-23" d="M1489.4,196.2l-8.57-19.87-11.09-52.41h0l21,75.25C1490.76,199.24,1489.42,196.27,1489.4,196.2Z"/><polygon class="cls-22" points="1607.44 144.51 1596.46 186.71 1576.42 96.27 1605.39 88.61 1607.44 144.51"/><polygon class="cls-23" points="1590.94 142.79 1576.97 98.34 1593.67 171.95 1593.64 169.75 1590.94 142.79"/><polygon class="cls-22" points="1588.29 369.28 1545.5 381.15 1519.43 286.77 1565.47 274.59 1588.29 369.28"/><polygon class="cls-22" points="1638.46 356.01 1595.67 367.88 1568.95 273.12 1614.99 260.95 1638.46 356.01"/><path class="cls-23" d="M1607.31,271.2c-6.59,1.74-15.09.92-22.38-1.3-4.5-1.37-9.7-3.77-9.56-6l.54,0c-.1,1.56,3.67,3.82,9.17,5.49,11.54,3.5,26.15,3.51,31-4.77a42.92,42.92,0,0,0,4.75-11.15l.52.13a43.37,43.37,0,0,1-4.81,11.29C1614.62,268.12,1611.32,270.13,1607.31,271.2Z"/><rect class="cls-22" x="1567.53" y="221.34" width="1.07" height="48.69" transform="translate(-10.71 409) rotate(-14.81)"/><path class="cls-23" d="M1533.27,283a26.15,26.15,0,0,1-13,.45c-8.44-2.08-12.46-8.77-14.4-12-.26-.43-.48-.8-.66-1.07l.44-.3c.19.28.41.65.68,1.09,1.9,3.16,5.85,9.72,14.07,11.76,7.46,1.84,16.68-.52,27.41-7l.27.46A57.37,57.37,0,0,1,1533.27,283Z"/></g></svg>
