<svg xmlns="http://www.w3.org/2000/svg" viewBox="0 0 350 500"><defs><style>.cls-1{fill:#f4912d;}.cls-2{fill:#f47200;}</style></defs><title>Tissekone</title><g id="Bilde_1" data-name="Bilde 1"><path class="cls-1" d="M350,220.59l-36.82,19.69C310.73,212,297.12,177.2,287,151q-1.67-4.31-3.43-8.45L275.16,39a22,22,0,0,0,10.18-9.06l65.82,80.88L350,56,321,0H271.51A15.69,15.69,0,0,0,266,0H112.55l0,0L53,0,0,120l.5,73.5L99.13,23.17a21,21,0,0,0,11.62,16.28L96.45,153.87C81.23,183.38,72,223.76,72,251v5.2L67,254,0,215V404H0c0,.17,0,.33,0,.5C0,436.26,39.62,462,88.5,462c43.17,0,79.12-20.09,86.92-46.66C186.07,439.39,220.35,457,261,457c46.81,0,85.18-23.35,88.73-53H350V272h0Z"/><path class="cls-2" d="M166,252.32c-36.4,4.81-79.37,31.87-67.28,23.95,12.91-8.47,33-19.75,69.28-25.27,48.23-7.34,102.42,27.61,76.85,15.86C228.18,259.21,201.3,247.65,166,252.32Z"/><polygon class="cls-2" points="72.29 254.77 95.84 276.09 95.09 276.39 72.17 255.33 72.29 254.77"/><polygon class="cls-2" points="254.47 270.86 312.98 238.99 312.75 240.12 255.56 270.62 254.47 270.86"/><rect class="cls-2" x="174" y="282" width="1" height="135"/><path class="cls-2" d="M255.66,353.16c8.91,29.58,30,62.73,23.74,53.73-6.88-9.92-16.54-25.85-25.47-55.41-11.86-39.29-4.41-85.69-5.47-64C247.76,301.68,247,324.48,255.66,353.16Z"/><path class="cls-2" d="M107.48,347.88c-2.24-29-11.9-63.89-8.94-54.32,3.26,10.55,7.6,27.2,9.86,56.23,3,38.58-7.29,79.67-4,59.92A245.33,245.33,0,0,0,107.48,347.88Z"/><path class="cls-2" d="M219.12,345.43c11-11.27,21.53-27.85,18.76-23.16-3,5.16-8.19,13-19.19,24.23-14.61,15-35.39,25-26.05,19.46A123.57,123.57,0,0,0,219.12,345.43Z"/><path class="cls-2" d="M141.42,359.14c13,7.45,30.69,13.21,25.73,11.77-5.47-1.59-13.86-4.46-26.82-11.91-17.24-9.89-31.41-26.59-24.08-19.33A117.94,117.94,0,0,0,141.42,359.14Z"/><path class="cls-2" d="M177.36,321.18c0,9-.37,21.82-2.18,21.82S173,330.22,173,321.18s.37-18.18,2.18-18.18A90.06,90.06,0,0,1,177.36,321.18Z"/><path class="cls-2" d="M149.61,40.37c-.65,2.25-14.75,10.88-28.77,6.86S98.26,25.57,98.91,23.32,109,36,123,40,150.25,38.12,149.61,40.37Z"/><path class="cls-2" d="M285.4,29.8c.45,2.29-8.21,16.38-22.52,19.16S232.93,39.9,232.49,37.6s14.72,6.72,29,3.94S285,27.5,285.4,29.8Z"/><ellipse class="cls-2" cx="117.5" cy="29.5" rx="4.5" ry="3.5"/><ellipse class="cls-2" cx="263.5" cy="32" rx="4.5" ry="3"/><ellipse class="cls-2" cx="177.53" cy="205.02" rx="4.47" ry="2.02"/></g></svg>
