<svg xmlns="http://www.w3.org/2000/svg" viewBox="0 0 350 500"><defs><style>.cls-1{fill:#ff931e;}.cls-2{fill:#f47200;}.cls-3{fill:#ff879d;}</style></defs><title>Tissemann</title><g id="Bilde_2" data-name="Bilde 2"><polygon class="cls-1" points="119.81 499.5 -1 499.5 -1 0.5 138 1.5 119.81 499.5"/><polygon class="cls-1" points="161.5 500 119 500 119 263 137.38 266 161.5 500"/><rect class="cls-2" x="118" y="280.5" width="2" height="219"/><path class="cls-2" d="M254.6,197h0c-2-9.41-9.95-15.67-17.67-14l-22.49,5.12v0L122.9,208.65a5.87,5.87,0,0,0-2.44-.56,7,7,0,0,0-4.76,2.17h0v0c-5.06,4.84-8.66,17.11-8.66,31.49,0,18.62,6,33.71,13.46,33.71a7.22,7.22,0,0,0,5.07-2.48,6.73,6.73,0,0,0,4.35,1.81c7.43,0,13.46-15.09,13.46-33.71,0-1.75-.06-3.48-.16-5.16l77.47-17.37,0,.1,25.63-5.5C252.54,211.85,256.27,204.58,254.6,197Z"/></g><g id="Bilde_1" data-name="Bilde 1"><path class="cls-2" d="M45.62,261.9c21,4.33,48.92-.12,41.13,1.53-8.58,1.81-21.81,3.55-42.81-.75C16,257-8.44,232.25,4,241.79,12.08,248,25.26,257.7,45.62,261.9Z"/><ellipse class="cls-2" cx="129.5" cy="83.5" rx="4.5" ry="2"/><rect class="cls-3" x="134.92" y="231.04" width="0.01" height="35.9" transform="translate(41.35 -18.3) rotate(9.16)"/></g></svg>
