<svg xmlns="http://www.w3.org/2000/svg" viewBox="0 0 350 500"><defs><style>.cls-1{fill:#f47200;}.cls-2{fill:#ff931e;}.cls-3{fill:#ff879d;}</style></defs><title>To pers. seksuelt 2</title><g id="Bilde_5" data-name="Bilde 5"><polygon class="cls-1" points="292.68 267.5 60.98 267.5 49 -0.5 300 -0.48 292.68 267.5"/><polygon class="cls-1" points="350 220.5 350 349.5 202.76 293.78 264.04 202.43 350 220.5"/><polygon class="cls-1" points="0 383.5 0 239.5 78.77 183.81 158.81 273.77 0 383.5"/><path class="cls-2" d="M318,398a51.23,51.23,0,0,0-2.35-15.52c-1.72-20.08-43.09-36.92-99.47-42.49V273.5H125.81V341c-33.9,4.21-61.5,12.58-76.93,23.2C39.19,368,32,381.68,32,398v66.62c0,.26,0,.51,0,.77h0V499.5H318V465.42h0c0-.26,0-.51,0-.77Z"/><rect class="cls-1" x="82.46" y="420.5" width="0.54" height="78.72"/><path class="cls-3" d="M180,76.49c-48.59-.06-96.31,63-105.41,149.58C71.47,245.22,70,273.06,70,284c0,17.4,15,31.5,15,31.5a56.93,56.93,0,0,0,8.11-10.17C96.57,318.68,107,328.5,107,328.5a57.79,57.79,0,0,0,10.33-14c2.18,15.28,14.67,27,14.67,27a57.82,57.82,0,0,0,11.32-16.07C145.49,340.73,158,352.5,158,352.5s9.92-9.33,13.63-22.17A57.9,57.9,0,0,0,183,346.5s9.3-8.75,13.25-21a58.23,58.23,0,0,0,9.75,13,57.35,57.35,0,0,0,11.76-17.05A58,58,0,0,0,227,333.5a57.19,57.19,0,0,0,12.11-17.84A56.51,56.51,0,0,0,247,325.5s8.86-8.34,13-20.11a54.81,54.81,0,0,0,6,7.11,57.53,57.53,0,0,0,8.51-10.82A45.67,45.67,0,0,0,278,305.5s12-14.6,12-32c0-1.4,0-2.78-.08-4.13C310.45,163.19,236.18,76.56,180,76.49Z"/><polygon class="cls-1" points="350 -0.5 349.95 63.55 277 -0.5 311 -0.5 350 -0.5"/><ellipse class="cls-2" cx="96.5" cy="7" rx="8.5" ry="6.5"/><ellipse class="cls-2" cx="247.5" cy="7" rx="8.5" ry="6.5"/><rect class="cls-1" x="265.46" y="421.5" width="0.54" height="78.72"/><polygon class="cls-1" points="0 -0.5 63 -0.5 0 69.5 0 38.5 0 -0.5"/></g></svg>