<svg id="Layer_1" data-name="Layer 1" xmlns="http://www.w3.org/2000/svg" width="4000" height="800" viewBox="0 0 4000 800"><defs><style>.cls-1{fill:#e2bdaf;}.cls-2{fill:#d3ad9b;}.cls-3{fill:#dcb7a8;}.cls-4{fill:#f3d6c3;}.cls-5{fill:#eecfbf;}.cls-6{fill:#005574;}.cls-7{fill:#be7600;}.cls-8{fill:#00475f;}.cls-9{fill:#002c3b;}.cls-10{fill:#f59800;}.cls-11{fill:#292929;}.cls-12{fill:#434140;}.cls-13{fill:#39768d;}.cls-14{fill:#003d4b;}.cls-15{fill:#4a4137;}.cls-16{fill:#518da4;}.cls-17{fill:none;}</style></defs><title>tommel_op_politi</title><polygon class="cls-1" points="603.39 332.23 594.1 348.84 589.77 363 584.79 400.82 577.52 429.14 573.06 442.33 587.76 479 715.29 518.9 731.57 511.54 738.06 505.93 780.66 392.17 775.61 381.27 722.7 365.22 693.01 357.94 668.65 356.59 669.79 349.17 680.72 335.87 688.46 327.92 693.85 321.47 707.7 300.89 715.48 283.31 719.11 272.59 721.64 259.67 718.27 243.82 705.65 233.59 684.63 226.48 674.03 227.95 662.3 235.46 656.17 252.23 655.42 265.3 650.37 289.77 633.77 307.59 613.89 322.92 603.39 332.23"/><polygon class="cls-2" points="735.44 509.48 727.75 510.83 653.12 486.38 636.93 473.82 641.93 458.55 648.59 452.99 661.94 450.6 695.24 458.13 740.63 473 748.48 475.57 751.42 482.82 745.13 502.02 735.44 509.48"/><polygon class="cls-2" points="745.13 502.02 735.44 509.48 727.75 510.83 653.11 486.38 636.93 473.82 640.8 462.02 641.93 458.55 648.59 452.99 661.94 450.6 695.24 458.13 740.63 473 748.48 475.57 751.42 482.82 746.53 497.77 745.13 502.02"/><polygon class="cls-2" points="749.32 477.11 740.57 477.67 652.43 448.79 640.38 444.84 633.65 435.87 637.1 422.38 644.28 417.89 659.46 416.87 698.49 426.67 752.1 444.23 761.38 447.27 765.4 454.15 759.84 471.15 749.32 477.11"/><polygon class="cls-2" points="760.12 470.32 749.6 476.29 740.85 476.85 652.7 447.97 640.66 444.02 633.93 435.05 635.66 428.28 637.38 421.56 644.56 417.07 659.74 416.05 698.77 425.84 752.38 443.4 761.66 446.44 765.68 453.32 761.72 465.44 760.12 470.32"/><polygon class="cls-2" points="761.37 446.65 752.34 447.31 659.58 420.08 646.9 416.36 639.48 407.63 642.39 394.33 649.6 389.83 665.27 388.63 706.2 397.75 762.62 414.31 772.38 417.17 776.89 423.88 771.97 440.65 761.37 446.65"/><polygon class="cls-2" points="771.97 440.65 761.37 446.65 752.34 447.31 659.58 420.08 646.9 416.36 639.48 407.63 641.81 396.95 642.39 394.33 649.6 389.83 665.27 388.63 706.2 397.75 762.62 414.31 772.38 417.17 776.89 423.88 773.47 435.55 771.97 440.65"/><polygon class="cls-2" points="772.31 418.32 763.47 419.04 672.86 392.45 660.48 388.81 653.27 380.15 656.2 366.86 663.29 362.31 678.63 361.02 718.62 369.86 773.73 386.04 783.27 388.84 787.64 395.5 782.72 412.27 772.31 418.32"/><polygon class="cls-2" points="782.72 412.27 772.31 418.33 763.47 419.04 672.86 392.45 660.48 388.81 653.27 380.15 655.55 369.82 656.2 366.86 663.29 362.32 678.63 361.02 718.62 369.86 773.73 386.04 783.27 388.84 787.64 395.5 784.15 407.42 782.72 412.27"/><polygon class="cls-3" points="746.53 497.77 640.8 462.02 641.93 458.55 648.59 452.99 661.94 450.6 695.24 458.13 740.63 473 748.48 475.57 751.42 482.82 746.53 497.77"/><polygon class="cls-3" points="761.72 465.44 635.66 428.28 637.38 421.56 644.56 417.07 659.74 416.05 698.77 425.84 752.38 443.4 761.66 446.44 765.68 453.32 761.72 465.44"/><polygon class="cls-3" points="773.47 435.55 641.81 396.95 642.39 394.33 649.6 389.83 665.27 388.63 706.2 397.75 762.62 414.31 772.38 417.17 776.89 423.88 773.47 435.55"/><polygon class="cls-3" points="784.15 407.42 655.55 369.82 656.2 366.86 663.29 362.32 678.63 361.02 718.62 369.86 773.73 386.04 783.27 388.84 787.64 395.5 784.15 407.42"/><polygon class="cls-4" points="681.81 369.31 676.51 384.98 666.74 385.35 660.98 382.02 658.38 378.84 660.82 371.6 661.86 368.54 668.2 366.09 673.02 365.42 681.81 369.31"/><polygon class="cls-4" points="668.06 397.74 662.77 413.4 653 413.77 647.23 410.45 644.63 407.27 647.08 400.03 648.11 396.96 654.45 394.51 659.27 393.85 668.06 397.74"/><polygon class="cls-5" points="665.3 423.58 659.23 441.53 648.51 442.12 642.24 438.42 639.44 434.84 642.25 426.54 643.43 423.03 650.43 420.13 655.72 419.29 665.3 423.58"/><polygon class="cls-4" points="664.11 461.06 659.48 474.76 651.02 475.12 646.05 472.23 643.81 469.47 645.95 463.13 646.86 460.45 652.35 458.29 656.52 457.69 664.11 461.06"/><path class="cls-4" d="M674,228l3.12,8.4s-9,17.17-8.74,17.72-6.53,13.87-7.22,14.55-7.28,4-7.28,4l1.51-7.3.75-13.07,5.71-16.9Z"/><path class="cls-6" d="M318.39,567.3V796.07a34.51,34.51,0,0,1-.28,4.34H56.5a34.51,34.51,0,0,1-.28-4.34V567.3a33.59,33.59,0,0,1,33.5-33.5H284.89A33.59,33.59,0,0,1,318.39,567.3Z"/><polygon class="cls-7" points="258.56 638.33 260.9 620.84 247.81 608.99 265.17 605.81 272.39 589.7 280.78 605.23 298.33 607.11 286.16 619.89 289.79 637.17 273.87 629.54 258.56 638.33"/><polygon class="cls-8" points="131.66 545.2 75.36 572.28 56.22 749.48 50.72 800.41 1 800.41 28.32 552.33 42.57 535.22 58.97 533.8 79.59 533.79 101.02 533.8 118.12 533.8 131.66 545.2"/><rect class="cls-7" x="140.4" y="512.15" width="29.94" height="79.92" transform="translate(672.83 799.51) rotate(131.27)"/><polygon class="cls-8" points="594.6 488.33 336.67 596.77 318 655.5 302 563.5 261 541.5 271 533.5 292 533.5 314.58 544.23 572.5 435.79 594.6 488.33"/><rect class="cls-3" x="161.6" y="475.36" width="63.43" height="88.38"/><polygon class="cls-3" points="301.22 378.75 292.72 451.87 292.61 452.85 238.38 504.07 163.91 508.45 104.06 463.94 86.81 391.37 93.45 378.13 120.25 324.69 188.73 295.11 260.2 316.46 301.22 378.75"/><polygon class="cls-2" points="292.74 452.9 239.19 503.41 134.04 318.78 188.95 295.1 260.41 316.49 301.4 378.81 292.74 452.9"/><polyline class="cls-9" points="285.68 313.42 235.39 402.85 136.59 430.52 47.16 380.23"/><rect class="cls-6" x="40.84" y="340.46" width="251.37" height="23.24" transform="translate(-88.8 57.97) rotate(-15.65)"/><polygon class="cls-9" points="62.32 369.2 19.31 327.61 42.58 308.57 54.52 287.35 61.94 269.18 70.33 270.4 92.22 268.74 108.2 265.16 122.46 252.22 130.65 246.35 136.85 236.57 167.12 339.84 62.32 369.2"/><polygon class="cls-9" points="269.43 311.18 284.57 253.3 254.79 249.13 233.57 237.19 217.78 225.52 211.25 230.93 191.69 240.88 176.17 246.12 157.27 242.47 147.22 241.71 136.85 236.57 164.63 340.54 269.43 311.18"/><polygon class="cls-10" points="257.14 635.48 259.47 617.99 246.38 606.14 263.75 602.96 270.96 586.85 279.36 602.38 296.91 604.26 284.74 617.04 288.37 634.32 272.45 626.69 257.14 635.48"/><path class="cls-11" d="M223.7,467.48l-7.79-7-9.37-2.18-11.29,4.25-5.86,6.63-3.47,7.54a49.63,49.63,0,0,1-4.62,3.36c-.55.14-9.37-2.17-9.37-2.17l-5.23-1,6,10.44,7.29,3.43s7,1.27,8.07,1l11.5-2.81s7-2.45,7.66-1.87,10.4-2.54,10.4-2.54l5.62-4.34,1.88-2.69Z"/><path class="cls-11" d="M223.14,469.37l4.34-8.31,6.63-5.24,9.5-1.11,5.92,2.78,4.3,4.39a32.71,32.71,0,0,0,4.25.78c.44-.11,6.62-5.24,6.62-5.24l3.75-2.73-2.23,10.21-4.76,5.4s-5,3.63-5.9,3.85l-9.34,2.28s-5.86.83-6.22,1.52-8.45,2.06-8.45,2.06l-5.23-1.14-2-1.32Z"/><polygon class="cls-12" points="250.44 376.08 285.61 382.7 298 406.47 301.29 379.14 273.1 335.79 250.44 376.08"/><polygon class="cls-12" points="112.76 417.12 98.65 441.17 89.87 404.25 112.76 417.12"/><polygon class="cls-7" points="145.99 335.79 141.82 311.64 119.06 302.57 141.33 289.78 144.38 265.04 162.31 281.28 186.96 275.05 175.77 297.88 187.95 318.78 163.11 316.65 145.99 335.79"/><polygon class="cls-10" points="143.85 332.23 139.12 308.54 116.92 299.01 137.99 287.19 140.19 263.14 157.94 279.52 181.5 274.19 171.4 296.13 183.76 316.88 159.77 314.06 143.85 332.23"/><rect class="cls-10" x="143.25" y="508.59" width="29.94" height="79.92" transform="translate(674.88 791.45) rotate(131.27)"/><rect class="cls-7" x="222.41" y="512.98" width="29.98" height="75.08" transform="translate(447.03 -11.17) rotate(43.79)"/><rect class="cls-10" x="217.98" y="508.69" width="30.58" height="76.97" transform="translate(455.24 -4.68) rotate(45)"/><polygon class="cls-13" points="202.93 788.23 163.02 677.76 199.37 585.83 236.43 677.76 202.93 788.23"/><rect class="cls-13" x="177.88" y="573.18" width="41.72" height="41.72" transform="matrix(0.75, 0.66, -0.66, 0.75, 441.2, 16.47)"/><rect class="cls-9" x="85.34" y="595.8" width="63.43" height="83.39"/><rect class="cls-14" x="81.77" y="591.53" width="70.56" height="29.93"/><polygon class="cls-10" points="112.63 616.55 110.67 611.59 113.33 606.97 118.6 606.16 122.52 609.78 122.13 615.1 117.73 618.11 112.63 616.55"/><polygon class="cls-15" points="195.44 469.85 203.81 464.13 205.07 461.81 202.22 461.81 197.23 463.95 193.86 467.54 192.96 470.37 195.44 469.85"/><rect class="cls-16" x="180.84" y="625.02" width="6.41" height="52.03" transform="translate(120.44 1324.59) rotate(-158.82)"/><rect class="cls-17" y="0.41" width="800" height="800"/><polygon class="cls-1" points="1271.8 233.12 1269.19 251.98 1270.3 266.74 1279.41 303.78 1282.93 332.81 1283.57 346.72 1310.6 375.53 1443.91 366.34 1456.39 353.57 1460.4 345.98 1458.73 224.51 1450.07 216.2 1394.94 220.48 1364.63 224.49 1341.46 232.09 1339.81 224.76 1345.16 208.4 1349.48 198.18 1352.16 190.22 1357.58 166.01 1358.44 146.8 1357.92 135.5 1355.58 122.53 1346.68 109 1331.2 104.05 1309.03 105.08 1299.69 110.3 1291.5 121.56 1291.88 139.41 1295.94 151.85 1300.13 176.49 1291.15 199.12 1278.2 220.63 1271.8 233.12"/><polygon class="cls-2" points="1459.26 350.24 1452.58 354.29 1374.16 358.64 1354.52 352.84 1353.63 336.79 1357.81 329.19 1369.38 322.11 1403.13 317.02 1450.82 314.37 1459.08 313.91 1464.45 319.59 1465.57 339.77 1459.26 350.24"/><polygon class="cls-2" points="1465.57 339.77 1459.26 350.24 1452.58 354.29 1374.16 358.65 1354.52 352.84 1353.83 340.43 1353.63 336.79 1357.81 329.19 1369.37 322.11 1403.13 317.02 1450.83 314.37 1459.08 313.91 1464.45 319.59 1465.32 335.3 1465.57 339.77"/><polygon class="cls-2" points="1460.42 315.04 1452.47 318.74 1359.86 323.88 1347.2 324.58 1337.67 318.67 1335.98 304.85 1341.04 298.06 1354.8 291.59 1394.72 286.53 1451.05 283.4 1460.8 282.86 1467.05 287.8 1468.04 305.66 1460.42 315.04"/><polygon class="cls-2" points="1468.01 304.79 1460.37 314.17 1452.43 317.87 1359.81 323.01 1347.16 323.71 1337.63 317.81 1336.78 310.88 1335.94 303.98 1340.99 297.19 1354.76 290.72 1394.68 285.66 1451.01 282.53 1460.76 281.99 1467.01 286.93 1467.72 299.66 1468.01 304.79"/><polygon class="cls-2" points="1460.57 282.28 1452.4 286.18 1356.08 294.54 1342.92 295.68 1332.83 290.25 1330.71 276.8 1335.79 269.98 1349.95 263.17 1391.39 256.78 1449.97 251.7 1460.11 250.82 1466.75 255.43 1468.26 272.84 1460.57 282.28"/><polygon class="cls-2" points="1468.26 272.84 1460.57 282.28 1452.4 286.18 1356.08 294.54 1342.92 295.68 1332.83 290.25 1331.13 279.45 1330.71 276.8 1335.79 269.98 1349.95 263.17 1391.39 256.78 1449.97 251.7 1460.11 250.82 1466.75 255.42 1467.8 267.54 1468.26 272.84"/><polygon class="cls-2" points="1460.46 251.92 1452.48 255.8 1358.41 263.97 1345.55 265.08 1335.69 259.63 1333.59 246.18 1338.54 239.38 1352.36 232.59 1392.83 226.29 1450.05 221.32 1459.95 220.46 1466.45 225.08 1467.96 242.5 1460.46 251.92"/><polygon class="cls-2" points="1467.96 242.5 1460.46 251.92 1452.48 255.8 1358.41 263.97 1345.55 265.08 1335.69 259.63 1334.05 249.18 1333.58 246.18 1338.54 239.38 1352.36 232.59 1392.83 226.29 1450.05 221.32 1459.95 220.46 1466.45 225.08 1467.52 237.45 1467.96 242.5"/><polygon class="cls-3" points="1465.32 335.3 1353.83 340.43 1353.63 336.79 1357.81 329.19 1369.37 322.11 1403.13 317.02 1450.83 314.37 1459.08 313.91 1464.45 319.59 1465.32 335.3"/><polygon class="cls-3" points="1467.72 299.66 1336.78 310.88 1335.94 303.98 1340.99 297.19 1354.76 290.72 1394.68 285.66 1451.01 282.53 1460.76 281.99 1467.01 286.93 1467.72 299.66"/><polygon class="cls-3" points="1467.8 267.54 1331.13 279.45 1330.71 276.8 1335.79 269.98 1349.95 263.17 1391.39 256.78 1449.97 251.7 1460.11 250.82 1466.75 255.42 1467.8 267.54"/><polygon class="cls-3" points="1467.52 237.45 1334.05 249.18 1333.58 246.18 1338.54 239.38 1352.36 232.59 1392.83 226.29 1450.05 221.32 1459.95 220.46 1466.45 225.08 1467.52 237.45"/><polygon class="cls-4" points="1358.34 239.16 1359.1 255.68 1350.13 259.57 1343.55 258.57 1339.97 256.56 1339.62 248.92 1339.47 245.69 1344.48 241.1 1348.73 238.73 1358.34 239.16"/><polygon class="cls-4" points="1355.87 270.64 1356.63 287.16 1347.66 291.05 1341.08 290.05 1337.5 288.04 1337.15 280.4 1337 277.17 1342.01 272.58 1346.26 270.21 1355.87 270.64"/><polygon class="cls-5" points="1362.68 295.72 1363.56 314.64 1353.78 319.09 1346.6 317.92 1342.69 315.61 1342.29 306.86 1342.12 303.15 1347.58 297.91 1352.2 295.2 1362.68 295.72"/><polygon class="cls-4" points="1375.2 331.06 1375.87 345.52 1368.12 348.92 1362.44 348.04 1359.35 346.28 1359.04 339.6 1358.91 336.77 1363.24 332.76 1366.91 330.68 1375.2 331.06"/><path class="cls-4" d="M1299.69,110.3l6,6.69s-2.16,19.27-1.71,19.68-1,15.3-1.43,16.19-5.33,6.35-5.33,6.35l-1.25-7.35-4.06-12.45-.82-17.82Z"/><path class="cls-6" d="M1118.39,567.3V796.07a34.51,34.51,0,0,1-.28,4.34H856.5a34.51,34.51,0,0,1-.28-4.34V567.3a33.59,33.59,0,0,1,33.5-33.5h195.17A33.59,33.59,0,0,1,1118.39,567.3Z"/><polygon class="cls-7" points="1058.57 638.33 1060.9 620.84 1047.81 608.99 1065.17 605.81 1072.39 589.7 1080.78 605.23 1098.33 607.11 1086.16 619.89 1089.79 637.17 1073.87 629.54 1058.57 638.33"/><polygon class="cls-8" points="931.66 545.2 875.36 572.28 856.22 749.48 850.72 800.41 801 800.41 828.32 552.33 842.57 535.22 858.97 533.8 879.59 533.79 901.02 533.8 918.12 533.8 931.66 545.2"/><rect class="cls-7" x="940.4" y="512.15" width="29.94" height="79.92" transform="translate(2000.52 198.22) rotate(131.27)"/><polygon class="cls-8" points="1319.63 379.88 1118.78 574.66 1118.39 637.14 1068.5 533.8 1079.1 533.75 1279.95 338.96 1319.63 379.88"/><rect class="cls-3" x="961.6" y="475.36" width="63.43" height="88.38"/><polygon class="cls-3" points="1101.22 378.75 1092.72 451.87 1092.61 452.85 1038.38 504.07 963.91 508.45 904.06 463.94 886.81 391.37 893.45 378.13 920.25 324.69 988.73 295.11 1060.2 316.46 1101.22 378.75"/><polygon class="cls-2" points="1092.73 452.9 1039.19 503.41 934.04 318.78 988.95 295.1 1060.41 316.49 1101.4 378.81 1092.73 452.9"/><polyline class="cls-9" points="1085.68 313.42 1035.39 402.85 936.59 430.52 847.16 380.23"/><rect class="cls-6" x="840.84" y="340.46" width="251.37" height="23.24" transform="translate(-59.14 273.77) rotate(-15.65)"/><polygon class="cls-9" points="862.32 369.2 819.31 327.61 842.58 308.57 854.52 287.35 861.94 269.18 870.33 270.4 892.22 268.74 908.2 265.16 922.46 252.22 930.65 246.35 936.85 236.57 967.12 339.84 862.32 369.2"/><polygon class="cls-9" points="1069.43 311.18 1084.57 253.3 1054.79 249.13 1033.57 237.19 1017.78 225.52 1011.25 230.93 991.69 240.88 976.17 246.12 957.27 242.47 947.23 241.71 936.85 236.57 964.63 340.54 1069.43 311.18"/><polygon class="cls-10" points="1057.14 635.48 1059.47 617.99 1046.38 606.14 1063.75 602.96 1070.96 586.85 1079.36 602.38 1096.91 604.26 1084.74 617.04 1088.37 634.32 1072.45 626.69 1057.14 635.48"/><path class="cls-11" d="M1023.7,467.48l-7.79-7-9.37-2.18-11.29,4.25-5.86,6.63-3.47,7.54a49.63,49.63,0,0,1-4.62,3.36c-.55.14-9.37-2.17-9.37-2.17l-5.23-1,6,10.44,7.29,3.43s7,1.27,8.07,1l11.5-2.81s7-2.45,7.66-1.87,10.4-2.54,10.4-2.54l5.62-4.34,1.88-2.69Z"/><path class="cls-11" d="M1023.14,469.37l4.34-8.31,6.63-5.24,9.5-1.11,5.92,2.78,4.3,4.39a32.71,32.71,0,0,0,4.25.78c.44-.11,6.62-5.24,6.62-5.24l3.75-2.73-2.23,10.21-4.76,5.4s-5,3.63-5.9,3.85l-9.34,2.28s-5.86.83-6.22,1.52-8.45,2.06-8.45,2.06l-5.23-1.14-2-1.32Z"/><polygon class="cls-12" points="1050.44 376.08 1085.61 382.7 1098 406.47 1101.29 379.14 1073.1 335.79 1050.44 376.08"/><polygon class="cls-12" points="912.76 417.12 898.65 441.17 889.87 404.25 912.76 417.12"/><polygon class="cls-7" points="945.99 335.79 941.82 311.64 919.06 302.57 941.33 289.78 944.38 265.04 962.31 281.28 986.96 275.05 975.77 297.88 987.95 318.78 963.11 316.65 945.99 335.79"/><polygon class="cls-10" points="943.85 332.23 939.12 308.54 916.92 299.01 937.99 287.19 940.19 263.14 957.94 279.52 981.5 274.19 971.4 296.13 983.76 316.88 959.77 314.06 943.85 332.23"/><rect class="cls-10" x="943.25" y="508.59" width="29.94" height="79.92" transform="translate(2002.57 190.16) rotate(131.27)"/><rect class="cls-7" x="1022.41" y="512.98" width="29.98" height="75.08" transform="translate(669.56 -564.81) rotate(43.79)"/><rect class="cls-10" x="1017.98" y="508.69" width="30.58" height="76.97" transform="translate(689.55 -570.37) rotate(45)"/><polygon class="cls-13" points="1002.93 788.23 963.02 677.76 999.37 585.83 1036.43 677.76 1002.93 788.23"/><rect class="cls-13" x="977.88" y="573.18" width="41.72" height="41.72" transform="matrix(0.75, 0.66, -0.66, 0.75, 639.91, -511.22)"/><rect class="cls-9" x="885.34" y="595.8" width="63.43" height="83.39"/><rect class="cls-14" x="881.77" y="591.53" width="70.56" height="29.93"/><polygon class="cls-10" points="912.63 616.55 910.67 611.59 913.33 606.97 918.6 606.16 922.52 609.78 922.13 615.1 917.73 618.11 912.63 616.55"/><polygon class="cls-15" points="995.44 469.85 1003.8 464.13 1005.07 461.81 1002.22 461.81 997.23 463.95 993.86 467.54 992.96 470.37 995.44 469.85"/><rect class="cls-16" x="980.84" y="625.02" width="6.41" height="52.03" transform="translate(1666.4 1613.64) rotate(-158.82)"/><rect class="cls-17" x="800" y="0.41" width="800" height="800"/><polygon class="cls-1" points="1994.67 179.69 1993.23 198.67 1995.26 213.33 2006.66 249.74 2011.97 278.49 2013.48 292.33 2042.24 319.41 2174.73 301.95 2186.39 288.43 2189.92 280.61 2180.7 159.48 2171.54 151.72 2116.79 159.42 2086.79 165.3 2064.13 174.33 2062.03 167.12 2066.35 150.45 2070.03 139.99 2072.21 131.87 2076.12 107.37 2075.78 88.15 2074.56 76.9 2071.42 64.11 2061.69 51.16 2045.94 47.18 2023.88 49.57 2014.88 55.37 2007.4 67.12 2008.89 84.91 2013.71 97.08 2019.42 121.41 2011.87 144.55 2000.28 166.82 1994.67 179.69"/><polygon class="cls-2" points="2189.04 284.93 2182.63 289.38 2104.64 298.61 2084.67 294.03 2082.78 278.06 2086.48 270.23 2097.59 262.44 2130.96 255.26 2178.4 249.65 2186.61 248.68 2192.33 254.01 2194.7 274.08 2189.04 284.93"/><polygon class="cls-2" points="2194.7 274.08 2189.04 284.93 2182.63 289.39 2104.64 298.61 2084.67 294.03 2083.22 281.69 2082.79 278.06 2086.48 270.23 2097.59 262.44 2130.96 255.26 2178.4 249.65 2186.61 248.68 2192.32 254.01 2194.17 269.64 2194.7 274.08"/><polygon class="cls-2" points="2188.01 249.72 2180.32 253.91 2088.2 264.8 2075.61 266.29 2065.73 260.98 2063.19 247.29 2067.81 240.19 2081.15 232.89 2120.68 225.35 2176.7 218.72 2186.4 217.58 2192.95 222.13 2195.04 239.89 2188.01 249.72"/><polygon class="cls-2" points="2194.95 239.02 2187.92 248.86 2180.22 253.04 2088.1 263.94 2075.51 265.42 2065.63 260.12 2064.36 253.25 2063.09 246.42 2067.71 239.33 2081.05 232.02 2120.58 224.48 2176.61 217.86 2186.3 216.71 2192.85 221.26 2194.35 233.92 2194.95 239.02"/><polygon class="cls-2" points="2186.13 217.02 2178.22 221.41 2082.61 235.75 2069.54 237.7 2059.14 232.91 2056.18 219.62 2060.83 212.5 2074.54 204.82 2115.5 195.87 2173.65 187.15 2183.72 185.65 2190.63 189.83 2193.22 207.12 2186.13 217.02"/><polygon class="cls-2" points="2193.22 207.12 2186.13 217.02 2178.22 221.42 2082.61 235.75 2069.54 237.71 2059.14 232.91 2056.76 222.24 2056.18 219.62 2060.83 212.5 2074.54 204.82 2115.5 195.87 2173.65 187.15 2183.72 185.64 2190.63 189.83 2192.43 201.86 2193.22 207.12"/><polygon class="cls-2" points="2184.14 186.72 2176.42 191.09 2083.03 205.09 2070.26 207 2060.09 202.17 2057.15 188.88 2061.67 181.78 2075.04 174.15 2115.04 165.34 2171.84 156.83 2181.67 155.36 2188.44 159.56 2191.03 176.85 2184.14 186.72"/><polygon class="cls-2" points="2191.03 176.85 2184.14 186.72 2176.42 191.09 2083.03 205.09 2070.26 207 2060.08 202.17 2057.8 191.84 2057.15 188.88 2061.67 181.78 2075.05 174.15 2115.04 165.34 2171.84 156.83 2181.67 155.36 2188.44 159.57 2190.28 171.85 2191.03 176.85"/><polygon class="cls-3" points="2194.17 269.64 2083.22 281.69 2082.79 278.06 2086.48 270.23 2097.59 262.44 2130.96 255.26 2178.4 249.65 2186.61 248.68 2192.32 254.01 2194.17 269.64"/><polygon class="cls-3" points="2194.35 233.92 2064.36 253.25 2063.09 246.42 2067.71 239.33 2081.05 232.02 2120.58 224.48 2176.61 217.86 2186.3 216.71 2192.85 221.26 2194.35 233.92"/><polygon class="cls-3" points="2192.43 201.86 2056.76 222.24 2056.18 219.62 2060.83 212.5 2074.54 204.82 2115.5 195.87 2173.65 187.15 2183.72 185.64 2190.63 189.83 2192.43 201.86"/><polygon class="cls-3" points="2190.28 171.85 2057.8 191.84 2057.15 188.88 2061.67 181.78 2075.05 174.15 2115.04 165.34 2171.84 156.83 2181.67 155.36 2188.44 159.57 2190.28 171.85"/><polygon class="cls-4" points="2081.41 180.33 2083.2 196.77 2074.49 201.22 2067.86 200.63 2064.16 198.84 2063.34 191.24 2062.99 188.02 2067.71 183.13 2071.8 180.5 2081.41 180.33"/><polygon class="cls-4" points="2080.91 211.91 2082.69 228.34 2073.98 232.79 2067.35 232.2 2063.66 230.41 2062.83 222.81 2062.48 219.6 2067.2 214.71 2071.29 212.07 2080.91 211.91"/><polygon class="cls-5" points="2089.27 236.51 2091.32 255.35 2081.84 260.39 2074.59 259.67 2070.55 257.61 2069.6 248.9 2069.2 245.21 2074.33 239.64 2078.78 236.65 2089.27 236.51"/><polygon class="cls-4" points="2103.96 271.01 2105.52 285.4 2098.01 289.28 2092.28 288.75 2089.08 287.18 2088.36 280.54 2088.05 277.72 2092.13 273.45 2095.66 271.15 2103.96 271.01"/><path class="cls-4" d="M2014.87,55.37l6.38,6.31s-1,19.36-.48,19.75-.09,15.33-.42,16.24-4.93,6.67-4.93,6.67l-1.7-7.26-4.83-12.17L2007,67.17Z"/><path class="cls-6" d="M1918.39,567.3V796.07a34.51,34.51,0,0,1-.28,4.34H1656.5a34.51,34.51,0,0,1-.28-4.34V567.3a33.59,33.59,0,0,1,33.5-33.5h195.17A33.59,33.59,0,0,1,1918.39,567.3Z"/><polygon class="cls-7" points="1858.57 638.33 1860.9 620.84 1847.81 608.99 1865.17 605.81 1872.39 589.7 1880.78 605.23 1898.33 607.11 1886.16 619.89 1889.79 637.17 1873.87 629.54 1858.57 638.33"/><polygon class="cls-8" points="1731.66 545.2 1675.36 572.28 1656.22 749.48 1650.72 800.41 1601 800.41 1628.32 552.33 1642.57 535.22 1658.97 533.8 1679.59 533.79 1701.02 533.8 1718.12 533.8 1731.66 545.2"/><rect class="cls-7" x="1740.4" y="512.15" width="29.94" height="79.92" transform="translate(3328.2 -403.07) rotate(131.27)"/><polygon class="cls-8" points="2062.36 319.75 1918.6 559.78 1918 626.5 1859.48 533.28 1869.7 530.5 2013.47 290.46 2062.36 319.75"/><rect class="cls-3" x="1761.6" y="475.36" width="63.43" height="88.38"/><polygon class="cls-3" points="1901.22 378.75 1892.72 451.87 1892.61 452.85 1838.38 504.07 1763.91 508.45 1704.06 463.94 1686.81 391.37 1693.45 378.13 1720.25 324.69 1788.73 295.11 1860.2 316.46 1901.22 378.75"/><polygon class="cls-2" points="1892.73 452.9 1839.19 503.41 1734.05 318.78 1788.95 295.1 1860.41 316.49 1901.4 378.81 1892.73 452.9"/><polyline class="cls-9" points="1885.68 313.42 1835.39 402.85 1736.59 430.52 1647.16 380.23"/><rect class="cls-6" x="1640.84" y="340.46" width="251.37" height="23.24" transform="translate(-29.49 489.56) rotate(-15.65)"/><polygon class="cls-9" points="1662.32 369.2 1619.31 327.61 1642.58 308.57 1654.52 287.35 1661.94 269.18 1670.33 270.4 1692.22 268.74 1708.2 265.16 1722.46 252.22 1730.65 246.35 1736.85 236.57 1767.12 339.84 1662.32 369.2"/><polygon class="cls-9" points="1869.43 311.18 1884.57 253.3 1854.79 249.13 1833.57 237.19 1817.79 225.52 1811.25 230.93 1791.69 240.88 1776.17 246.12 1757.27 242.47 1747.22 241.71 1736.85 236.57 1764.63 340.54 1869.43 311.18"/><polygon class="cls-10" points="1857.14 635.48 1859.47 617.99 1846.38 606.14 1863.75 602.96 1870.96 586.85 1879.36 602.38 1896.91 604.26 1884.74 617.04 1888.37 634.32 1872.45 626.69 1857.14 635.48"/><path class="cls-11" d="M1823.7,467.48l-7.79-7-9.37-2.18-11.29,4.25-5.86,6.63-3.47,7.54a49.63,49.63,0,0,1-4.62,3.36c-.55.14-9.37-2.17-9.37-2.17l-5.23-1,6,10.44,7.29,3.43s7,1.27,8.07,1l11.5-2.81s7-2.45,7.66-1.87,10.4-2.54,10.4-2.54l5.62-4.34,1.88-2.69Z"/><path class="cls-11" d="M1823.14,469.37l4.34-8.31,6.63-5.24,9.5-1.11,5.92,2.78,4.3,4.39a32.71,32.71,0,0,0,4.25.78c.44-.11,6.62-5.24,6.62-5.24l3.75-2.73-2.23,10.21-4.76,5.4s-5,3.63-5.9,3.85l-9.34,2.28s-5.86.83-6.22,1.52-8.45,2.06-8.45,2.06l-5.23-1.14-2-1.32Z"/><polygon class="cls-12" points="1850.44 376.08 1885.61 382.7 1898 406.47 1901.29 379.14 1873.1 335.79 1850.44 376.08"/><polygon class="cls-12" points="1712.76 417.12 1698.65 441.17 1689.87 404.25 1712.76 417.12"/><polygon class="cls-7" points="1745.98 335.79 1741.82 311.64 1719.06 302.57 1741.33 289.78 1744.38 265.04 1762.31 281.28 1786.96 275.05 1775.77 297.88 1787.95 318.78 1763.11 316.65 1745.98 335.79"/><polygon class="cls-10" points="1743.85 332.23 1739.12 308.54 1716.92 299.01 1737.99 287.19 1740.19 263.14 1757.94 279.52 1781.5 274.19 1771.4 296.13 1783.76 316.88 1759.77 314.06 1743.85 332.23"/><rect class="cls-10" x="1743.25" y="508.59" width="29.94" height="79.92" transform="translate(3330.25 -411.13) rotate(131.27)"/><rect class="cls-7" x="1822.41" y="512.98" width="29.98" height="75.08" transform="translate(892.09 -1118.46) rotate(43.79)"/><rect class="cls-10" x="1817.98" y="508.69" width="30.58" height="76.97" transform="translate(923.87 -1136.06) rotate(45)"/><polygon class="cls-13" points="1802.93 788.23 1763.02 677.76 1799.37 585.83 1836.43 677.76 1802.93 788.23"/><rect class="cls-13" x="1777.88" y="573.18" width="41.72" height="41.72" transform="matrix(0.75, 0.66, -0.66, 0.75, 838.62, -1038.91)"/><rect class="cls-9" x="1685.34" y="595.8" width="63.43" height="83.39"/><rect class="cls-14" x="1681.77" y="591.53" width="70.56" height="29.93"/><polygon class="cls-10" points="1712.63 616.55 1710.67 611.59 1713.33 606.97 1718.6 606.16 1722.52 609.78 1722.13 615.1 1717.73 618.11 1712.63 616.55"/><polygon class="cls-15" points="1795.44 469.85 1803.81 464.13 1805.07 461.81 1802.22 461.81 1797.23 463.95 1793.86 467.54 1792.96 470.37 1795.44 469.85"/><rect class="cls-16" x="1780.84" y="625.02" width="6.41" height="52.03" transform="translate(3212.35 1902.68) rotate(-158.82)"/><rect class="cls-17" x="1600" y="0.41" width="800" height="800"/><polygon class="cls-1" points="2871.8 233.12 2869.19 251.98 2870.3 266.74 2879.41 303.78 2882.93 332.81 2883.57 346.72 2910.6 375.53 3043.91 366.34 3056.39 353.57 3060.4 345.98 3058.73 224.51 3050.07 216.2 2994.94 220.48 2964.63 224.49 2941.46 232.09 2939.81 224.76 2945.16 208.4 2949.48 198.18 2952.16 190.22 2957.58 166.01 2958.44 146.8 2957.92 135.5 2955.58 122.53 2946.68 109 2931.2 104.05 2909.03 105.08 2899.69 110.3 2891.5 121.56 2891.88 139.41 2895.94 151.85 2900.13 176.49 2891.15 199.12 2878.2 220.63 2871.8 233.12"/><polygon class="cls-2" points="3059.26 350.24 3052.58 354.29 2974.16 358.64 2954.52 352.84 2953.63 336.79 2957.81 329.19 2969.38 322.11 3003.13 317.02 3050.82 314.37 3059.08 313.91 3064.45 319.59 3065.57 339.77 3059.26 350.24"/><polygon class="cls-2" points="3065.57 339.77 3059.26 350.24 3052.58 354.29 2974.16 358.65 2954.52 352.84 2953.83 340.43 2953.63 336.79 2957.81 329.19 2969.37 322.11 3003.13 317.02 3050.82 314.37 3059.08 313.91 3064.45 319.59 3065.32 335.3 3065.57 339.77"/><polygon class="cls-2" points="3060.42 315.04 3052.47 318.74 2959.86 323.88 2947.2 324.58 2937.67 318.67 2935.98 304.85 2941.04 298.06 2954.8 291.59 2994.72 286.53 3051.05 283.4 3060.8 282.86 3067.05 287.8 3068.04 305.66 3060.42 315.04"/><polygon class="cls-2" points="3068.01 304.79 3060.37 314.17 3052.43 317.87 2959.81 323.01 2947.16 323.71 2937.63 317.81 2936.78 310.88 2935.94 303.98 2940.99 297.19 2954.76 290.72 2994.68 285.66 3051.01 282.53 3060.76 281.99 3067.01 286.93 3067.72 299.66 3068.01 304.79"/><polygon class="cls-2" points="3060.57 282.28 3052.4 286.18 2956.08 294.54 2942.92 295.68 2932.83 290.25 2930.71 276.8 2935.79 269.98 2949.95 263.17 2991.39 256.78 3049.97 251.7 3060.11 250.82 3066.75 255.43 3068.26 272.84 3060.57 282.28"/><polygon class="cls-2" points="3068.26 272.84 3060.57 282.28 3052.4 286.18 2956.08 294.54 2942.92 295.68 2932.83 290.25 2931.13 279.45 2930.71 276.8 2935.79 269.98 2949.95 263.17 2991.39 256.78 3049.97 251.7 3060.11 250.82 3066.75 255.42 3067.8 267.54 3068.26 272.84"/><polygon class="cls-2" points="3060.46 251.92 3052.48 255.8 2958.41 263.97 2945.55 265.08 2935.69 259.63 2933.59 246.18 2938.54 239.38 2952.36 232.59 2992.83 226.29 3050.05 221.32 3059.95 220.46 3066.45 225.08 3067.96 242.5 3060.46 251.92"/><polygon class="cls-2" points="3067.96 242.5 3060.46 251.92 3052.48 255.8 2958.41 263.97 2945.55 265.08 2935.69 259.63 2934.05 249.18 2933.58 246.18 2938.54 239.38 2952.36 232.59 2992.83 226.29 3050.05 221.32 3059.95 220.46 3066.45 225.08 3067.52 237.45 3067.96 242.5"/><polygon class="cls-3" points="3065.32 335.3 2953.83 340.43 2953.63 336.79 2957.81 329.19 2969.37 322.11 3003.13 317.02 3050.82 314.37 3059.08 313.91 3064.45 319.59 3065.32 335.3"/><polygon class="cls-3" points="3067.72 299.66 2936.78 310.88 2935.94 303.98 2940.99 297.19 2954.76 290.72 2994.68 285.66 3051.01 282.53 3060.76 281.99 3067.01 286.93 3067.72 299.66"/><polygon class="cls-3" points="3067.8 267.54 2931.13 279.45 2930.71 276.8 2935.79 269.98 2949.95 263.17 2991.39 256.78 3049.97 251.7 3060.11 250.82 3066.75 255.42 3067.8 267.54"/><polygon class="cls-3" points="3067.52 237.45 2934.05 249.18 2933.58 246.18 2938.54 239.38 2952.36 232.59 2992.83 226.29 3050.05 221.32 3059.95 220.46 3066.45 225.08 3067.52 237.45"/><polygon class="cls-4" points="2958.34 239.16 2959.1 255.68 2950.13 259.57 2943.55 258.57 2939.97 256.56 2939.62 248.92 2939.47 245.69 2944.49 241.1 2948.73 238.73 2958.34 239.16"/><polygon class="cls-4" points="2955.86 270.64 2956.63 287.16 2947.66 291.05 2941.08 290.05 2937.5 288.04 2937.15 280.4 2937 277.17 2942.01 272.58 2946.26 270.21 2955.86 270.64"/><polygon class="cls-5" points="2962.68 295.72 2963.55 314.64 2953.78 319.09 2946.6 317.92 2942.69 315.61 2942.29 306.86 2942.11 303.15 2947.58 297.91 2952.2 295.2 2962.68 295.72"/><polygon class="cls-4" points="2975.2 331.06 2975.87 345.52 2968.12 348.92 2962.44 348.04 2959.35 346.28 2959.04 339.6 2958.91 336.77 2963.24 332.76 2966.91 330.68 2975.2 331.06"/><path class="cls-4" d="M2899.69,110.3l6,6.69s-2.16,19.27-1.71,19.68-1,15.3-1.43,16.19-5.33,6.35-5.33,6.35l-1.25-7.35-4.06-12.45-.82-17.82Z"/><path class="cls-6" d="M2718.39,567.3V796.07a34.51,34.51,0,0,1-.28,4.34H2456.5a34.51,34.51,0,0,1-.28-4.34V567.3a33.59,33.59,0,0,1,33.5-33.5h195.17A33.59,33.59,0,0,1,2718.39,567.3Z"/><polygon class="cls-7" points="2658.57 638.33 2660.9 620.84 2647.81 608.99 2665.17 605.81 2672.39 589.7 2680.78 605.23 2698.33 607.11 2686.16 619.89 2689.79 637.17 2673.87 629.54 2658.57 638.33"/><polygon class="cls-8" points="2531.66 545.2 2475.36 572.28 2456.22 749.48 2450.72 800.41 2401 800.41 2428.32 552.33 2442.57 535.22 2458.97 533.8 2479.59 533.79 2501.02 533.8 2518.12 533.8 2531.66 545.2"/><rect class="cls-7" x="2540.4" y="512.15" width="29.94" height="79.92" transform="translate(4655.89 -1004.36) rotate(131.27)"/><polygon class="cls-8" points="2919.63 379.88 2718.78 574.66 2718.39 637.14 2668.5 533.8 2679.1 533.75 2879.95 338.96 2919.63 379.88"/><rect class="cls-3" x="2561.6" y="475.36" width="63.43" height="88.38"/><polygon class="cls-3" points="2701.22 378.75 2692.72 451.87 2692.61 452.85 2638.38 504.07 2563.91 508.45 2504.06 463.94 2486.81 391.37 2493.45 378.13 2520.25 324.69 2588.73 295.11 2660.2 316.46 2701.22 378.75"/><polygon class="cls-2" points="2692.74 452.9 2639.19 503.41 2534.05 318.78 2588.95 295.1 2660.41 316.49 2701.4 378.81 2692.74 452.9"/><polyline class="cls-9" points="2685.68 313.42 2635.39 402.85 2536.59 430.52 2447.16 380.23"/><rect class="cls-6" x="2440.84" y="340.46" width="251.37" height="23.24" transform="translate(0.17 705.36) rotate(-15.65)"/><polygon class="cls-9" points="2462.32 369.2 2419.31 327.61 2442.58 308.57 2454.52 287.35 2461.94 269.18 2470.33 270.4 2492.22 268.74 2508.2 265.16 2522.46 252.22 2530.65 246.35 2536.85 236.57 2567.12 339.84 2462.32 369.2"/><polygon class="cls-9" points="2669.43 311.18 2684.57 253.3 2654.79 249.13 2633.57 237.19 2617.78 225.52 2611.25 230.93 2591.69 240.88 2576.17 246.12 2557.27 242.47 2547.22 241.71 2536.85 236.57 2564.63 340.54 2669.43 311.18"/><polygon class="cls-10" points="2657.14 635.48 2659.47 617.99 2646.39 606.14 2663.75 602.96 2670.96 586.85 2679.36 602.38 2696.91 604.26 2684.74 617.04 2688.36 634.32 2672.45 626.69 2657.14 635.48"/><path class="cls-11" d="M2623.7,467.48l-7.79-7-9.37-2.18-11.29,4.25-5.86,6.63-3.47,7.54a49.63,49.63,0,0,1-4.62,3.36c-.55.14-9.37-2.17-9.37-2.17l-5.23-1,6,10.44,7.29,3.43s7,1.27,8.07,1l11.5-2.81s7-2.45,7.66-1.87,10.4-2.54,10.4-2.54l5.62-4.34,1.88-2.69Z"/><path class="cls-11" d="M2623.14,469.37l4.34-8.31,6.63-5.24,9.5-1.11,5.92,2.78,4.3,4.39a32.71,32.71,0,0,0,4.25.78c.44-.11,6.62-5.24,6.62-5.24l3.75-2.73-2.23,10.21-4.76,5.4s-5,3.63-5.9,3.85l-9.34,2.28s-5.86.83-6.22,1.52-8.45,2.06-8.45,2.06l-5.23-1.14-2-1.32Z"/><polygon class="cls-12" points="2650.44 376.08 2685.61 382.7 2698 406.47 2701.29 379.14 2673.1 335.79 2650.44 376.08"/><polygon class="cls-12" points="2512.76 417.12 2498.65 441.17 2489.87 404.25 2512.76 417.12"/><polygon class="cls-7" points="2545.99 335.79 2541.82 311.64 2519.06 302.57 2541.33 289.78 2544.38 265.04 2562.31 281.28 2586.96 275.05 2575.77 297.88 2587.95 318.78 2563.11 316.65 2545.99 335.79"/><polygon class="cls-10" points="2543.85 332.23 2539.12 308.54 2516.92 299.01 2537.99 287.19 2540.19 263.14 2557.94 279.52 2581.5 274.19 2571.4 296.13 2583.76 316.88 2559.77 314.06 2543.85 332.23"/><rect class="cls-10" x="2543.25" y="508.59" width="29.94" height="79.92" transform="translate(4657.94 -1012.42) rotate(131.27)"/><rect class="cls-7" x="2622.41" y="512.98" width="29.98" height="75.08" transform="translate(1114.62 -1672.11) rotate(43.79)"/><rect class="cls-10" x="2617.98" y="508.69" width="30.58" height="76.97" transform="translate(1158.18 -1701.74) rotate(45)"/><polygon class="cls-13" points="2602.93 788.23 2563.02 677.76 2599.37 585.83 2636.43 677.76 2602.93 788.23"/><rect class="cls-13" x="2577.88" y="573.18" width="41.72" height="41.72" transform="matrix(0.75, 0.66, -0.66, 0.75, 1037.33, -1566.59)"/><rect class="cls-9" x="2485.34" y="595.8" width="63.43" height="83.39"/><rect class="cls-14" x="2481.77" y="591.53" width="70.56" height="29.93"/><polygon class="cls-10" points="2512.63 616.55 2510.67 611.59 2513.33 606.97 2518.6 606.16 2522.52 609.78 2522.13 615.1 2517.73 618.11 2512.63 616.55"/><polygon class="cls-15" points="2595.44 469.85 2603.8 464.13 2605.07 461.81 2602.22 461.81 2597.23 463.95 2593.86 467.54 2592.96 470.37 2595.44 469.85"/><rect class="cls-16" x="2580.84" y="625.02" width="6.41" height="52.03" transform="translate(4758.31 2191.73) rotate(-158.82)"/><rect class="cls-17" x="2400" y="0.41" width="800" height="800"/><polygon class="cls-1" points="3803.39 332.23 3794.1 348.84 3789.77 363 3784.79 400.82 3777.52 429.14 3773.06 442.33 3787.76 479 3915.29 518.9 3931.57 511.54 3938.06 505.93 3980.66 392.17 3975.61 381.27 3922.7 365.22 3893.01 357.94 3868.66 356.59 3869.79 349.17 3880.72 335.87 3888.46 327.92 3893.85 321.47 3907.7 300.89 3915.48 283.31 3919.11 272.59 3921.64 259.67 3918.27 243.82 3905.65 233.59 3884.63 226.48 3874.03 227.95 3862.3 235.46 3856.17 252.23 3855.42 265.3 3850.36 289.77 3833.77 307.59 3813.89 322.92 3803.39 332.23"/><polygon class="cls-2" points="3935.44 509.48 3927.75 510.83 3853.12 486.38 3836.93 473.82 3841.93 458.55 3848.59 452.99 3861.94 450.6 3895.24 458.13 3940.63 473 3948.48 475.57 3951.43 482.82 3945.13 502.02 3935.44 509.48"/><polygon class="cls-2" points="3945.13 502.02 3935.44 509.48 3927.75 510.83 3853.11 486.38 3836.93 473.82 3840.8 462.02 3841.93 458.55 3848.59 452.99 3861.94 450.6 3895.24 458.13 3940.63 473 3948.48 475.57 3951.43 482.82 3946.53 497.77 3945.13 502.02"/><polygon class="cls-2" points="3949.32 477.11 3940.57 477.67 3852.43 448.79 3840.38 444.84 3833.65 435.87 3837.1 422.38 3844.28 417.89 3859.46 416.87 3898.49 426.67 3952.1 444.23 3961.38 447.27 3965.4 454.15 3959.84 471.15 3949.32 477.11"/><polygon class="cls-2" points="3960.12 470.32 3949.6 476.29 3940.85 476.85 3852.7 447.97 3840.66 444.02 3833.93 435.05 3835.66 428.28 3837.38 421.56 3844.56 417.07 3859.74 416.05 3898.77 425.84 3952.38 443.4 3961.66 446.44 3965.68 453.32 3961.72 465.44 3960.12 470.32"/><polygon class="cls-2" points="3961.37 446.65 3952.34 447.31 3859.58 420.08 3846.9 416.36 3839.48 407.63 3842.39 394.33 3849.6 389.83 3865.27 388.63 3906.2 397.75 3962.62 414.31 3972.38 417.17 3976.89 423.88 3971.97 440.65 3961.37 446.65"/><polygon class="cls-2" points="3971.97 440.65 3961.37 446.65 3952.34 447.31 3859.58 420.08 3846.9 416.36 3839.48 407.63 3841.81 396.95 3842.39 394.33 3849.6 389.83 3865.27 388.63 3906.2 397.75 3962.62 414.31 3972.38 417.17 3976.89 423.88 3973.47 435.55 3971.97 440.65"/><polygon class="cls-2" points="3972.31 418.32 3963.47 419.04 3872.86 392.45 3860.47 388.81 3853.27 380.15 3856.2 366.86 3863.29 362.31 3878.63 361.02 3918.62 369.86 3973.73 386.04 3983.27 388.84 3987.64 395.5 3982.72 412.27 3972.31 418.32"/><polygon class="cls-2" points="3982.72 412.27 3972.31 418.33 3963.47 419.04 3872.86 392.45 3860.47 388.81 3853.27 380.15 3855.55 369.82 3856.2 366.86 3863.29 362.32 3878.63 361.02 3918.62 369.86 3973.73 386.04 3983.27 388.84 3987.64 395.5 3984.15 407.42 3982.72 412.27"/><polygon class="cls-3" points="3946.53 497.77 3840.8 462.02 3841.93 458.55 3848.59 452.99 3861.94 450.6 3895.24 458.13 3940.63 473 3948.48 475.57 3951.43 482.82 3946.53 497.77"/><polygon class="cls-3" points="3961.72 465.44 3835.66 428.28 3837.38 421.56 3844.56 417.07 3859.74 416.05 3898.77 425.84 3952.38 443.4 3961.66 446.44 3965.68 453.32 3961.72 465.44"/><polygon class="cls-3" points="3973.47 435.55 3841.81 396.95 3842.39 394.33 3849.6 389.83 3865.27 388.63 3906.2 397.75 3962.62 414.31 3972.38 417.17 3976.89 423.88 3973.47 435.55"/><polygon class="cls-3" points="3984.15 407.42 3855.55 369.82 3856.2 366.86 3863.29 362.32 3878.63 361.02 3918.62 369.86 3973.73 386.04 3983.27 388.84 3987.64 395.5 3984.15 407.42"/><polygon class="cls-4" points="3881.81 369.31 3876.51 384.98 3866.74 385.35 3860.98 382.02 3858.38 378.84 3860.82 371.6 3861.86 368.54 3868.2 366.09 3873.02 365.42 3881.81 369.31"/><polygon class="cls-4" points="3868.06 397.74 3862.77 413.4 3852.99 413.77 3847.23 410.45 3844.63 407.27 3847.08 400.03 3848.11 396.96 3854.45 394.51 3859.27 393.85 3868.06 397.74"/><polygon class="cls-5" points="3865.3 423.58 3859.23 441.53 3848.51 442.12 3842.24 438.42 3839.44 434.84 3842.25 426.54 3843.43 423.03 3850.43 420.13 3855.72 419.29 3865.3 423.58"/><polygon class="cls-4" points="3864.11 461.06 3859.47 474.76 3851.02 475.12 3846.05 472.23 3843.81 469.47 3845.95 463.13 3846.86 460.45 3852.35 458.29 3856.52 457.69 3864.11 461.06"/><path class="cls-4" d="M3874,228l3.12,8.4s-9,17.17-8.74,17.72-6.53,13.87-7.22,14.55-7.28,4-7.28,4l1.51-7.3.75-13.07,5.71-16.9Z"/><path class="cls-6" d="M3518.39,567.3V796.07a34.51,34.51,0,0,1-.28,4.34H3256.5a34.51,34.51,0,0,1-.28-4.34V567.3a33.59,33.59,0,0,1,33.5-33.5h195.17A33.59,33.59,0,0,1,3518.39,567.3Z"/><polygon class="cls-7" points="3458.57 638.33 3460.9 620.84 3447.81 608.99 3465.17 605.81 3472.39 589.7 3480.78 605.23 3498.33 607.11 3486.16 619.89 3489.79 637.17 3473.87 629.54 3458.57 638.33"/><polygon class="cls-8" points="3331.66 545.2 3275.36 572.28 3256.22 749.48 3250.72 800.41 3201 800.41 3228.32 552.33 3242.57 535.22 3258.97 533.8 3279.59 533.79 3301.02 533.8 3318.12 533.8 3331.66 545.2"/><rect class="cls-7" x="3340.4" y="512.15" width="29.94" height="79.92" transform="translate(5983.57 -1605.65) rotate(131.27)"/><polygon class="cls-8" points="3794.59 488.33 3536.67 596.77 3518 655.5 3502 563.5 3461 541.5 3471 533.5 3492 533.5 3514.58 544.23 3772.51 435.79 3794.59 488.33"/><rect class="cls-3" x="3361.6" y="475.36" width="63.43" height="88.38"/><polygon class="cls-3" points="3501.22 378.75 3492.72 451.87 3492.61 452.85 3438.38 504.07 3363.91 508.45 3304.06 463.94 3286.81 391.37 3293.45 378.13 3320.25 324.69 3388.73 295.11 3460.2 316.46 3501.22 378.75"/><polygon class="cls-2" points="3492.74 452.9 3439.19 503.41 3334.05 318.78 3388.95 295.1 3460.41 316.49 3501.4 378.81 3492.74 452.9"/><polyline class="cls-9" points="3485.68 313.42 3435.39 402.85 3336.59 430.52 3247.16 380.23"/><rect class="cls-6" x="3240.84" y="340.46" width="251.37" height="23.24" transform="translate(29.82 921.15) rotate(-15.65)"/><polygon class="cls-9" points="3262.32 369.2 3219.31 327.61 3242.58 308.57 3254.52 287.35 3261.94 269.18 3270.33 270.4 3292.22 268.74 3308.2 265.16 3322.46 252.22 3330.65 246.35 3336.85 236.57 3367.12 339.84 3262.32 369.2"/><polygon class="cls-9" points="3469.43 311.18 3484.57 253.3 3454.79 249.13 3433.57 237.19 3417.78 225.52 3411.25 230.93 3391.69 240.88 3376.17 246.12 3357.27 242.47 3347.22 241.71 3336.85 236.57 3364.63 340.54 3469.43 311.18"/><polygon class="cls-10" points="3457.14 635.48 3459.47 617.99 3446.39 606.14 3463.75 602.96 3470.96 586.85 3479.36 602.38 3496.91 604.26 3484.74 617.04 3488.36 634.32 3472.45 626.69 3457.14 635.48"/><path class="cls-11" d="M3423.7,467.48l-7.79-7-9.37-2.18-11.29,4.25-5.86,6.63-3.47,7.54a49.63,49.63,0,0,1-4.62,3.36c-.55.14-9.37-2.17-9.37-2.17l-5.23-1,6,10.44,7.29,3.43s7,1.27,8.07,1l11.5-2.81s7-2.45,7.66-1.87,10.4-2.54,10.4-2.54l5.62-4.34,1.88-2.69Z"/><path class="cls-11" d="M3423.14,469.37l4.34-8.31,6.63-5.24,9.5-1.11,5.92,2.78,4.3,4.39a32.71,32.71,0,0,0,4.25.78c.44-.11,6.62-5.24,6.62-5.24l3.75-2.73-2.23,10.21-4.76,5.4s-5,3.63-5.9,3.85l-9.34,2.28s-5.86.83-6.22,1.52-8.45,2.06-8.45,2.06l-5.23-1.14-2-1.32Z"/><polygon class="cls-12" points="3450.44 376.08 3485.61 382.7 3498 406.47 3501.29 379.14 3473.1 335.79 3450.44 376.08"/><polygon class="cls-12" points="3312.76 417.12 3298.65 441.17 3289.87 404.25 3312.76 417.12"/><polygon class="cls-7" points="3345.99 335.79 3341.82 311.64 3319.06 302.57 3341.33 289.78 3344.38 265.04 3362.31 281.28 3386.96 275.05 3375.77 297.88 3387.95 318.78 3363.11 316.65 3345.99 335.79"/><polygon class="cls-10" points="3343.85 332.23 3339.12 308.54 3316.92 299.01 3337.99 287.19 3340.19 263.14 3357.94 279.52 3381.5 274.19 3371.4 296.13 3383.76 316.88 3359.77 314.06 3343.85 332.23"/><rect class="cls-10" x="3343.25" y="508.59" width="29.94" height="79.92" transform="translate(5985.62 -1613.71) rotate(131.27)"/><rect class="cls-7" x="3422.41" y="512.98" width="29.98" height="75.08" transform="translate(1337.15 -2225.76) rotate(43.79)"/><rect class="cls-10" x="3417.98" y="508.69" width="30.58" height="76.97" transform="translate(1392.5 -2267.43) rotate(45)"/><polygon class="cls-13" points="3402.93 788.23 3363.02 677.76 3399.37 585.83 3436.43 677.76 3402.93 788.23"/><rect class="cls-13" x="3377.88" y="573.18" width="41.72" height="41.72" transform="matrix(0.75, 0.66, -0.66, 0.75, 1236.04, -2094.28)"/><rect class="cls-9" x="3285.34" y="595.8" width="63.43" height="83.39"/><rect class="cls-14" x="3281.77" y="591.53" width="70.56" height="29.93"/><polygon class="cls-10" points="3312.63 616.55 3310.67 611.59 3313.33 606.97 3318.6 606.16 3322.52 609.78 3322.13 615.1 3317.73 618.11 3312.63 616.55"/><polygon class="cls-15" points="3395.44 469.85 3403.8 464.13 3405.07 461.81 3402.22 461.81 3397.23 463.95 3393.86 467.54 3392.96 470.37 3395.44 469.85"/><rect class="cls-16" x="3380.84" y="625.02" width="6.41" height="52.03" transform="translate(6304.27 2480.77) rotate(-158.82)"/><rect class="cls-17" x="3200" y="0.41" width="800" height="800"/></svg>
