<svg xmlns="http://www.w3.org/2000/svg" viewBox="0 0 500 100"><defs><style>.cls-1{fill:#e09819;}.cls-2{fill:#ba630d;}.cls-3{fill:none;}.cls-4{fill:#666;}.cls-5{fill:#9b9b9b;}</style></defs><title>toogle </title><g id="ui_elementer" data-name="ui elementer"><path class="cls-1" d="M31.85,34h36.3a16,16,0,0,1,15.9,16h0a16,16,0,0,1-15.9,16H31.85A16,16,0,0,1,16,50h0A15.9,15.9,0,0,1,31.85,34Z"/><circle class="cls-2" cx="67.55" cy="50" r="13.5"/><rect class="cls-3" width="100" height="100"/><path class="cls-1" d="M131.85,34h36.3a16,16,0,0,1,15.9,16h0a16,16,0,0,1-15.9,16h-36.3A16,16,0,0,1,116,50h0A15.9,15.9,0,0,1,131.85,34Z"/><circle class="cls-2" cx="159.55" cy="50" r="13.5"/><rect class="cls-3" x="100" width="100" height="100"/><rect class="cls-3" x="100" width="100" height="100"/><path class="cls-1" d="M231.85,34h36.3a16,16,0,0,1,15.9,16h0a16,16,0,0,1-15.9,16h-36.3A16,16,0,0,1,216,50h0A15.9,15.9,0,0,1,231.85,34Z"/><circle class="cls-2" cx="249.55" cy="50" r="13.5"/><rect class="cls-3" x="200" width="100" height="100"/><rect class="cls-3" x="200" width="100" height="100"/><path class="cls-1" d="M331.85,34h36.3a16,16,0,0,1,15.9,16h0a16,16,0,0,1-15.9,16h-36.3A16,16,0,0,1,316,50h0A15.9,15.9,0,0,1,331.85,34Z"/><circle class="cls-2" cx="339.55" cy="50" r="13.5"/><rect class="cls-3" x="300" width="100" height="100"/><rect class="cls-3" x="300" width="100" height="100"/><path class="cls-4" d="M431.85,34h36.3a16,16,0,0,1,15.9,16h0a16,16,0,0,1-15.9,16h-36.3A16,16,0,0,1,416,50h0A15.9,15.9,0,0,1,431.85,34Z"/><circle class="cls-5" cx="432.55" cy="50" r="13.5"/><rect class="cls-3" x="400" width="100" height="100"/><rect class="cls-3" x="400" width="100" height="100"/><rect class="cls-3" x="200" width="100" height="100"/><rect class="cls-3" x="300" width="100" height="100"/><rect class="cls-3" x="400" width="100" height="100"/></g></svg>